<mxfile host="65bd71144e">
    <diagram id="lxuswK3RaLXxOY-o7dRl" name="ページ1">
        <mxGraphModel dx="1511" dy="753" grid="1" gridSize="10" guides="1" tooltips="1" connect="1" arrows="1" fold="1" page="1" pageScale="1" pageWidth="827" pageHeight="1169" math="0" shadow="0">
            <root>
                <mxCell id="0"/>
                <mxCell id="1" parent="0"/>
                <mxCell id="2" value="" style="shape=image;verticalLabelPosition=bottom;labelBackgroundColor=default;verticalAlign=top;aspect=fixed;imageAspect=0;image=data:image/png,iVBORw0KGgoAAAANSUhEUgAABV4AAAPCCAYAAACAycOJAAAAAXNSR0IArs4c6QAAAARnQU1BAACxjwv8YQUAAAAJcEhZcwAAEnQAABJ0Ad5mH3gAAP+lSURBVHhe7N0LfBT1vf//d8ItIGCoKEFUDMppg1IIHntIWk4lqD2GamtSbE16Ayw9Cu05Cvo7CrWtgp4qaI+C/ksbbXua0JYST22JxwuBFptwbCUoSmxRAopN0Gi4acI1//nMzm5mN5tkEzYhCa+nj2F3Z2ZnvvOd2XXy3u98J0GdqNHhPQUAAAAAAACAU0ai9wgAAAAAAAAAiBOCVwAAAAAAAACIM4JXAAAAAAAAAIgzglcAAAAAAAAAiDOCVwAAAAAAAACIM4JXAAAAAAAAAIgzglcAAAAAAAAAiDOCVwAAAAAAAACIswTvsVM0Oryn6Ebq9h1Q7fv79EF9g+0jbyzQ+RISEnTawCQN/8jpGnb6EG9s+xw5elSHjxzVsWPHvTHoTfr0SVT/fn3Vr29fbwwAAMDJwXkn0DPwNwS6M4LXU8zbe2p18IN6jRg+TEOHnKbEhE49BIAwx52vhP0HPtCe2joNPm2gRo0Y7k2JzaHDR9wBvd+A/v3cAQAA4GTgvBPoefgbAt0RwespxFq6vvPeXo1NPYfAFSeVBbDbq3brrDOSY275ai0O6hsOe69wKhiY1J9frQEAQJfjvBPoufgbAt0NfbyeQqx7AWvpSuiKk82OQTsW7ZiMlV3mhVML+xwAAJwMnIMAPRefX3Q3tHg9hWzZ9ro+nnYBwSu6BWv1+nLlG5o47kJvTOv2H/zQexbOvmaCQ/B1T2F93gYfgwPCDR08yHsGAADQNVo67+wJuvO5Mee+6Cr8DYHupFO/6ZwveYLXbqTi1e1Kv2is9wo4+dpzTEY7AbavmOPHj6tPYqIGJg1Qv34975KSI0fsUrZDOuZsR6KzHZyAhuOkCQAAdLWeGrwGz43tdHLggMC5sZ1fdidHjx51+861Vok9/dz3vbp9OmPY6d6rnqEnlrkj+BsC3QldDQDokezE0k7c7O6VdqO4nhi6Giu3ld+2w7aH36sAAADQXsFz48TEBCUPHaIBA/p3u9DV9O3bV6cNGqhBAwdw7gvglEDwCqDHCf6a37dvH/fErTew7bDtse3iBBQAAACxCp4b23D6kMHe2O5tQP/+7hVrnPsC6O0IXgH0OHZyZr+QJzknbL2JbQ+//AMAAKA9gufGA/r3rCvABg1M0rFjxzj3BdCrEbwC6HHs5Oy4c5LWv38/b0zvYNtj28XJJwAAAGIVPDe2y/h7GrvxM+e+AHozglcAPdLxRrtxQO+6EZVtj20XAAAA0B7uuXHn3ju7UxC6AujtCF4B9Dh2gtZbz9FsuzgBBQAAQKx68rlxoOyc+wLovQheAQAAAAAAACDOCF4BAAAAAAAAIM4IXgEAAAAAAAAgzgheAQAAAAAAACDOCF7DlGtJQoJyV9V4r+Ov/O4EJdxd7r0CeoaXX33NewYAAAAAAIBYJHiPnaKxx92e0ILXTG0uqtaa61O8cfFlwWumytT4nQxvTNepeHW70i8a670C2rZv/wH9/ulSvbn77zp96BDdNPvL3pT4aM8xuf/gh94z6ejRo2poaNDZKWd5YzquuLhYubm5Gjt2rH7zm9/o4x//uDfl5Ph7zTtKSkpS3759vTGx2fXmW1r8n/frwIGD3hgpMTFRZ515pi6ZNEGXZ12mlBEjlJDQqV/7cTd08CDvGQAAQNfwn3fGw+HDR/S/z63Txo1/0qL/uFWnnz7UHW9/Lv/5xc0q+uVvVLNnjwYNHKgrr8hSzjWfVf8BA9x5YhE8Nx7mLHfgwCRvbPtYWV544QX96Ec/0m9/+1sdOXJE06ZN07//+7/rn//5n8POId99913913/9l37xi1/o/fff17/8y7/ojjvu0MSJE705Ylf7Xp0S+/Rp97lv0Esvv6Lfri3R629U6fChQ/rIsGRNm3qZrs7+TFgd2j5Y/4c/6re/W6v36/a6833eqeesqZ9WX2f9HfFe3T6dMex071Xs9u3br7uW/Kferm7e4Ov2W2/RhI9f7L2Sqmtq9NP/LtKrr1a6ry+6KE2zvvZljTirY38HdbTMQSd6LHfGfogmLn9DbFqihIzNKnxrjfLO8cahDTUqum6kvrzaOSa8MQGLVda4UF2fgnUPtHgFEFUwdLXH6VdOdcc9UvAL93VvUV9fr2eeecZ9vn37dq1bt8593pPZCYudiJ09MsV9fH/vXq196hnN/3+L9ItVv3JPdgAAAND5LIyq2rlL/3n/Aypa9WsdP3bMmxKY9vSz6/TDhx91Q9PL/vlTGnTaIP3Pk2u1anWxjvrm7Qr/93//pyuuuEJbtmzR17/+dTd0tXPjr33ta/rjH//ozSXt2bNH3/jGN/TQQw+58+fl5bnz/eu//qsqKwPhYFd6sWKL9u/br3/+ZIYyJ/+TDn5Yr9XF/6PHfvaLUB3a46pf/0aP/7xQA5OSNMWZ14JlCzSfW7fe3Rddqb6hXg2HD7uB5MiUFPe8PTj079/Pm0vaufNN3X3PfW7o+o//eIkuGDNGW1/ZpgceekTvv1/nzdU14nEsd7f90CG7i5SbkKui3d5rRHfXn9z9GRzK7lqkzFO43gheATTjD10/+5ksffyijyl/xufcaYWrf9trwtcdO3a4J5Kf//zn9U//9E/auHGj6uq69iQm3kacdabuuvMOPXDfPXrw/nv02I+W69+/daNOc05+LIBdt35DzzipAQAA6MGs9eXDj6zU7d/5vv72+hvulUh+1TV79LunntaZw4fr7u8t1L9+Y5a+v+h2nXvOKP1h4/N6c9dbgRm7SJ8+ffTII4+ovLxcy5Ytc68Ks9e7du1yW8AePnzYPYf85S9/6b62eVauXKlHH33Ubf1qwe2qVat0zBfIdYUvf2mG7r/3bt0w86v69txvOnX4HxoyZLC2O3X+wcEP3Hn+Zg0sNvxR4z72Ud313UWa+6/f0B3/b4F7fvz0s6V6/7333fm6yqFDh936vCjto/rPxd91z9uDQ5pTRmONJawl7959+zXvpjn693n/qu8svM29im3Xrjf1fNkmd76uEK9jubvtB3SdjO+UabGKtWZj53Xr2Z0RvAJoZtdbb7vhqnUtcN45Z7vjrKsBC1/t0ab3Bps2bXJ/mZ8zZ46ysrLc19bytTexFrCTP3GpvnnDTPXv10/PPLeekxoAAIBOZj9z9+3bR1/I+ZwW3R4Il/wsGHyv9j390ycucQMrc8YZH1HG5E/oww/rVfnXv7njusoll1yi/Px8DfAuC7euBS699FJNmDDBKc+HbqC6f/9+Pf/888rMzNSVV17pzmODnUdfdtllbmhrXQ90JWs16u8GITk5WYNPG+x2X5CQGBi/5aWtbnj46X/+VGg/nHfuOUqf8HH3Uv5du0/O3zZnfOQjofqO9H7d+/rb9teVev5oXXzROHecndf/86cy3W7JXtm2TQ2HGtzxnS1ex3J33Q/oChnKuksqfr3Ke31q6cHBq/UdEfiiDw2RN60KNQNvmtd/46zyuxPD3r+kpR+N3OU0zZdwXZGz9ibucmzd1geIO88StXn7rGbLLAwt070BV8Q6Anw3//LW1WKZO0uwTt9qDJQztA3Nt7lm1Rd8020Ib1pesyo3sJ0RdRHYpsA+SwyOb6U+mpYfQ70jJtbCNVp/rsHw1ab3dAcOHNAf/vAH9yTRTiinTp2q6upqt+sBf4vQ48ePa/369br22ms1dOhQd/jyl7+sv//9794cgX6u/vM//1OTJk1yj8Xzzz9fd999t/tLdncxLu1juuCCMc1Oal7fscPtG/bLX/+GO3z3rnv12t/+FqoD63vJLv+ZNWeuvvSVWe7jU08/604LsmX+cPn/FzaP9dsEAABwqrJA7aZv3qAvXPs5DUwa6I1tYmGVuSA11X0MOn/0aPfRzq+6krVitPNYv4MHD+qdd95xW8PatBqnTNZI4YILLtBHPvIRb65A2HnhhRe658RdHbz67XfO79c+9b96t7ZW06Z+WkMGD9ahQ4f0lnPua2HlqJFN93GxbRp93nnuc+s+oSvt3bsv7L4M0ezZ867ee+99jTp7pHtZftAZZ5yhYU59W9B5qKFr/taIx7Ecth+cbQo6afth0xLnmG9PnuJlSufmq9j5L//cQAaRW1TtTXe0mRs548JyIxtyVfiW/d0VkW00uyF78/yrtZvCh7KWZpnJ4qiZiTu/b77wZQeWYXVl2+BmNM3K117OMr3vnNAQZZmRmVLuqvJAPUTO20bdn2w9M3h1KvULiWcrf3yZGw4EhjItvjMzagWvuWWu9EBgvsBNswIH7Se3/reqfe9XRqYWBd7SxD4UzodrUnlwvmoVKl8jI9ezdalyn83y5mmj02Cb9xZphW/di3/zldAyM65YLK1eo9KI/i9qVi1zyrdYCzrpxl+xc75ozktU6RW+OpmxSJlhdVKugv/J8dWv9ethX1AR4ehqpy59dVF2l7QoI1e5141U1S2NOu6Od+rH5vN/uNwPVuBGaIF5gv2GEL4iNtbS9bnnnlNGRoZGjBihiy66yA1hLYy1ADbod7/7nT73uc/p7bff1q233uoOH3zwgRvcmr/+9a9uKHv77bdrsHNyd9ddd+m6665zp3f1pVatsRO2kSkj3OfBk5rNW17SXffcr7r36zQt6zJd9ukp2uOcXN9z34OqdLbLTggf+OFyPfNcqXMyPUZXfeYKffSjY52Tp6aTos1bXtbCO+/Wpv97QcOHn6HPXDHNvURqfxsnkwAAAKcqa/VXV7fXfW5BlF8f7zLu995/3w2rThY733388cfd82Lr79XKaV1yWVddgwYNCrsZlgUdFqC99NJLqq2t9cZ2DaujHyz7ofvj/5yb/k1//kuFbv72Te45qZXr0OHDTpneU79+fdW3X3/vXQEWvJm3/+4Lz7rQc6Ub3HJ/9YYb3f5R/WH7O+++6z7279/frdsgC72s2PsPHtTeffu8sSeP/1ge0MqxbH9XBPdDv35N/diak70fYpOivF83qvGtQuU4/1lYahnEmjwvRG4lN6puatMjWWYVyo0sRynWV+Z/QbkJS5XqLdNdhzNfU/hZo6IvRuRfzjyTvKktW6O5CaXKCr7H1nfdnc0yEwtTR+ZNUplv2XK2KzLY3fxArpsBuflLu28WX67SO6WcCwPhfM2qpVLZsbDtCd9mK1eizs6b2FQup/y5T2Qqf7U3Q1Csmd1J1COD1/LH81X8/ecjdnaGFtrOWp2vgrBfLYqla1eE34VuU4Gzsxbr+V/lOx+fIO/93qsA5wB/8DvSXWVaONkbZR+4B6KsZ/UkLYj14LN5f50Xvu43f9G0zMmz3Q9g/uP+j0ONSv/H2Za7sgKh7uSF7kHVVK6ulVP49/A6uSUyLHa26Vf+bXTGzLT63ayqsEDZ+dJ6oGm+wDzFKna+VJqWn6HZRc6eubM09AXhHgMzCrXi+hQFf5cN9BuySEtb+eUHMPbZscuk7ETSWrrayYyFrxbCWv9U27Zt8+aUXn75ZTdEXbp0qb7zne+4g/Vtdd5557knej/+8Y/1pz/9ye3bqrS01J1+3333ucPAgc1/ET5Z7MTT3x+Tdcj/q9XFSvvoWC3+/p2a+dX8QN9YN33Tmvlqwx+eV+1772nPu+/o4ovSdMu/zdXXvny9brvl33TdF651l2EnUMVPPOneSfcbs76mHyz5vrucW2/5tr6S90V3HgAAAISzHOZ44/HAi27IbkBr574rVqzQTTfdpM985jPueGtUEGx80F3Y+e3Ej493g9YLx4zRe87564pHf6wNG58PhDDHG8NuBNUdHDp8SJekT3QbNVw07mPq62zDphf+7N5I6823An8s2/l1TxDrsWz7olvth8kLnT954pWn1KjogUUt5kaPbfInr4tVFsqNvBzlN8VS4fKmzOqcPC2wy/KfKPWCwypVrXbeeYUvb3LmWdhWgzznPblv+RsFOuv71Z/CM5PdRVp6p7Psct98zrJXFOWoOK8gLKAtHr+gg/VlDR8ztcjLb0zK9WucZfla2Ae3OdgVgVOuZd+9Vr94M6L8v7bMx68dmd1J1AOD10BSfvflvoMu6Jws5c6QFj0b3uZxUmr4AVn+rH0ospTh28+uc1LDfzXYXari1deqcGbEurz5Nlf5Ar4ZqQpvWN+KYHjqF7bMFGVdGx40tliWkyJHuVMiPuRO+S0wDQ9VHf5m9F6z/LB5ZuQqyx+Ke/UQ/CUkusAxsPiW8GBXzh5Idfb/qdpvCGJnJ2TPPvus28LVWroaC18thLWTSQtQg61Vzz470MftPffco6eeeso9EbXLbSxUtcutrC8ra/H6la98JeyX/+7GtifY9YG1Uvh7dY17uc9LL7+imXNucn9tt+Gue+/T4SNHdODgQQ3oP8DtI2vbttf030W/Dv0KP/i009zH3W+/7ZwcvqUJEz6uKZ/MdD/nAAAAOHGJCYmhBiZdyboKWLBggb73ve+557f2eJp37teWIUOGhLXO7ArWetJCV/vxf/H3F+m+e+/WsOTT9d+Fv1RV1S5vrtZ19Tn8J/7xErehgjVq+M7tt2n5D+/XpIkT3C6+ni8LzzJaYoFzYmLX1nVHucdyDAdzd/5bqlW7S7VmdU5suVFkFuTmKAnNMqtwgZzDrgz2d93YpsisxRWemdRsXOM2aJsdEaimpLolD8tuWs9oItz5yaYcKGFkoLVuWONDY4FscJ4EZd7pjNpa5YbNbrmc2jv/nMgDJ1D+kBgyO3/sfbL0vOB1d5Wz+9sjR6lhB1uNqrZ6T9virMvff0fTEKVLgvGpEQfRiUmZkuuUfJFKvYTePfC+EO2D00253UE4X7DO8e9vsh7eoriDvGNgUUbkfnE+0JHNztEhL7/6mh4p+IV7gy0/e732mfXu9J7MLoOyVqobNmzQqFGjQseQ3STAWHcDu3cH/i+Tl5enH/7wh3rttdeUnZ2ttLQ09+6t1tq1oaHBvQzrrLPOanaZWHdjrVN3VO0M9atkQaz1Xzvh4xe7J36Rw7XXfFYjRpypG+fM0rnnnqN1pRt086136I4773LvpGrsbqsW0lrfv/37h18yBAAAgOjs8nHrp9Mcc87H/IKvhw1Ldm8c1ZWsa61Zs2bpkUce0R133OE+nnnmmd7UQP+i48ePd88j7e+7IHtu48aMGeOUe5g39uQ4e2SKLrkk3b2p01+3b9eApP46Y/gZVsjA4GMtHs2Is5q28WSwRhEWHhtrGGF/Z9jVeMbO1/11bZd5W7EHO+8ZOmSwN/bk8R/LVlY//7E82Clrd98PHdae3KhDUpT3q+Ne142BZbfWv2t7VL1eHOj+MazczpDRvOSth8MR7vqTe9yGhoirwwN9xY7UmmurQ/NYt5NBbrm+cH7bjRs7ve7jo+cFr15y3XEpSh3vPW2L++tDU/8dkUOgv9j4Ch3MXlPrQOvdGpU+Uaxrr50a13C389So6BavO4i2+rvtCO8YWBzqwyNiaHd/I4g0+txR7mPh6t+Gwld7/P3Tpdr11ts9+uZadlJowaq1bJ08ebIbtvqHj370oyorK9OLL77ozm8tW//t3/4t1CesTbdLrn7zm9+40421oO1ON9KKZJ+L8v97Qbvf/rvSPvYPOvecwP41/fsP0PiLLnIvd/IP/zD2QrfFgj3ec9ed+q9l/6krL8/Srjff0iMrC9yuCoIOHvxAR44c8V4BAACgNRYMBM/Hdu4Kb5UZfD32wgvcx65i/bfefPPN7pVfP/nJT/T973/fvX+B3/Dhw91GC6+//rr27g3062nsuY0bO3asUlJO/l+s/gYRdgVXyogROuCcr9q9DILsb4Jdb76p/v366fzRgZs7nUzBkNLKa61Zz/jIMA0ZMti9t0J9Q4M7zdjfHXVOfZ977rkaNOjkd2sW67Hs3w81e7rvfuiQtnKjYD+wJyjjO94yyxer2FlmtJtRxSrYejX1whxpRmHYvXmahjXhXXbGy6YlyrwzR//95vETz9RiyOy6wzWZPbCrgUDT4u88F+Ugc5t4R/R9EYV7cNll/OE/tDgHQGl4Ku7sxHQ9oTUb4/NrQoi/C4Egd93hrXPdm2zZvF6ftPO/FJ8P7MkSaC4eD15T+4guJRA/1oIxf8bn3OcWvr65+++hFrA3zf6yO76nshtLbdy4UZmZmW5frU8//XTY8PDDD7snEMFw1lq+2pe2BbB2Y4H/+I//cJdjNxY455xzlJ6e7r7PbsIV+Stvd2Ad3v+u5H9VuOrX+siwZH0xN8ftKsFas55xxkf00tZX9IqvT1vb1r/+bbt7Ylq3d58+/PBDtz5GnHWWrr/uCxqX9lG975yYW1cE55w9UiOdk+vNL73sLsfeCwAAgLZ9dOxYNzgr3/SCe/d6Y4/22loGdnXwun79eq1evVq33Xabvva1r0W97Ntas1566aXuVWMW0AbDDXtu4z71qU9p6NCh3tyd793aWr2xoyrsHNS60/rTn8rdurU6tvPYiy8a54aZpX/4o+rrAyGm9aVa4ZzDnnfuuTpnVFOjhK7wXu17YWW28+3n1q13n49JPd/tPuGsM890ynaO3nhjh7ZVBq42PHrsmP74fJnb4GPixI83u0nVyRLLsdwd90PcuA3DiuOfG7Vk8kJV2z1wvMvyWxTlhu3BzCzY4M/tUiDafF0u0J1kkJuF/abYKVfE35de+UM6K7OLsx4YvKYEOsr97qciEv5yLbE+RMM61Y0u5foFbofCn/xioe9Add7frDl1hmYXWqfCI7UkrFPeGhXdfSJ3SFukzIg79H8h0zoEXhD+i8LkrEDHxw9sbt4nrdd3ani5uguvVXFYH7VFmpsXn9jVPQasE2rvrnf+j2L53eF36EPHBcNXe7Tw9bxzzu7xoav5y1/+4p4Y/tM//ZNGjmz+Y4b1+Wp9v1rwauHqkiVLlJ+frx/84Ae6++679f/+3/9z+6+y91t/VzNnznT7gbU+sKzFrM1jJ6w2WH+wXW3PO+/qzrvu0S233aF/m/8fmvXNeSr65WqdPixZ3573rzr//MAvyRakXp39Lzp65Ige+OFy926wP/vFKn3v7v/UAw+tUEPDIb355lvOMv6f/r8fP+ZOe/DhFc6J3191rnNSNPyMM/SRMz6iqz5zuY4fPaoH/muFbr/z+3r854W6/4GH9N9Fv3LXAwAAgOZGjz5XUz/9z+6l5d9dfK97vmWPdmf3q6/6jEamBC417woW5NmNZ01xcbGmT5/u3lArOHzxi190z4vtaig757XzYLsi7MYbb3QHe/65z31OX/rSl9y/UbuKdSdw3wP/FToHvW/Zf+k/vvN9Ve95x63b85w6NhPGX+T2oWr3Nvju3fdoxf/3Y93zg6U6dPiIcq692m1Z2pWe+N1azf23+e4+f/iRlZr377dq85aX3KvOrpg21Z1n4MAkXTM9W0pM1EPOPA+t+JHuXnKfnivdoPQJH9c//eMl7nzdQazHcrfaD5uWOFXbgTwlasgauBl4/HOjoHItCcu+AldEt93dZbHyb/Gv31nOeV8O79M1eGP3cyNylN1FWtJZNy13W6kWq9hXh+V3R3QN4JTrFzOe0FfO85fLu7LaexXQWZldfPXA4NVxTp5+c/xPWnxn4GYugSFTm4uqY7zMPEMLG8u0+Ddf8fVlUaosG+fNEZRy/W/cptzh/YmOVNUVkR0Dt8NdZaq+cGnT8s7NV+Mv3o5Sdu8DvLrYbcXbHZpIxyrjO9X6xXV3KjO4jbdIK+LVx6uZvNDtM1bOBywxuA5nWHrhbKfWEC8Wun72M1mafuXUUAvYnsz6S7Jf5I2Fq9YnUSTrT8l+rbd+YF944QW3O4K///3vbktX6+v1/PPPd1u3XnHFFe78//zP/6z//d//1Zw5c9xLrO688063SwKbr6tvLmDsl3BrrWq/9tft2+eUY7Tm3DBTD/7nYn3sH/7BmytwWZD1JfXv37pRKc7JkJ0APf3sOn3w4Qf64hdy3Jas1irW3l/2f3/WU08/6/btat0N/JvzntNOG+Quw04OF91xq8ZecIF2v/W2uww76RqZcpa3JgAAAESy80Q757KbQtnd3jf88Xn17dPXPTezczQ7z+oqdrm3tbo0FRUVeuaZZ8KGv/71r6Fupaw7AbtqLDc3120ha+fBFr7++Mc/DvVL2lVGjjhLV07L0ocf1LvnoC9vfUXnjRqlW/5trr58/XVOfQbOxe1qr3k3fkOfu3q6amvf05/K/08jzhqhO2672Q0xu9r5o89V37793H3+p/JNbpcOX8j5nL510xw3cA36+PiL3DLaNm164c/OOfZuXT39qmbznWyxHsvdbT90TFPIatuVW1TtjrW79Mc9N/L7bpSbVbWVfVkXArdU+TKvTC363vMRN7lKUd6vrX/VRU3ZjQ3nVimrE7rWdJ2TpzVOXT3x5bND6yu9IryPV7dcv/p7eKaUMFd6oFqF/ptrOTols4uzTv02b/S3n0eH1KzK1cgnclXd7A5w7Vfx6nalXzTWewWcfO05JvcfDJwMmqNHj7o3tjq7F4Z7f695x+2Xqsfe1TPOhg4e5D0DAADoGv7zzp4geG487PSh3SqQi0Xte3VK7NOnR577vle3T2cMO9171TP0xDJ3xKn+N0Q8c6TupUZF1wVuytUZ91zqLD2zxespo1wFecXKuTarl31YAAAAAAAAgBhF9FHbUxC8dmM1q5ZqkRZrQQ9K8gEAAAAAAICOKdeSLxapJuwa+tjv69TdELx2Q9Ys3PqlGJk3SWWNC+mzFAAAAAAAAKeAVOe/L+vsRH+/re25r1P3QvDaDbkdMzc2OgOhKwAAAAAAAGLjZko9un9Xu7nWcR13c7GmoSf16+pH8Aqgx+pt9+/rbdsDAAAAAMCpjOAVQI8TuNRAamg45I3pHWx7bLts+wAAAID24Ed8AOh+CF4B9EiJCYk6cPCg96p3sO2x7QIAAABiFWyUcOjwYW9Mz3Hk6FEaHQDo1fgLH0CPYydniX36OCeXR1S3d583tmez7bDtse3i5BMAAADtYT/eHzz4gfeqZ9i3/4BTbs57AfRuBK8AehwLJvv27av+/fpp/4GDqtnzjj78sL7HXV5l5bVyW/ltO2x7bLsIXgEAABCrYKME54l7XtkT2Dmwnf/S6ABAb9ep33CNdDLTrWzZ9ro+nnYBvyqiW7A7FL5c+YYmjrvQG9O6/Qc/9J4F2NfL0aNHdfTIER12hiPOcPz4cXd8T/jqsRNM9yQ5MVH9+vULhK4Er80MHTzIewYAANA1Is87uzs797Xz4MOHDqnBGRITE3T60CE6bdAg9bFAths5dOiw273WBx/WK2nAAPV3Bjsf7onnv+/V7dMZw073XvUMPbHMHcHfEOhOCF5PIdurduvMM5KVPHSwNwY4efbuP6h339ursanneGNaF+0EOHiSaQHs8WPHdLzRgldvYg9g55d2WZj90m+Ba0896exMnDQBAICu1tOCV2Pnxd25UQKNDtCV+BsC3QnB6ymkbt8BveMFXbR6xclkrV3th4CzzkjWsNOHeGNb90F9g44dO+69ahI8mQx+3fSkr53gSWbwRJSTznB9+iTqtIFJ3isAAICu0dJ5Z3dn58HduVGCnerS6ACdjb8h0N106rec88VP8NrNvL2nVgc/qNeI4cM0dMhpBLDoUha47j/wgfbU1mnwaQM1asRwb0rb7I6n9Q09706t6LiBSf3VzzkpBwAA6Eo9+bzT/gQPDsHX3QWNDtAV+BsC3Q3B6ynIWr7Wvr/P/SWXXYSuZCdX9uvj8I+cHnNLVz+7678N6P0G9O/nDgAAACcD551Az8PfEOiOCF4B9CjWAuHwkaM98vIvtM0uDerfry+/UgMAgJOO806gZ+BvCHRnBK8AAAAAAAAAEGeJ3iMAAAAAAAAAIE4IXgEAAAAAAAAgzuhqAAAAAAAAAAAcL7zwgt544w0dOHBAQ4YM0QUXXKBPfOIT3tT2IXgFAAAAAAAAcMr73e9+p+rqau9Vk5EjR+rqq6/2XsWOrgYAAAAAAAAAnNKspWu00NXYeJveXgSvAAAAAAAAAE5p1r1Aa9qaHg3BKwAAAAAAAIBTmvXp2pq2pkdD8AoAAAAAAAAAcUbwCgAAAAAAAABxRvAKAAAAAAAAAHFG8AoAAAAAAAAAcZbgPXaKRof39IQ8WVmvVS99qC3VR3T4WFwWCQAAAAAAAKAX6t8nQRNH9tP1EwbpmrSB3tjWrVy50nvWsjlz5njPYtPtg9d7NxzQprcOaV7GYE05f4CS+nZqkQEAAAAAAAD0YA1HG7Vx5yEtLz+oyecO0O2XDfGmtKwzgtdu3dWAtXS10PVX15+hKy5MInQFAAAAAAAA0CrLEC1LtEzRssXfbvvQGoi6Q1fq1sGrdS9gLV0JXAEAAAAAAAC0h2WKli3+8uV6HTlyRMeOHdPx48e9qZ2vWwev1qerdS8AAAAAAAAAAO1l2aJljPX19Tp06JCOHj3aZeFrtw5e7UZatHYFAAAAAAAA0BGWLVrGaKFrQ0ODDh8+3GXha7cOXgEAAAAAAADgRFk3Axa4WgBr3Q5Y8NrZfb4SvAIAAAAAAADo1SxktbA1GMDS4hUAAAAAAAAA4iAYvnZFa1dD8AoAAAAAAADglGGhK8ErAAAAAAAAAPRABK8AAAAAAAAAEGcErwAAAAAAAAAQZwSvAAAAAAAAABBnBK8AAAAAAAAAEGcEr91YzapcJSTkqmi3NwIh5XcnOHWzROXe67bVqOg65z13x/qOci1JSFDuqhrvNQAAAAAAABA7glcAAAAAAAAAiDOCV+AUt3fTCs27ZpkqvNcAAAAAAAA4cQSvwCmuoapUK37XoAbvNQAAAAAAAE4cwSsAAAAAAAAAxBnBa3dwtEalD8/T9PEjlZCQoJHj87XkqSrVe5Ob8ebPzRjjzp+QMEaZ183Tiuf3ejNE2Fup4rtv0DRv+Qkjx2n6TcWq8iY7M6jcv7xm02MQuY6xmbrh/jJnyX6+G1w58xfdNl3jRnrln7VCFdGK7y03c6zNl6Ax2fNU8JcWtjNWB/3LHKlx17RSd83sVeUTS3RD1jiNdOveeX/WDVryRGX0FqPRyv/nug7cHCyg4bViLZmVqTHuuq3elqj4tYg1b1riTMtV4VuNqlm/TDd4+3Xk+Ola8IRvr+4u0hcSEzUyr9h5sUiZ7jKdwdk/DesXuds373fR6qVKBdnOfLOKI/ZvdHaTuMRE21bnOLs/WBdjNP025xg7anMExn8yuD/ylqm81n1rmL2v2LZP844Zpy4zbtCyZvvNd1O0mlItC9aVHdOh9flEfpbc+Yq07YA33a+FY7GlfdmefVW00+ogP7Bt1xU5nxQAAAAAANDT9brgtW7fAW2v2q0t215XxavbOzzY+205trzOVaWiWem6/J5KjZyzQutK16nwrkxV3T9N+Q9FiT4PlmvJlema5sw/LG+pO/+6ksWarhLNm5Km/KId3oyenUXKTxun3J/XKeuOgsD8jy1S5t4qLzTbq5Kb0pT5ULUyb/uJO33tA/lK3ljZjvCnRkVzxmnueinnrkJ3GWtmDVPJbZ9U9r0VzQPJd0u1JGeeNqfN1fIiZ32PZUuPz9OkvILwsNe2Nfsit+zT71rrLnf5V0aq5PpszS/x5mmvI05935SrQmVp0Uqru2XK0Rqn7rK1ZFNbF9tXqXjWJI3LKVDd1EUqsLosXaG5F1Zpec44Zd1dHh6WW/mvCtR9WPnzpneo/A2bligrLVdrla+l7rqXKvdggXLTsrRsizeTT+XjX1bWo1L2PbZfnW1M3axlOZlatN7bzuFZWrjuOa35TpbzYraWu8t0hhlpSpqaqwUTpRVPRYbnji3FzvgULfxKtpK9UW2rVundTrmVrcVOva+5L12V9+cq994SZ7yzP9/K0B22P4rnKXX9AmVeHdHn7O4izR4/V6V9c7TYOWZse2afuVYLbL/9Jcp+qyxQ/hUrpKsX6yfONq35dqo2O+vLvLNU9Y3ePI7ye0dqmnPsT/r2cnfb196Tpbr78zVt7prw47+lfdnCsWj7atq42PdV2X2ztfbiZdpW3ajGX+cpxRsPAAAAAEBvN3XqVJ177rnauXOnNwYxaTxBY+7/u/csNrtr3m187Y03G+v2HWg8dvy4N7Zj7P22HFueLbezVBflNEoZjXeXfeiN8RzZ3Lh0spxpOY2Fb3njGusby+5Kb1RKXmNhlTcqxKZlNCZoduOaUHG9ZUxe3Fh2wBsVqXpNY56zq3J+vsMb4TniPcakunHtY+sa67xXAfWNa7+d4JR/YWOZN8bmK5xh25TRuLi83hsXsGNltjM+vXFphTfC29aEaNvqlHluii3H2S5vVNuC605vXLgxfN3O2ht/cpXV0/LGbd6YRmfJi61eiqq9184SinKjlt3sKMprTLHybw4ed63sq6rCxrz2lr/eKc9ENaZ/p8xZst+OwHbduLap/ssXO8tWY8pXfuFM9TmwrnG+rdc/ryNwDDYvy47HbJ/4j6eAzfc52zVxqXN0xcaWn5CgxuyV/tJ49eOWszCsnHXFs53x/mPB8dbaxp88E36ENR5Y2zjXeb+cOmkS2G/N672+cd2tKc5y5zb+/v2m74bNv/5J47aIz8a2R7Kc8jqfu9D727kvQ/vqTzHvq/T7Yq1NAAAAAAB6j6qqqsbk5GT3b2N7tNedwTLGt99+2x2qq6sb33vvvcb6+vrG47788Ec/+lGbQ3v1mhav1jL14Af1Gpt6jpKHDlZiQoI3pWPs/bYcW54tt3NavlapdHWxNHOB5k4e6I3z9E1Xzk053gtPQ5nW3Fmh9FsWKO98b1xIkjJmzlNOwmNas95rq7epREs3pWvpowuVMTgwqpnkZKWmSGXPlodfht3Xe4xJirJnZkW0fkzSpMlW/kpV7Q6MCbl2nvImJ3kvAlIvzVK6KlR30BvhPF/rbOvEm+c339aUHOV/w3veXlfM1exPha/bWbtyb5zr1FepKlr8caVKa38a3FeR73eWcP08zUup0NL/DbbTrFDpIy3sq/PzNK+d5W/YuEaLtmRp7lcznJr1S1XG1U49P1rh1HS42d/Ic6b6DJ6krGudx5q9qguMaVXqFfnKUYFKNvrbvJar5IEKZX87x9lf7eHssyv8pUlS+mRraSvlfyUnrJzJ6VnO3BWqesu33nOyNfuKiPa1zvZkznAeX6tq3jr7G84xFlbvzvE4Jdd5rNZe32LTZ8xWWsRnI81Zv1SsqtBC27cvg/vqpq/Evq+yM9pXmwAAAAAA9AYzZ850/k73rsl2Hq31a1VVuzq/7NZ6TfBa+/4+jRg+7IQD10i2PFuuLT/+alT1hJSVka7kKMUeGBl+1jrzOw9ZE9MCryOdk+qGYaWvV7sva6o2O2vIUvrH3JfRJWVp9sr5GvdsvsacO075dxepfHfEpdu7i5Tr1IPbB2ZoyFWRP1A9uleV64u04v5FmnfdNE3LGqf0vDXexAjpqeGBoBk+0h1X+ZaXdu2ucsOpFre1n/cYEujbM7yMCVqyyZscNHlc83U7ks8c6fzrD9si1ajmWW9feWPCOds0RdpT6YWATvk3O0/iVf69tbbnS3WD17+ofxjzVeujdXNEwJ2jtGbhfLKG2WY+ESWojOacbOXPlApWlYTmb1i/VstrwkPU8rsTm5XJ7cc3zCSlRpQnacgw93HYkIgg2zvuqw9GHIe1lSpdtULL7pyn3CudY2x8uvJXe9Mi5KQ138vR93GDarYUq+D+ZVowy1nmlZkak7FIjfZbW1A792VwX33jH5rXS0v7atw53lMAAAAAAE4RFrJu2LDBfb5q1Sqdf/75bncDWVlZvSZ87TXB6wf1DRo65DTvVXzZcm35nSW5eQPKOErSwDaWn3r1Uq2rqta6e7KlX89X5rmpmnZveVPfrOfkqKCuTnVhQ4FygmHRzmLdkDZM4+YsV8W7w5R61Vwt/M5yFdwX0WK3A5LaKnxIhuY3K2Od5v+jNzmoWeDpl66kOO+L+Jbf1w9rs2GRsoZ7s8VNsrK/slApqwu19nV73aCyp5aoZma+sn1BYcbN7zcrd93NGd7U+KhafYPGnDlONzxUoeohqcq+caEWPlSgpdaCt6Os39asVI28apGKq+o0Mn225t++WIWPzVVClB9CYt+XZrYeXhdtP9kQZV+1q4U5AAAAAAA9mz90Xb9+vb70pS+5j/7wtTf0+dprgtfGxsa4t3YNsuXa8uMvSUkTpeKtVWqIsvj6gxG3NRqe4rbWLN0SeaGyZ3eV7EL33IsDrf2SBlsLvxKVRbmZTzNJKcqauVSFWyu17ZFPqvSOHC0LtRZNUnJycrMhGEOV//dcFQxeqLKKMv3kvvmaPzNHWVOzlJZyAvtjcLKs9OWV0X7haFB9lJ4fkqKVMTLQcuo6WmvPqq2lzr+ZUVqJBqUo5Qqn7ssrmt9sylWlqo3SxPTUwI2R+jr71nmIV/kD+7JKSedmuXXbfEhXSpxDYxO4yVaJijc621FboqL7o9xUy9lXkeVObqlriw4pV9G3C5T8nTJtK/+Jlt46X7OvtW1Oc4+Rjqr53VItWp+pwvJtWvvIYs3/Vp6ynbrMGBvRprmd+7JpX02N2EfBoXP2FQAAAAAAPYGFqv7Q9bLLLnOfW+hqr1NTU93Q1cLZnh6+9prgtWdKV2ZOinT/ChXvjEhe95ZoxZ0WBvokZSr79hRVPLBURc2OuwaVP75cxSNuUnZGIDhKnpqj+dbv6ANFbhcFsUlW2lU5ylGNqt+NHjGGc+bbXiOljlNKWNhWpdJf2mXVHZQc6L9z/aOPqTzU76vntQItu9973l6rC7XmNe950MFSt65TbsxWZvR+BBypyvpStvT4Uq3Y1Lz1c9Wq5Vpek6H8y7y+OlPSlXWVVPpIQVzKn5yRpdlyyvlzX0vkuNqm6miJtHOMZuWlq2RVqUqfLVTBxAXKndrFqWFNtbbZITY2JRT2u14vVeET3vMOqN5Z5vybFtEFQoNKnyyw23M1aee+DO6rR/67s/YVAAAAAAA9TzBMtXDV+EPXIAtfS0tLQ+HrlClTenT4SvB6kmXMXKG8lGJ9OfOzWrSqRKXrS1WyaolypxRq2DciL9VPUtYdxVp8fpHyM6bphoeL3flLnyrSkuvGKfNO6a7i+5UdvIx5cJYWP7FYqf+dr8ysG7TiCWdem/+JAi3IW+a2jrX+W/PH52uJt+7S9cVadtsiFafMV87UFlNInxSlT82WnpiveXcUqcQtj7N8Z30Vo0/kOvAU5dy2WBkvLVHmFU1lL374Bk27aa8yv+XN1l4zklV29TQteNzb3ieWKTd9mpYpz9nuiJacEVJnPqzCr1RpUcY45d7tbatTXyvmTFNmXqmyigp1S3qwlW+q8u9yyr8lTuUfnqOFRXmqvjtT465bosKnAsuzfb/itnzdsDpqahqTlNRJTm0XaelDRc4yS7RidfAGYQHp185V9rMFWvRQcQduqhUHXvBZfNu8ps/I4ws0bU6FUk/gEEubPNvZ7iWaP2uFir19uey6SSo+OD0sd233vvT2Vc3iT7r7qiiO+woAAAAAgJ7EQtPvf//77n1PLEyN1tI1UjB8TUlJ0e7du5WWltZjw1eC15PtnBwVbi3T8mul4luma1rWDVr8rJS/ukCzo93LZ3CGFj67Q2tvSVXVyrnO/NM0bdZilQ2fr7VVpVqUMdCbMSBp8kKVbF2jeedXacVNdtOrabrhvhI1ZGS63RZoeJqypjRo7Z22bmf6nKUqO3+hNm9dqqwYLxdPnVmosvumq251vqbb8h+uUNp9azR/yol1/ZD0jwu1btsaLU7bpmU5Ttny5qmgMl2Lf71QWWd6M7XX+HkqfHa+hj27QPm2vTcVqOGK5SrbWtj8jvXNpCrv55Xa/FiOVLLI3dZpWQtUeDRLy/5cqcLrU+XfYit/aWXz8t/9q46VP/X6QlWULld2Q6EWZNu6nbq+q0AVQ6Zr7lS3g4OOmTxfJQ/lae/j+c4y56lkb0SL1gtzNXtmuco3ZStnSvObVnW+VM3+eZmWXlWnorzAZ2TFn9O0tHi+Mk+gb9SkqYtUWuQcC39erFynLvO/vUYNM9dq+Ved/Rhx6La0L1s6Fm1fbV4X2Ffz47mvAAAAAADoASwotaDVhu9973vuOAtU7bndOKul0DXI3l9TE2i41NDQoJ/97Gfu857mxJKxNjSeYMeoFyyt1hsLYuvFseLV7Uq/aKz3Kv46e/k4tZTfmaDMHy/W5uqFXd+CtN32qnjWMOVqjeoey2m1VfCpqGftSwAAAAAAOlcwdA2ysPXTn/50m2FrkLWKtX5gLVacPHmyvvnNb+rrX/+6N7VjLGPcmBeIKRMTE9W/f38NGjRIAwYMcFvjmpUrV7qPrZkzZ473LDa0eAW6XIXKfuc8XJseaHXc3b2+RgWPR7mpFhw9bF8CAAAAANCJLHQdM2aM+9yCVgtPv/vd73YodLX3lJeXn3DoejIRvAJdrGrVMi3dkqK5V2X2iCCz4okVKjkZN9XqAapWLe1R+xIAAAAAgM4U7MPVWODaHvZeu/lWMHQN3oSrJyN4BTpJzRPzdMNty1QQvKnZU0Va5t6Iq1Cp3yrQoqu7cVS3u0QFq0pVfH+ucm+TFj4895S+jL7lfVnU/fclAAAAAABdxALTYOA6c+bMsCC2NcHQ1dgy7OZavQHBK9BJklMzlVxbooLbAjdXmpa9SGv2pmlRyQ6VPJStbn2Lpb4NKs2bptyVDcp5co0Wf+rUbu3ao/clAAAAAABdxG6g9bWvfc3t19W6HYg1fLX5TDB0Dfa72tNxc60YcXMtAAAAAAAAoG0Wuv7sZz9zA1gLYx9//HE3VI3G39r1BKPEFnFzLQAAAAAAAAA9XmTL1yuuuEI//OEPvanhLKA1PfkmWi0heAUAAAAAAAAQVxa+nnbaae7zo0eP6gc/+EHUbgeC4yyo7W0IXgEAAAAAAADE1U9/+lPdeuut7vPPf/7zqqmpcftyXb9+vTvO2DzWIta01BVBT0bwCgAAAAAAACBuLFAN3jDL+nd98MEHQ90OzJo1K9TKNdjNgM3TGxG8AgAAAAAAAIiLyNDV+m6N7PPVpqemproBrE3rja1dTa8JXu0OZMc76c5nttzgHc4AAAAAAAAANGehq7VoNcHQNSgyfLXBxtl89tgb9Zrg9bSBSdp/4APvVXzZcm35AAAAAAAAAJoLhq6NjY3NQtcgf/gaDF17a2tX02uC1+EfOV17auvi3urVlmfLteX3RHvWF+rego3a470+uSpV9OCjKtrqveyIrU928vYEynhvcaX3umNeKn5Uj66v9V51AquHBwv1jFMRbe/jWj1T0HnlsW291+rMhvbumzjuT7cc3eZYBwAAAADg1GL9tVro+thjj0UNXYMscP3ud7+rqqoq9ebQ1fSa4HXY6UM0+LSB2l61W3v3HzzhANbeb8ux5dlybfk4FaQp7+YbdXtOmve6O6pU0XMHdElevq4c4Y06WbY+qZK6izXL6swZsoe9ouLODJxbMSFnhi7RK1p3IsE+AAAAAADoEGu9amFqsH9X9LKba40aMVxnnZGsd9/bq5cr31DFq9s7PNj7bTm2PFsu0G1s3a5doyed/NDVsaf2gJLHpClYlJRhQ7W37l3vVVcbris/MUq7XqDVKwAAAAAAXc1asvbWvlo7qlPvGNVo7YtPwAVLq/XGgpHeq97ILgFfrTfGXKYLdmzQi/tt3NBAS8Z3ntS9z73tzqWhF2vW7CluuGWXU5fosvAWmXs26tGiOmXefI0meKOC7DL0x3acF3q/+3rLfo2+/EbljbfL6jdIl8/Q8BdWe+uXNy3w3OUu/xXt9V5Glqds2AzdONULp715T/cto2med731+ZYfsezkib5lGbsUPVgPGqXsy6WSF4aF1u+KYR633nZ5L2yeKHUVENwnXjncZUvZecNUFipn8/eHLX/0ZcrWhvB6cbRUBne8tRoNljdKHfrZ/K+ObZoW2sefqNNj/noIlTFimzzh5WlrvzvH5eXn6Y3nIo4zq59QXQfWU/sJbznu+6PM39b+jDgm/MdbUPA4Dmoqux3TmzW8pdbAwf1p6w2Ww9lft+ec6Za9pc9AeF15n1F3+U11m1m3OjRP5HHc8vs9J3QMR36PRFk+AAAAAACnMMsYN+YFYsrExET1799fgwYN0oABA0I31F+5cqX72Jo5c+Z4z2LTq1q89lR7t2yWPutdqj16v14sejQQZrmXb1+m0fubLt+eMHaUtGu7XnJfBezZ9qb2jh7bFG61ZOuTemyLdEleeKi067mnQ+ufNXGo8/rJpuVbIFT0pi5w3mPTg5eTP+b1pWnl2bujsqmF4Tt1bmC2rzZ4uXmt9tRJpw/3halBbsDmX/ZlOn3L6qY+YN0wyi6pD04fq1dD4ZQnhnncwMrCaq/8syYeUEm7+gJ9WyW/l3Lc98/QJUOd174+YN3l+y63v33s9rBA07RWhgk5gX0cvET+pT+9Ik2cER6ChlTq1V1DNfws72WQ8/7Hto8NX/6Dvv0YxoK68PLcnnex9j3n63/XF/4G5vmM9IIvDA0af41mjXlTj7l9vPpC16Chw5TiPY15f7ZyvJlA6DpE2d50K3vT0XWmhg/dr9p3vJdROfsvWFfOe5N3bQiV3cY1+wxYnYftO+nF34cfP3ud49bCcHeey53PxJan3f53A9p4f5yO4abvEUJXAAAAAAC6A4LXbiB54mdCQcmET16sZGsR99lgS7c0TZvou3x7/FiN1tt6NdSPZa1e2rFfo8e20SepBWnPva3RlzcPZfzrHzF1krP8A9rjJjq1euaFt8Omm0BQ+KZesnnOGqbk4HPHS9uddYz2hbF7KvXG/lG6KEqIGAgY/csObOuu7RZqRlt3mvIuH+U9NzHM42x32a5Ryva1EHa30Vfmtvn3R+BydtXVettny/dPd4y/RtmjveemzTIEyuxeIu/Nm+lv9dvMEI0IrSwoyvLDjhOfrWV60dkn/vk1YopyQnUf2Dd7R1/mC1Gd7f6sHZvhLBAMhKDOMeG8DgssLYQfNtyrl47uz4jjTZVa5/544GtF65T9Sl85RwzzB//R+LbdeW+mFdy3reGfAeOU01+3485zjvk61XivXf66Gp+pS8LC39beH8djuJt0PwEAAAAAAAIIXrulaMFaUJouGm2NXr0Wlxai6WJNixJsNnlTxa1cut68NWowNHpXtfujTfe1KhyRpgtCIZO1xhyli3LGanQwWLLwLWpr3EBLWGspGLojvjO4l4+7oWZL6/aLYR63Be7bKvGt494HN2hXaBtjEWV/+Lev1f3liKUMFtbpFT3m7idfqBhpT632eU/D+FuWumwfeU8jWL+szed3duXwIV7dB/ZN8rAzvSnRWcvTQEtfK2+ae1Myf0tMN4QP/SBwIvvTd7xZ/7Zt1XcHtLWt7g8XwX3n7wbBE+39YeFvi++P3zHc5jYAAAAAAIAuRfDaA7mtYr0WlxZu+W9uFNV+ZxjqC2vbJcpl7WGGa8IYr6Wke9MnC1ktKAu0tnTL10ogZH1hBi+fDg2hfi3bWreJZZ5RTZel+4ZoIXSHRAkxm2urDIGWmm0aMVyne09PSKglastaD0kDLa0jj70RU/MDXQM8GOh+IfwHgTjtz5jqO34sYA7r/sC6J/CmxaLt93eDYxgAAAAAAMQdwWtPZK1MZZcZB/r7vGBcawGZY+h5ypl9mUbv2qBHvb5iYxNoafjGtsj3WCu9prAo2FLypdoDXgvHQBi7r7ZSe+paKl8gaGz5DvjR1+221gyJYR7rCiHssvE4i+hqISDQYjQkljJsfTLQejTY5YA3OrpYtid8H/m5+yuin2Dj1psbyAb2TbOg3m152Ta3awBFdL9wAvszbFui1rdfoO5bD43bw+vKI0oXHbFp6/3d4BgGAAAAAACdguC1R7JgU3rj95u1a+h5mhBTIJSmvLyLpS2r2xG+BvozDb9RkPXruUG7/P1JWr+z+19RyRbnHcEwdtx5zro26EW1XD635e6uDU03dDJbn/ReB8LbvVvKmgLCPRtV7LuTfUzzuH147o+4GVKtniluK9yMkdfVwot/agop96x/OnR3fFebZahUkfW/+4kpGuF1ORC8mVpz1tVElG4SfDdgM832kZ/bB2n4DcIC9SZd8slA1wCBm7htDrtBlJWxSfRjw71R1IMbpNFD9GKR/wZVse3PNo+3aHXpLOeZ0DHUcuDcMZEhtLPffh/lJmMtauv93eAYBgAAAAAAnYLgtYdyg839+wNhnTeuTSOm6MbLLdharXv9oVtrxl+j2y+3EK2pf0n37ur+GzO5YaDz4A+BvUviW+0GwSvPrud8fVe+MCx0ebpdth64O7837fdSTtjNmGKbZ0LOjED/qcF57A72Y9tRb60aritnO8uvszvjB5ZfrM+E31zL0XIZavVMgQWLwZszBW5iZQF5WCDtY6Fos9aoQy9Wpp4OlcFtPRu2j/yalzlwKbyvVWaz/b5dF0VeIh/l2Lj3ObmXxOflXOPbL4EANpZ9FcvxNiHnxlB3Bu48TtkVDFqtu4uYf4yIjduCd1ewrp6WPtG+rgbaev/JP4YBAAAAAEBnSPAeO0Wjw3vaIRcsrdYbC0Z6rxBmz0Y9WlSnTPfGRvCzPjUfq5sUEQ73JpUqenCzhvuD0q5grVlfGKZZoT54uxsLsVer9hM9v+/T3n8MAwAAAADQdSxj3JgXiCkTExPVv39/DRo0SAMGDFBCQiAeXblypfvYmjlz5njPYkOL1x7Ju1zZvZEVwniXaTfdTb83SlOe2yq0MPwy/04V6GqgzRu5nUQvFa/Wi4q8oVcPdEocwwAAAAAA9H60eO1hXip+VCW7nCejIy/3PzW5LQPD+gkdqku6uiVob2StW8P6dHUOucu5i35n4BgGAAAAAKBznawWrwSvAAAAAAAAAHotuhoAAAAAAAAAgF6C4BUAAAAAAAAA4ozgFQAAAAAAAADijOAVAAAAAAAAAOKsWwev/fskqOHoCd2fCwAAAAAAAMApyrJFyxhPhm4dvE4c2U8bdx7yXgEAAAAAAABA7CxbnJDS13vVtbp18Hr9hEFaXn6QVq8AAAAAAAAA2sUyRcsWPzfWG9HFunXwek3aQE0+d4C+uOo9Pft6AwEsAAAAAAAAgFZZhmhZomWKl6Qk6tNnH/amdK1O7eCg0eE9PSG/3fahfvlyvbZUH9HhY4SvAAAAAAAAAKKzPl2tewFr6RoZuiYmJmrAgAEaNGiQ+vfvr4SEQDy6cuVK97E1c+bM8Z7FpkcEr7aYI0eOqL6+XocOHdKxY8fccQAAAAAAAAAQCwtZ+/Tp4wavAwcOVL9+/To1eO3WXQ34WRrdt29ft3LsebBSAAAAAAAAAKA1liVapmjZomWM9ryz9YgWr+b48eM6evSoDh8+HGr1auMAAAAAAAAAoDXB0NVau1oXA5Hh6ynb1UBQMHy1bgfs0V7T5QAAAAAAAACAlgRbu1rYat0LRGvxesoHr8bC1uBgiyd4BQAAAAAAANASC16D4WtwiETw6iFsBQAAAAAAANBeLd03iuAVAAAAAAAAAOKsM4LXzr99FwAAAAAAAACcYgheAQAAAAAAACDOCF4BAAAAAAAAIM56RB+vT1bWa9VLH2pL9REdPka3sQAAAAAAAACi698nQRNH9tP1EwbpmrSB3tjWnZI317p3wwFteuuQ5mUM1pTzByipb6cWGQAAAAAAAEAP1nC0URt3HtLy8oOafO4A3X7ZEG9Ky065m2tZS1cLXX91/Rm64sIkQlcAAAAAAAAArbIM0bJEyxQtW/zttg+tgag7dKVuHbxa9wLW0pXAFQAAAAAAAEB7WKZo2eIvX67XkSNHdOzYMR0/ftyb2vm6dfBqfbpa9wIAAAAAAAAA0F6WLVrGWF9fr0OHDuno0aNdFr526+DVbqRFa1cAAAAAAAAAHWHZomWMFro2NDTo8OHDXRa+duvgFQAAAAAAAABOlHUzYIGrBbDW7YAFr53d5yvBKwAAAAAAAIBezUJWC1uDASwtXgEAAAAAAAAgDoLha1e0djUErwAAAAAAAABOGRa6ErwCAAAAAAAAQA9E8AoAAAAAAAAAcUbwCgAAAAAAAABxRvAKAAAAAAAAAHFG8AoAAAAAAAAAcUbw2qvVqOi6BCXcXe697gKblighIVdFu73XJ1W5liQkKHdVjTr/PnXhyu926j1hiVMCAAAAAAAAnIoIXgEAAAAAAAAgzghe0UNUqeS2GzTviRrvtc/rJVowa56Ku0Ur2zjobdsTV60cBwAAAAAAAN0IwSt6iBpV3F+g6gbvpV9thZY9Xq1ok3qk3rY9cdXKcQAAAAAAANCNELwCAAAAAAAAQJwRvJ5s3s2oCt9q1N7nV2jeNeM0MiFBCWMzdcPdxao86M3nd7RGpQ/PU27GGOe9dhOnMcq8bp5WPL/Xm6F1VavynXWM1PQHK8JaVTa8VqwlszI1JrjMWUtU/FrHmxbGuj016535rguud6TGXbNARb71Bm5UlalFzvPivJHeNtsNvAI3z0rIcKco/1wb7wzXFamtC9HDyjZynKbftELltd7E9thbqeK7b1Dm2MC6x2TPU8FfWtgPkfvN1ntbka9OYtieNpcRi6abrjXWlmtZcJ+Pna4FT1QFZvGPd9aRf3+5om5VC9vf/OZivhu9dXCdLR8Hgeltcpa/4qbcUFlHjp+ueau9dYc4ZXfqd/r4wPLdeR6O3PambWl4rUgLsgP7YslvCjTdeZz+eOQyTZUKsp33zCqOXo8AAAAAAKDX6XXBa92+A9petVtbtr2uile3d3iw99tybHldoW7jPcq9s0JpM5ersHSd1nx7nLbdmausm4oUFuMcLNeSK9M17Z5KDctbqnXOvOtKFmu6SjRvSpryi3Z4M0a399lFys8r1bh7irXm5nQleeMbNi1RVlqu1ipfS22ZpUuVe7BAuWlZWrbFm6kd6jYuiW17nPWOzFqm6vHztNzblqx3lyl/6uxQH6dpM6w8yzXbeZ71nTWBbS5dpKzhacqx54+4U7Tw1zbeGW7LUrL7zugseE6bslhVFy9Sgc3/2HylvbZYmU4ZStoTvtq+uGqccn9ep+l3rXXXvfwrI1Vyfbbml3jz+JTfO1LTHqpW+reWu/OuvSdLdffnO3VS7AWrbW9P28toh3dLteSrS6WrF+snpWu0NL1Sy3JyteQpZ/zV81U1ZZEz3vZdqkpvy1T2gxXeGz3t3H7XCayz5eMgML1Vtc7nY3ymltVmav5Ke99aLbsuWaWv+2utSkVfTVPmPVVKv73AXX7BLWmqvCdTaTeVNA9Mqwq14L56zXY+c42NjVr4hVzNnimVrCoNP8bN66UqeipFC7+S3eqxCQAAAADAqWbq1Kk699xztXPnTm8MYtJ4gsbc/3fvWWx217zb+NobbzbW7TvQeOz4cW9sx9j7bTm2PFtupylf3GhVpRm/aNzhjQqqf2Z+Y4ozbe6TdcExjWV3pTcqJa+xsMobFWLTMhoTNLtxTai41Y2FM5xl31Xmvqp31pXhLC/DeV3vjvHUlzUunqjG9O9EjHdK5L7/xrWNwRK0KbQ9hY1vROyCwPakNM4t8S3tz2saf1IZvtbGyuWNWc4ycn6+o7FpEU4ZbVxRtffax11nTmPhW97rkKb3hJbzVmFjjrfsMAfKGhdaHTyw2RvRllb2RfWaxrkpTh1osVOCJpt//ZPGbQe8F55tj2QFyu5fRovb045ltMo7LpTd+OO/+XaSdxzI2Ud5Rf76qWtcM9MZP3FpY1PtNG3/L3ZE7Oiqwsa8ZtvftM6fbPdGGf86C9/wRppo6zStHAetqP51nrOOKHV0xHt0VBflRJ2nfuPCxnSlNy6t8EaEtsX/WQuoe3KuM94/b8DmB6yuwo8HAAAAAABOdVVVVY3JycnO39JyH+11Z7CM8e2333aH6urqxvfee6+xvr6+8bgvP/zRj37U5tBevabFq7VMPfhBvcamnqPkoYOVmJDgTekYe78tx5Zny+3slq/zb8hRqvc8KOmKfC2YKK34c2VgREOZ1txZofRbFijv/MCoJknKmDlPOQmPac365m0fG14r0OxrF0l3lankOxmhlq6mYeMaLdqSpblfDR8vp0QZV+dIj1bIK0HM5n/D2Z6IXRDYnhqtKPct7R9zNPtj4WvVxyYpy3ko3tnuNpxtqnqqQMWar7kzImp7cIamXy1VOGWLba0VWtvSvkjJUf43vOc+6TNmK22w98KTlu5uqapi3NR4LCPk2nxlXejbSUnpyrjCnuQ7x4q/fpKVPtU5DrZUqTrU7LNCpY942x+5o8/P07wo2+9y1+k9N751zmpznR2XPDxVKSrT2o1Vlpg26es9qkprHy+Wbp2rnIj9mfSp6cp2tresMqKCr81SekRr2+QrcrQwpUKFz1b41uPU1c+trrKV4Y0BAAAAAADSzJkztXdv4A9/e7TWr1VV0brw65l6TfBa+/4+jRg+7IQD10i2PFuuLb/z5Ch9bET46BqpkWOdh9eqAmFgbY17CXPWxDR71dw5qUp3Hkpfrw68Dtq6XLOn3qDKa9eo8DsZzS513ltrSy3VDV7fl/5hzFeLnWmbVeVd9l+zKrfZPM37VM3RJGd7mu+JiO3xNOyuUPHjy7Tsths07cppyhwb6MezM9TUlDr/LtO0gRHb4AyZdzuTVleFLhMP9CkaMVgfpWZ3lRtGt7gv+nmPYRpUs6VYBfcv04JZ05xtzdQYtz/X9ohlGV5fsRHDkk3e5KD01IhwPEkDh9jjMA2MOBwHugFltfYG+5J1tn+zsxPbt/0OW6f3NMC/zvAjptk6W9X6NidNna2Cm8ep9KtjdPb4fC1ZVa6asO6La1TzrPNw/zQNbLacTC1xJhW/HvHFf3HktjiSsjT9phRVFJWqIpi8birR0i3ZmnutfToBAAAAAICxkHXDhg3u81WrVun88893uxvIysrqNeFrrwleP6hv0NAhp3mv4suWa8vvVKGWd1EMT45oidpOKZM06dIUVVSUqrLF7jJmB/pYjTo09aOZcm2B6urqwoeVOUoJTG4S0/Y0qPzeaUo9N1uLnqhS3Znpmn3zQi3+759orju9k3xqodvvbPRtzVEwSsy4OWI7bbg5vM1iUmRC2RLrDzUrVSOvWqTiqjqNTJ+t+bcvVuFj7djSmJeRofmR5XaG+f/oTY6jmLe/07W1zanKfmCdqt5ap8VXSYW3ZGpk6jQt2RT+uc64vTDKMeENMyJC5hbC5YyrFyh9S6HWb7HktUGlTy5XzczZyvW39AUAAAAA4BTmD13Xr1+vL33pS+6jP3ztDX2+9prgtbGxMe6tXYNsubb8zlMWalEapmGbNq+W0seODLRSHZ7itrAr3dLChf+7q2S3Isq9OKId3pmZml9UrMVaoenXL1F5xKXbSYNHOv9WKencLGVNjTakKyWYryUlKzk5cogM32Lcnt3FWnpHqTJ/XqZtTy7X4lvnKu8qZ32TxzVrlRsvSYPTpecblJIRuY3BIa1p3YOjbGvwMn9nmtVaeWW0X2AaVB/RM0XN75Zq0fpMFZZv09pHFmv+t/KU7awvY2zsW9qeZSRFltsZkloLw9urb5Ibnse6/V0hlm1OOidLs+8r1LbKbVo+pVSLrl2mQBtmZ3smOttzNEWZYceDb/hYjPtqYo7mXlGhpb93ltxQppJ7xU21AAAAAADwWKjqD10vu+wy97mFrvY6NTXVDV0tnO3p4WuvCV57thqteKL5XdOr/nuZlilD+VO9S5STMpV9e4oqHliqombHXYPKH1+u4hE3KTsjSsQzOEMLV63R7NpFyrxqicp9l28nZ2Rptkq14uflzlLioUbLi0tUF5FVN9uemiqVOQ9pzgfKr+HZNSrwnkcq2xnRjUJIWUx9nKZPzVe6U4oVq0+wyXryJGXOkEofKQirS9drBVp2v/fcU73T3VKlhvUfaq0hW9zSZtvT/mV0opR0ZV3lbf+BiB0dZfvjreXjoAVHvceg5DRlW//FNdWqcz94zvbkOcfl/StUfMLf6anKuj5bex5Zr5KnirUsZZ6mT+0uLYMBAAAAADg5gmGqhavGH7oGWfhaWloaCl+nTJnSo8NXgtduIUtZNUs06bplKl5fqtL1JSq4ZZoy55Qo465lmjvRm01JyrqjWIvPL1J+xjTd8HCxM68z/1NFWnLdOGXeKd1VfL+yI274E3J+jn7ybKHydi5S5hW+8HV4jhYW5an67kyNu26JCp+yMgSWu+K2fN2wOoZEM4xtz2Jd8sU2tufiDM1OkZbceoNWPBFYZ/H9uZr0RIOme7M0SVXqDKnmoaVaYeVbVaCSYKvac1KVY2HvQytU4iyj6PGSsD5kw0ycqxV3Zaj4q5maNmeFVz5neKJAi26armWR/aC2KEU5ty1WxpYlTl36yv/wDZp2015lfsubzZM2ebbzjiWaPyu4zmItu26Sig8239KWtqddy+h0qcq/K7D9n7zyG21uf/y0chy0omZ1vsblLVFR8Nh+YpkW3FWslFtzlOX9TpF+4wotnlwc+Gw95H22bJseX6R52cGWsbFJvXq2Zu9Zo8X3reGmWgAAAACAU5aFpt///vfde6hYmBqtpWukYPiakpKi3bt3Ky0trceGrwSv3UKysr+/VmuuqlLBnGmaljVdS8pTNa94m0q/kxHev6u1XH12h9bekqqqlXOdeZ35Zy1W2fD5WltVqkUZA70ZW3B+ngqeWKysnYuUc01T+Jp6faEqSpcru6FQC7KtDNN0w10FqhgyXXOnNuvBtQ3Jmn5XibM9O1vfnqQsLVpfqPlnlmlxjjNf3jytaZittQ/lu10qhEtR3n1rNT+9XPOc8uXfU+nUhTfpnDwtfXK+JpXP0/SsfC12JrXcvjBJGd8p0bbieUrduky5Vn/Oe+Y9XKK9aXOVc7E3WwyS/nGhSivXaHHaNi3zyl9Qma7Fv16orDO9mTxJUxeptGi+hv15sbvO/G+vUcPMtVr+1eZb2tL2tGsZXaA92x8/rRwHrUhOy1LW0bVaFDy27ytT6h2bVXlfVtOxYp+tp7ZpzU2p2vZwbuCz5WzTiqf2Ku1bOe6N62I2PEtXzdyi8k2TuKkWAAAAAOCUY0GpBa02fO9733PHWaBqz+3GWS2FrkH2/pqaQLO6hoYG/exnP3Of9zSd0ymqp/EEO0a9YGm13lhgPWm2reLV7Uq/yG6Z3zk6bfmblighY7N+8eZvlH9up+4OoMuU35mgzB8v1ubqhe0LLAEAAAAAQI8WDF2DLGz99Kc/3WbYGmStYq0fWIsVJ0+erG9+85v6+te/7k3tGMsYN+YFYsrExET1799fgwYN0oABA9zWuGblypXuY2vmzJnjPYsNLV4BxFmFyn7nPFybHqXlMgAAAAAA6K0sdB0zZoz73IJWC0+/+93vdih0tfeUl5efcOh6MhG8AoirqlVLtXRLiuZelcmd/AEAAAAAOIUE+3A1Fri2h73Xbr4VDF2DN+HqyQheAXRIzRPzdMNty1Tg3VjLbsa2bM40ZeYVKfVbBVp0NbErAAAAAACnEgtMg4HrzJkzw4LY1gRDV2PLsJtr9QYErwA6JDk1U8m1JSq4LXDDqmnZi7Rmb5oWlexQyUPZau8t2QAAAAAAQM9mN9D62te+5vbrat0OxBq+2nwmGLoG+13t6QheT7bJC9XYuIYba6HHSZqYp6WPrVPZ9kb3MoDGxh0q+/Vyzb0qlS4GAAAAAAA4RbU3fLVpNp+x7gV6S+hqCF4BAAAAAAAAxE1k+HrFFVfohz/8oTc13M9+9jP3sSffRKslBK8AAAAAAAAA4srC19NOO819fvToUf3gBz+I2vI1OM6C2t6G4BUAAAAAAABAXP30pz/Vrbfe6j7//Oc/r5qaGrfbAetOIMjmCXYzYP279jYErwAAAAAAAADixgLV4A2zHn/8cT344IOhbgdmzZoVauUa7GbA5umNCF4BAAAAAAAAxEVk6Gp9t0a74VZqaqobwNq03tja1fSa4NXueHa8sdF7FV+23N50RzUAAF4qflSPrq+V9mzUowUbtccb37paPVPwqIq2ei8BAAAAwMdCV2vRaoKha1Bk+GqDjbP57LE36tQ0sdHhPe2QC5ZW640FI71XrdtetVtnnpGs5KGDvTHxs3f/Qb373l6NTT3HGwMAQKwsrFytF/d7L2OUPHGGbpw6PPDCwtHfSzmzp2iEKlX04AbtCkyJKuy9LbDgtWxYYD57XqLLdHtOmje1JYFtqf3Ejcob740CAAAAAEcwdLU4MDJ09bPA1boYsPltvq5o7WoZ48a8QEyZmJio/v37a9CgQRowYECoseXKlSvdx9bMmTPHexabXhO81u07oHe8cDQxjq1TrbWrhbpnnZGsYacP8cbGj/vHbsRfz6Mvb88ftIE/wNWu97Qk8Af1G2Oi/MFuf/QX1Snz5ms0wRvVmZrXy1BdkpevK0d4L+Nkz/pCPbbjPM1yw4z2ailMGaXsLqqnJsGytLZubx5d3MHtRTNbn9S9z73tvTCdt+/dY3WLOuVz4HI/46/o9Lh8l5xMrXyPdQrvczUsltAyUuC9rYeYznd88XZp1wENj/O+9wevgf+XbNdFbR6/sZQZAAAAwKlo6tSpbtcBjz32WKirge6C4DWK9gSv5u09tTr4Qb1GDB+moUNOO6EA1gLX/Qc+0J7aOg0+baBGjeicP+DD//B1tDv86L3Ba1i9uAGXYg+1bP4XhkUEjFZXm8PCi3gEr5EBRCAg29++AD1qedvDC3/2t9LSLRgSDiV4bVMM+yOwn4eEHZN71j+pl8Zd0znBaKfqTWFaK99jnab5d0tsYqt3//dh6PnwsojQ38//A0Dg/xGttY6NFPruCn5nxIrvFgAAAOCUZi1ZTXfsNuBkBa+96uZaFo5ay1TrFuDlyjdU8er2Dg/2fluOLa+zQteoRkxRzsSh2rW90hsB1/ixGq239WoP6FdwxNR83X75KO167km95I3rKqNHj9LeHZVR+2p8afvbSh461HuFE1Orl3bsV/LEzLAfAkZM7Ymhq2NPpd7QxZrW40PXkyVN0yZKL/6p9e9tC+vvffBR3xD4sWTXc/5xNhTqGd+HeELOZTp9y9N6Zv2TKqm7WDnBQHn0Zbr95hsjhsuc78pIdsVA5Hw3KtuZ0X6oiRwfFgI3W8cMXeJ8jVg4GzY+72Ile28BAAAAcGqywLW39tXaUb2qxWtP1KxlpyOyFabN47/sPrwlZWSLV691k6/lUfj7274UPbYWrxGtqOyP89Bltk2tL13+VlBuCyop+3KpxFpShb2vSfN6ad6iLHy7mroiiKwvdx1jt0e03ArUQ0qUFq/tra/ordWaT2tXea1OvNbPe73RLdVVQHB9l0nPRWkBHdx/Vu9hLTkj9lXY9gam2fGQWbc6VMbIFrUtbVdQ2HRnG7K1odkx33KdB4/vwHYFZvHtuy1ewZvVTcR2RTsG84apLFS/TetscX9EcOdrq0/MiBaDTZ/dYN1epgt2bHDK6dTbJ4boxRciW3X7Pt/yyu2bHmxdHeT/bmi5Tpuz5RTrM6F9Evkd5IpsBdzitjna2O5WL8sPO+6dern8PL3xXERr+8jPRlhLy6bjNnSMRZQn7Bh2p7V8PASEH0/JEwP7Leyz3+w7srnIeg4uN/w7pPl3nStYzuDyI7YpXORnKHprXHc/101qeV/YOraPjfrZava9Z9sf6oMWAAAAALoXWrwipKbO+et+2HDnj1f7A9cLd3ytivY919IdpW3+DdplQZH3x28oHPLeP2viAZXEfPfqlgTWsy/UUmqGLhnmTfL+KLfQI7jO7GGv6LFif0uwt1Vif8zb9NZCK5+Xim27JvmCg0q9GrZd0ou/D2zXhBxn3OWjAmFMcB3jr3Hms5ZgFgzae6KHI/GrL2f/OXWyr7bWe93O8jr2bKvTBaFWak7Zd22I4U7i1vKueYvpPdve1N7RY5tv855K1fr31Whn34TtK2nvltV6daxXDqece63lXahCWt4u49ZnnbddNozdHh5qOmKp813PWd+TNt1a2zllfPDRQGBk46ylXVjdxHgMWkjkX6Y3vaX9EWnCJwPrvbel4yMUlAXKEPjshrdk3Ltls/RZm56vKz8ZpVX31u3ujyjRWqIGQlfr6qBp+cE4r33HcaD17unDg++OgYVszx1oakXpW3fr2x34XLTIC1Stq5VA2T8jveALWI0tv+hN32fD27+tfE5f2h5eHoUdw6bl4yF4PLlhsbeMHG32/VjhGTFcp+uA9rRUiBNkLdZHX+58bznb/+h673vFvuuD2xU2RH6/7deLReGtau3zMmL4EKmuNlRvdkzdG/H5BwAAAAB0HMFrd+P8UV2ya6gu+WSa87zM+eN+lLL9wU8rXRG8VLw6cOOk4Px7NqpsV/j7R0ydpNH739RLcQgHmoKa4bpyqrcOK7NThtClsI5AQLXdd9m9t31tsMAvGBKURGyHBYx5/u0ad56S99epxnvdIZ1QX3vr3vWetb+84Zetp+mi0f4gt2VumXdtDgtH19lNmaLVuXM85fn31dhRYUGMa/RlTS3bxmfqkqH7VfuO97q17XLr09nXn/W1gBt/jXt5c0iMde4GTu4z51j7hFNGa9EXfI+zDZn+uon1GAyVy1tm5Ha3xVnvjRbS6RU9ZsdpWGBVq2de8IIyb0ygnPv1xjbfPgz7MSGwj/2fbbd7iDFpUVoQevs0L3z5V9p+6tBxPFTDz/KexmyIRgQLFlx3DNvtBtu+svm99KdXtNd/vNm++az/EvbA8pMnfias9aZdit/a9k3I8ZcnTReEHcOmleMhyvfwiKmfcS+3D3emhjdbbnP+77XoXQ34riQwzv581BlvP1i48z33dlN3Ihb8h94XPoT/SONsXyiotmDZG33WMN/3UCvfEwAAAACADiF47QbC/hB3W4oFLgndU3vA+Xt5mFK8+YIiWymZfS8UBloW+i/zfKdOe60ll++P8cAf9W2HA60brgljhgZCgIhWZm6Z93tBVHBwL9/1twTzBTatCO97cKxedZYVFiZ4gUTTOk5QJ9RX8rAzvWeODpTXWi4GyxLZUrRlFuD5Aj631eR5mtBSnVsLwmC5oly6HLYNnrAAuKXtcuuzjX3d0TqP8rkI6vAx2KHgfriunG3HZ6BF8r0PBvv1fVe1zQK1wD5sCuOb160bfIcC4kq9umuoLhjXFCCH2D5tqW7bXaeBsraLG14G1hFqfemKbbujc77T6qIfb00Cy2/eOret0NNarQbL09RlQJOWj4eWvoc7Kvx7LRCCWlcMTeMi+mh1A/7g+FGBlrvO97ysXA5b3qyJQ91lzJo4yg1Y7XVMfK1096zfHHFVgadZuBstLHaGeHwHAwAAAEAvQ/DaDYT/Ie5rmWXcLgdiFLXFl/eHesQQ1jdfSBuXAfu4N5ByluNe4uv80R0WvgQv0Q4bmvcv2D7hl9C7l8T6LzfO87eKOxHtqa/WWGjWFBC1v7zWL+OjYZeLh7UUbYO18NSWMr0UbIH4CV8g7+MGu/7Lwu0S+3Zoc7tiCqziVec+nXIMtiZNed4l6mW+z0J4oOYNLbT2dLk3kfMC4rYC81brtj11aqGl9zRmTYHz6e4PR+FdKLR7u33a7vKgna1z3R8G/F1P+Fp8xqo938NxZ6Gxr369rgasS5qYbpa3p1b7WvwBxPuR5k9Pqti6rYi2j5p1ZxAtLHaGuH0HAwAAAEDvQfDajbktW8Mujw5wW2BFBAGnfyJfbv+aRb476dtlpO3sczBl2NDod8W3VnRRgh73smG3z0QL+bwyd6jlYHsE+qQcfXmcg7QO1FdL3NZjob45O1Ber2/PULcR7eW1SHx1faXe2D9KF0UN3AItKsMuV2+XNrbLvYw58seAQKvGkDjWeVDXHIPR+H+4CISZsXQNEa6ptbLbp2cLgXn0uvV0qE7DW4u6dRjB/d5pxgJnr29f947+Hd1uE6i/Zt2ouC14gwItW8O6a3BZS9jogWygf+PLwm7m1h7Rv4ejtRJuuQzBVuF2I7TYuhrw+mQNdV/hC06d/as65zu6bpQuGBO4YsKWa8t4bMvb7vv8N1yL/t3dVE73R5pdb+v0YPcQ1gI+uF7rGzvW7yBrmcuNtQAAAAAgDMFrd+b2p/l2+M2OnD/gi1voh89aobo3Rwpe7uz1rei/2ZHbeqq45ZvQBProfEXF/hasFho85w+BKlXkL5M/GIlW5sj5O8Ld7v0aPda2OzKgcbbp91Euc40avrVyOXIH6isaa0Xq3vQoFEJ0oLyRwZrb96/3PCaBfip3bXlFmpjZQrAaGWI5+6nFu6RH08Z2eX1pBgK5gD3rnw6/zDtOdR4mXsdgq+GtU8YC348cxjlGrU/bQNcAgfoPvxGZbf+TETd1as4NwnY87fbTGj0wd0SrN2f9z1hXHO2u00DXIWFhqXv8vaJ1wa49vM9fiHM8+rv9cG8I6Gp7u91W1i3si0BXC+H9E4cfk9GX3/zme00ig9Nmx2Bb3FbI4S2Z3fV5z0Naa1nq7BPrLsC6AAi/wiHaYF0KeH2yuqHnu87e8wWntqxPSm8MC9wsr62uBiwwD+sneI/9GBMsZ9NnNnQ1gc3fancPAAAAAIBY9fEeO8X3HN7TDnmo7KD+LbN5y6veZE/lX/TWwIt0aeogb4zfIF0wKVX1ZSX69R/+ouc3OcPWBl2U529hWKutm3ZKYy7VeGdcSpoz/7ZN+uMf/qb6MR/XJy91XldsUEnw/Zu2qf+lucqIFg6YwaN1acZgbf+fEv3end/W+Y5GOH/UN12mnKBqf5l2DFV2qIsEK/NgvfW/G5rev+l9XTg9SxcMdia/81dnfmlsxkdbvQTd6mXrX7d573eGiDKkpPnXsVtnTxmr+h0NOje43BFnePXgTK8erClpFiScqbMa/qYNZX9y3lOtoc68g3duVUXd6UqfNFpWPLf+Yq6vD/VGxTZVOmUNldMZ3k2doZuvTw/bvnaX99JLdF7DVpU8a2V1xh27RNnJO1s5VgJl+XBU4DhwjTiutzYd0SX+slj9vz3Q215nX41q0F+e3aDn3HId0ScvH6rtoemBZdYN868zfFzr29X8+K1KuUZZA7aFbUfrdR5+fLvCtiEg/HPUgWMwclzU48dvkA7uLFXJ/waX7wyRn80RH9U/+PehM1QMuERfv9SWFa1uPYNPU11FhVNXl+gL/vVGlDEl7VIN3enUbbAMzvrPnvxxdxvbdxw7qxy0T3/5v1qdF6xT53vgvNBnxXn/rrOUN6WfKkL1/o6e/22Jd9z8RduTL2tqGdnqdgf21XadH6VOHc57pwzeqV//ttR7r3NM5o3Wu862NX1WIueJWH9k3TrzD61u2ldVKRm66MOdTZ+VNo+HMzU+4jvx8KUzdGFt+Odtz5+fV/mAi8P3WYQPnO+bSl3YfJ+HsWO+WoPGB/al9rym598drsuczdvqHMdnOWXa80yJ9o+9SmM+DCwvTW+oatDHndd/1Z4znTK/u9V9PX5EpZ78n4OB7wBryVrk1JnzXZo08V/02dRdKnqwRNVp9n11kfs5/b9+l4aW2XIZo3zXAAAAAEA3ZxnjLC9TSkhIUJ8+fdSvXz/17dvXfW1efPFF97E1l1xyifcsNoEld5JGh/e0Qy5YWq03Foz0XgHo+ayl6GrVfuIE+3BFnHXj/WKB4QvDwm8ceNJVqujBzRoeCtojX0dnfSIX6zPRuz2w7Qy17rU+eiO7ALF1bNdFvvHB5eXoaa0bnq9ptYFW2C9uedttATuttqX1RdvfgXEv7rfWtq1tB59hAAAAAD2PZYwb8wIxZWJiovr3769BgwZpwIABoeB15cqV7mNr5syZ4z2LDcErgC5jQZHbDUOzUAknnXUpUvSKTg9r3X6yWdi4QfsmzuhwH62dwbpLKKm72AuDvcBymL/VLQAAAACgOyF4jYLgFejJgi3ovJfGbhjGDXjQkrBWnwHWcvPkBsGB8DesT1e70z8hKwAAAAD0GASvURC8AgAAAAAAADgRJyt4TfQeAQAAAAAAAABxQvAKAAAAAAAAAHFG8AoAAAAAAAAAcUbwCgAAAAAAAABx1q2D1/59EtRw9ITuzwUAAAAAAADgFGXZomWMJ0O3Dl4njuynjTsPea8AAAAAAAAAIHaWLU5I6eu96lrdOni9fsIgLS8/SKtXAAAAAAAAAO1imaJli58b643oYt06eL0mbaAmnztAX1z1np59vYEAFgAAAAAAAECrLEO0LNEyxUtSEvXpsw97U7pWp3Zw0Ojwnp6Q3277UL98uV5bqo/o8DHCVwAAAAAAAADRWZ+u1r2AtXSNDF0TExM1YMAADRo0SP3791dCQiAeXblypfvYmjlz5njPYtMjgldbzJEjR1RfX69Dhw7p2LFj7jgAAAAAAAAAiIWFrH369HGD14EDB6pfv36dGrx2664G/CyN7tu3r1s59jxYKQAAAAAAAADQGssSLVO0bNEyRnve2XpEi1dz/PhxHT16VIcPHw61erVxAAAAAAAAANCaYOhqrV2ti4HI8PWU7WogKBi+WrcD9miv6XIAAAAAAAAAQEuCrV0tbLXuBaK1eD3lg1djYWtwsMUTvAIAAAAAAABoiQWvwfA1OEQiePUQtgIAAAAAAABor5buG0XwCgAAAAAAAABx1hnBa+ffvgsAAAAAAAAATjEErwAAAAAAAAAQZwSvAAAAAAAAABBnPaKP1ycr67XqpQ+1pfqIDh+j21gAAAAAAAAA0fXvk6CJI/vp+gmDdE3aQG9s607Jm2vdu+GANr11SPMyBmvK+QOU1LdTiwwAAAAAAACgB2s42qiNOw9peflBTT53gG6/bIg3pWWn3M21rKWrha6/uv4MXXFhEqErAAAAAAAAgFZZhmhZomWKli3+dtuH1kDUHbpStw5erXsBa+lK4AoAAAAAAACgPSxTtGzxly/X68iRIzp27JiOHz/uTe183Tp4tT5drXsBAAAAAAAAAGgvyxYtY6yvr9ehQ4d09OjRLgtfu3XwajfSorUrAAAAAAAAgI6wbNEyRgtdGxoadPjw4S4LX7t18AoAAAAAAAAAJ8q6GbDA1QJY63bAgtfO7vOV4BUAAAAAAABAr2Yhq4WtwQCWFq8AAAAAAAAAEAfB8LUrWrsaglcAAAAAAAAApwwLXQleAQAAAAAAAKAHIngFAAAAAAAAgDgjeAUAAAAAAACAOCN4BQAAAAAAAIA4I3gFAAAAAAAAgDgjeEWXq1mVq4SEJSr3XqNn2fvUPI0ZOU3L/tLgjQEAAAAAAEAkglcA7dLQQOAKAAAAAADQFoJXRFGlkttu0LwnarzXQJOUa3+iHdXrNP8fk7wxAAAAAAAAiETwiihqVHF/gapp2AgAAAAAAAB0CMErAAAAAAAAAMQZwevJtmmJEhJyVVhVp/L78zVuZIISritS00X+e1X+8DxNHz/SmS9BI8dP17yHy52xEY7WqNSZLzdjjDtfwshxmn5bkSoPetP99laq+O4bNM1bpjvvTcWqciaV352gxIRMLXKeF+d5053yFe123xmbVpbfqshtSBijzOvmacXzkVtbo6LrnOl3l7vrKrrts4F6s/lnrVBFs8pxHAyUKXOszZegMRk3aMkTlYq1UW/D+kU6OzFB834XbeFVKsh2ljurWHWNgToM34dB5VrirDu3qNp7bbxxq2rU8FqRFlwzTiOd1yPH52vFXwLr8o9PGDtdC1ZVqt6dEq7htWItmZWpMTafWxdLVPxa+BY23djMOa7uv0GfdOtjjHOsOPvnqM0RGB+op5Eal7dM5bXuW5t4x2y7jglXW8fyXpXc5EwbuUClYcdtgyruzXTGz1NJsCwtHO/bDnjTPZHbG9iudm4vAAAAAABAB/S64LVu3wFtr9qtLdteV8Wr2zs82PttOba8rmDhz9qLl2lbdaMaf52nFHdslYq+mqbMe6qUfkeB1pWuU8Etaaq8J1NpN5X4Aivn/feO1LSHqpX+reXufGvvyVLd/fnKuqk4PADcWaT8tHHK/XmdsrxlrntskTL3VrnLS5uxTs+VLtds53nWd9YEppcuUtZw991t8y1/6u3Nl9+ig+VacmW6pt1TqWF5SwPvK1ms6SrRvClpyl8VJbZ9t1RLcuZpc9pNWl7kbPNj2dLj8zQpryA85HWXfZFyS6T8+2x71mlpTp0KcsYp68EKb6bWJU3N1fyJCVrxVFnz7dhS7IxP0cKvZCs5wRvXXpUFmnfLZqXduFyFJT9R/pmlmnfpbBU9X6TZVxdq2ExnfOla/eSqOi3Ly9KtT9Z5bwxo2LREWWm5Wqt8LXX32VLlHixQblqWlm3xZgqpVundznzK1t0r12nNfemqvD9XufeWOOOzNf+tDC1yxq8rnqfU9QuUefUyxVZLrYnlWE5W9h0rlKdlWvRj3xpfL9SiO6o0d+ViZXvHYfB4n/Tt8ON92tw1UQLvpu1dHOP2bm703goAAAAAADrV1KlTde6552rnzp3eGMSk8QSNuf/v3rPY7K55t/G1N95srNt3oPHY8ePe2I6x99tybHm23E5Tvtginsb0H7zojWhSXZTjTMtpLKzyRnjqNy5sTFd649IKb4Rj869/0rjtgPfCs+2RrIj3b25cOlmNmry4sSxi3nBljYudMuUUVXuvYxXb8gPb5czjvXa2qLHsrvRGpeQ129bAtAxn/tmNa0K7obqxcIazHmU0Li6v98YF7FiZ7Yz3101g2QkTFzYr046fWznmNq6t80a0Ycdj0yPKEbD5PqfsE5c6Wx9QdpdTthmFTikjefVa6D+uA+OUMr9xnb98bxU25tj4Ztvo1PFEZ/yNv28MFbveWYYzLv07Zc7W+u0I1NONa0PzBupejdkrd3hjjFf/zviUrxQ672pSVzzbGR9+rAWOWee4est7HYPqotzAe2I4lncU5TWmhJYf2Ncpvm0wLR3vCQnh6+jo9t6/+cS+PwAAAAAAQNuqqqoak5OT3b/R7dFedwbLGN9++213qK6ubnzvvfca6+vrG4/78sMf/ehHbQ7t1WtavFrL1IMf1Gts6jlKHjpYiQkJ3pSOsffbcmx5ttzObvmanZHuPQuq0trHi6Vb5yrnfG+UJ+lT05WtCpVVNrXtS58xW2mDvReetPQs599iVQVn21SipZvStfTRhcqImDcuOrr8hjKtubNC6bcsUF7Etjpbq4yZ85SjAq1ZH9GW8dp5ypscfmf91EuzlO7UTV3wUnVv2VNvnNWsTKlTcp3lrlDFa96INqRekeeWo2RjWFtjlTxQoexv5zjrPQHfyFWWv3znZCj7CufxitkR25iuzKulhPLKUKveho1rtGhLluZ+NcOpLb9UZVydIz1aoUpvTECO8q9I9Z6bJKVPtmNFyv9KjvOuJsnOMZTj1GfVW622V26Dcyz/tO1j2b5lTer1i7VsRrHmP1Sqqt8t1vyNc1VwV7aSvekmpuM9pP3bu/OEthcAAAAAAMRi5syZ2rs38De4PVrr16qqNjur7DF6TfBa+/4+jRg+7IQD10i2PFuuLb/z5CjtHO9pSI1qnnUe7p+mgdaHZdiQqSXOpOLX/Qdig2q2FKvg/mVaMGuapl2ZqTEZ1lNrk5qqzc5Ss5T+MW9EuwX6Iw0vS4KWbApM7fDya2vcEDFrYlrgdaRzUjXJeSh93d83qiM9NSw0cw0f6Y6rfMtL37xll37zgmblTkjNV7EzbXMwqdtdpNzIefx9mZ6TrfyZUsGqktDl7A3r12p5TWSw1345aZHvH6iBljQmO4+BEU36OcOWhlD/tHtr3S3UDV7/tf5hzFfdLVRVWH+sk5QaGYAOGeY+DhsSHt2qb+Ch+mDrveEG+lKNWH+on9v2HsupyrvnJ5p0f74y56xRrq+LgSbRj/fGYHobJv7bCwAAAAAAToyFrBs2bHCfr1q1Sueff77b3UBWVlavCV97TfD6QX2Dhg45zXsVX7ZcW36n8gKfSBm3Fwb6O402zPCCSuvDNCtVI69apOKqOo1Mn635ty9W4WNzA9PDJGlgRNYUuwzNr6tTXcQw/x+9ya4TWX7nmf1fz0WvQ2dYNMVrS3lOjgqabV+BckKheLKyv7JQKasLtfZ1e92gsqeWqGZmvrKbBeddbbaWR9m2wNCOPno7KOXagoh6c4aVOV5fxQFtHcthP5kkDVNySo1qakYqeVjEAdXK8Z4Q399dAAAAAABAJ/CHruvXr9eXvvQl99EfvvaGPl97TfDa2NgY99auQbZcW37XSlLSRKn8aIoyp2YpK9rwsUBgWPO7pVq0PlOF5du09pHFmv+tPGU70zPG+i/OdpY4eKTzb4nKmt1sKXZJyclKjhiSvNC4w8sfnuK2Ui3dEn5BfMjuKm12HnIv7kCr0sHJslJVJaVGr0NnSD8nGOwlNds2d/u8qcZusrVgYomKN1ZJtSUqut+7qZY3PcSZHtE+N7Qd8Rao9yolnRt9+7Kmpiuls8PwpOb1lpzcVK+xHssBVSq6Y65Kr12jdQ8kacm3Fqs82HWEI9bjHQAAAAAAdD8WqvpD18suu8x9bqGrvU5NTXVDVwtne3r42muC194nXVl56dL9K1TcxjFWvbPM+Tct4nLqBpU+WeA9D0iemqP5KRVa+kCRe/l9W8p2NosOW9Xe5YckZSr79hRVPLBURc22tUHljy9XccpcZWd0IFhLzlTWTOeD/OhjYeFdxwX2S8mqUpU+W6iCiQuUOzU81UxJyZJqyrTZbRXbpOqpQrdrg3hLzsjSbJVqxc/LQ90PdC9OnV0f27FsqlYt0vxns7TijhxlfWOZFmqJ5t7XtG2tHu9d/fsIAAAAAACISTBMtXDV+EPXIAtfS0tLQ+HrlClTenT4SvDajaXfuEKLJxcrP2Oabni4WKXrS92h+PFFmpe9TOXefGmTZytFSzR/1goVu/MUa9l1k1R8cLo3h2dwlhY/sVip/52vzKwbtOKJwPJKnyjQgrxlqvBmsz42U2dINQ8t1YqnnOmrClQS1kdoCyKWv7zF5UdKUtYdxVp8flH4tj5VpCXXjVPmnXKWuzRKP5+xSFbOnYXK23OPMtNztWRVSWDZ60tU9PAC5c8pDvXXGqv0a+cq+9kCLXqoOOpNtVKvmqu8lBLdcFWulrl14Kzrjumatj1N0Tp/OGHDc7SwKE/Vd2dq3HVLVGT7zKu/Fbfl64bV7d3C+Eu/cXlMx7J2FjnHSpEy71sc6OJhcIYW3Tff2ba5Wvx8IHpt7XgndwUAAAAAoPuw0PT73/++e58XC1OjtXSNFAxfU1JStHv3bqWlpfXY8JXgtTsbnKGFT23TmptSte2hXE3LmqZpefO04qm9SvtWU+CXNHWRSovma9ifFyvXmSf/22vUMHOtln+1+aX5SZMXqmTrGs07v0orbnKW58x/w30lasjI9N2oKkV5963V/PRyzct2lndPpVMWb1Ib/Mt/pMXlR2Hb+uwOrb0lVVUr5wa2ddZilQ2fr7VVpVoYdmf/djo/T7/Y/JyWX9GgwlumB5Y9Z7EKKoZp+pyssH5IY3JhrmbPLFf5pmzlTImyVdZX7PpCzU+r1NIc22cLtHbYIm2+L9ft9qAzpF5fqIrS5cpucNbr7DO33u8qUMWQ6Zo7td1bGH8xHctVKrgpX8VX/URLv9JUr0lXLNCKr1SHuhxo7Xinj1cAAAAAAE4+C0otaLXhe9/7njvOAlV7bjfOail0DbL319QEGpI1NDToZz/7mfu8p+nUmKLxBDtGvWBptd5YEFtUVfHqdqVfNNZ7FX+dvXz0JHtVPGuYcrVGdY/lNO/fFQAAAAAA4BQVDF2DLGz99Kc/3WbYGmStYq0fWIsVJ0+erG9+85v6+te/7k3tGMsYN+YFYsrExET1799fgwYN0oABA9zWuGblypXuY2vmzJnjPYsNLV6B9np9jQoeb+GmWgAAAAAAAKcoC13HjBnjPreg1cLT7373ux0KXe095eXlJxy6nkwEr0A7VTyxQiVRbqoFAAAAAABwKgv24WoscG0Pe6/dfCsYugZvwtWTEbwCsdhdooJVpSq+P1e5t0kLH57b7KZaAAAAAAAApzILTIOB68yZM8OC2NYEQ1djy7Cba/UGBK9ALPo2aH3+5cpd2aCcJ9do8ado7QoAAAAAAOBnN9D62te+5vbrat0OxBq+2nwmGLoG+13t6QhegVik5OgXx4+rcftaLb26qYNoAAAAAAAANGlv+GrTbD5j3Qv0ltDVELwCAAAAAAAAiJvI8PWKK67QD3/4Q29quJ/97GfuY0++iVZLCF4BAAAAAAAAxJWFr6eddpr7/OjRo/rBD34QteVrcJwFtb0NwSsAAAAAAACAuPrpT3+qW2+91X3++c9/XjU1NW63A9adQJDNE+xmwPp37W0IXgEAAAAAAADEjQWqwRtmPf7443rwwQdD3Q7MmjUr1Mo12M2AzdMbEbwC6H72bNSjDz6pl7yXAAAAAACgZ4gMXa3v1mg33EpNTXUDWJvWG1u7ml4TvNodz443Nnqv4suW27V3VKtU0YOPqmir9zJaCOWOK9Qze7zXgM+e9YW6t7jSexWNHWOdffxEHMftsGfbm9o7eqwmeK+7Tq2eKYi9zG49O9v46Ppab0z30Pb+7x5eKvbqzr7PCjaKrzMAAAAA6NksdLUWrSYYugZFhq822Dibzx57o05NExsd3tMOuWBptd5YMNJ71brtVbt15hnJSh462BsTP3v3H9S77+3V2NRzvDFdYOuTuveFYZo1e4pGOC8tSHmsbpJuz0lzXlk4tFpvjJmhG6cOd2d32Xuee9t7ETRUl+R9Rvr9ar243xsVMkrZN18TCrfcdWxpNlMLwt8bq/DtiGRB3WYNz8vXlbbRESykeXXsjcob740IstCmqE6ZUcoTvk1WF1GWbe//vZTziTo9tn1sqGxR62PoxaF9EljvK9rrH9ei1rctTNT9KI2+fIaGvxBtPzpGXxZWp63Xs2lHeToq4hhuVbAuvZctSZ4YcczHXeCzVfuJKMdZJLfMb+qCvEmqLdogXR7+Hjtey4a1VN6W6t/Gb9Cu1o7VsHqK/jlse/93VKB8wW1117PjvNj2cRT+OrLnJQo/jgEAAAAAPUcwdLU4MDJ09bPA1boYsPltvq5o7WoZ48a8QEyZmJio/v37a9CgQRowYECoseXKlSvdx9bMmTPHexabXhO81u07oHe8cDQxjq1TrbWrhbpnnZGsYacP8cbGmRemnH75jZpWGyXsa0NTGBUZGtnrp6XPWoATGfTY6+26KDJ4jQxrooVnbnm9oNNX9taCKjdU2eW9iNHoKEFWe4PXmNj7LXidnaaXQvUVqI91w/OVd1Zwuj9caqrPEX+KITAKrSOGgMrq3BcARw0Dm80TruPBa0vj2xIoY9RQOIrIfRtL/TQPMtu3TlcoJO/Ae00o4A68v+nHj+b11ry8ftHrOfSe4WW697kD0cPXGLS2/9s+NloRsZ9a/EzGKLyOrE7Cv5MAAAAAAD3H1KlT3a4DHnvssVBXA90FwWsU7Qlezdt7anXwg3qNGD5MQ4ecdkIBrAWu+w98oD21dRp82kCNGhEtPImH8FDNQpFifaaFsKa56GHU06odJu0bNkkX7NgcChKDAeXpo9+Wxl4mPReH4NVet6NlY+uhT7QwqoWAzN/CM7I8Qe74iFaUzvuytaH1ENhbtpU1avBq2xsRitl+KKmL0hrWndq6ZiGku/xoLV5bCuaDrR6t/qy1ZATbnrHboy7TFdmKN7StbYSTYS19w4/jlrUwX4z1FXOLV3d51ho19uCy+WepZbGEl60vr/mxHjreQvXi7U/fse4eZxE7ePTl9lmOst+D/J8VR3u2M1LYe9vaZ6Hjo4XjshXNPhMAAAAAgG7PWrKa7thtAMFrFO0NXo21fK19f58+qG9wmzZ3lFX6aQOTNPwjp3deS1cTFnT5tBC++UUNoYLvc8OWM90QNhi8BkObwPveVdQWrx3qaiDW0C2WdbRwiXVIlHDWDYDi0eI1fB9EK+vo0aO0q26Ysse8qZKwaU65Jw7Ri1sU5dLvKGVuje3DFlq8WvBa7A/mW9h2d1+31go3SnhsYgkUo4tD8Brtc+ATc2AYVidN67toe2utM2M/hpvvn+iil7d5CGmfx8y61SqrG6q9+yM+G87neNawzc5xOKRdXXu0th9jrsdIEcearcM9FsdVtvH5a/n473BZAAAAAABoB4LXKDoSvPY0ofAi5uAhEBC9uL95347NwxabNxC82uXw4QGHhSFxavFqo1oJevxan6/tgDJUX+6l2C0H08FQ2l1fKCBto4/XKMFry10NBFhw1Nal1qEyt7CPA2X0BWvB8DxC2y1eg7xwr8W+Z4PHUPP66HgQFlym97INJ9bVQPMfDZpEOYaCQekna1tZR1vlb/55s/L4W58GA9QWW1NHtiz2WuTaZ9N/DLnHQ0ufEfd9J9bHayzHbDSB7fXW5/8O8D/35g3X8ue61W0FAAAAACBOCF6j6P3BayDsiamVnQmGLi0Gaj6h8C56uOaGQxHLiRqCxBi8Rp0vikDI2Fo610qL15bW0Wbw4+eFkt4rN7jKG6ayKO+PVtaWw08Tpexu2d50Ju3XXt9bwi4Pd/eDU+d7hmtEa5XnsDIVt9Hi1V/uFltFv3BAyc4skZfidzSUi/1YbmG+4LHtvWxJ8sTLdMGODS2uJ+ox7K7TfoCwm8w1tQAP10ro39rx1cpxb3XZUogd3EfB/RP6TEYTw+c9cl3R6yGgQ/s4tH8Cwav862th3zWF65GfuQB3usLrr7VyAwAAAADQUScreO3jPXaK7zm8px3yUNlB/VtmJ17mf9J9qDcqdmtQ+sd1wWBvVAsskHj42beUNHGGbs5JUxuzSyM+qikZlzrDx3XwmUf1eOVgTUk7052UkmbjnWHS6LDlfLBzqyoaRobmc73zVz3/9kCl++f94E39ZWuDzs34qFK8Uc6MeuUvdRoWNq65wakf98plQ6rqt21T/yk36qbPBce1UBcWcFmQnDJO/+Ivn4langC33v7nT3p+01+c4W+qH5Olz19+qf6h4W+qGJCh22d9SimDP9T2Te/rrIj3W328f/Es3TS5Qa/sOkt5N+UqY4RXT+57r9LQ6r/o8KVWftuWN6R/8Je/UkU/fkF7NEAX5c7S1531TskYrLc27dSuHTuVfLm33W7dDtJg930WEv5Mv/6DlTdiqB6s9IHVKt9S0TRu6ztq0FCNDZW9Uk/+T7WSRw/QvuThGvHXTdo6+FKND6V2TpmKtip5SoaSdlRr0Hh/eWv1cllsx2Nzdixv04ej/OuKpoX5bB96dfwvoeMjfLC63vrXne7x0lJo+EbFn3R47FURZRikCybZNgUfvdF+e17T87tO19Qp4Z8JV5Tjy8LLx//Xqf8dB6RD76jC3R/VGuqbZ0/lX/TWwIt0aeogb0yQs49Kq5VwaIBTHW+obtTHNfit4HHkPzav0pQxzrH3Nykt+PmzkPPHJXouuP+9dU74SIP+8uxm1Y0JbF/Uz7LL9nEs+8nPOSZ/tUHH0y5WQo1TD4P/qpI3Risv+D3k1k8/Zd38ZX3Bt7+all+rrc7n68K84Gcg8Ll3y3CW/3sjcOxeOD2rA8cfAAAAAAAts4xxlpclWNDap08f9evXT3379g0Fry+++KL72JpLLrnEexYbgteTapf+7w/+8Kvl0K2i5pD7joaabc2mPb+tQf/gBTPhQWNg2L7PmbBvZ9g4G15pSA0Lhdyw5q9/DZ8vLFjyhmZhn6OV8LPl7dqmamez9u2IHB8YQuVzQ9cDSh56SEkN7+u5in2h7XW1su7woLcpdAsPpgLBULTgdUOZU5e2vcE68MLP4HstXHv3DAuZLFD0B6+BVn77LCi/frI7LhDWva8LLx+r+tqzNP1fooR8bkgYLK+FtL7Aylmflakq5RpnmZ8OzGPBnG/b96x/RhsGTFLuMCvjxbpp+mA9v+VDXept5zMFJapOm6FZ//Shs82RwWvkNnjHU2lEfUcVh+DVHzC6wo8bO46theisf4oMMoM6EioG7Pnz8yrXBc1DfRPl+Ar9eDG4Ws/XjtYsNzAOP35aDF63lmvrqIvd4PucKeepdtdpOqthm3ccRRybkfUyeLQuDR3PNnjrdMb3r/6T/vhW4AeW8OPbL9b9ZMfvM6oe83EN/vMTKlGGbrrkw0A9fO4afSHGz1+Afb78x5qvDGPsR49danTXEzh2v35plH0AAAAAAMAJOFnBK10NnFQWLLV06XO4WC/BtfnCLkVvQeSlySbauKiXUke79Lq1y7Gjsm0P9qkZS/cCaXrJu0TdLvUPu/t7K+u2bWq6hLtpPeH1GeN+sLJsH+vd7Kj1rgZsvU2Xc3vbOsy72ZWVt7X+TEPbPFzrfJdot93Hq4VlgcvlJ2xrfry427zjPG9fNs3btM2R9RBtnpb492fb/H28hu8jv0B9utuyRUoe6ix8TMTxGSHqMdymNvZ/lM9AaP+GLpW3fRXe72z0slid2nxj9aqvbluuA4e/qwErS1j/v74+Xt3PQaDf2Gj7PyCwn9rsEiLKNrf4OXPHN+9qINTNRbP3hZfBrSdnO+xAj/37AwAAAACA2J2srgYSvUecNPtV+473NE72blmtex98tNWhechTqz110unD2xNY+bxTp71Dh7XQ4i2ShU8WvMzQJUMthLO+Nwv1zB5vst/4a3R7REA5YqovdI2BhXy33xxYV3TDNWJYcD9YKPSkXrLH4o3O8KSeWW+D87zWndld/+03O8vMu1jJNsKCMXt9c1NwNyGnKdjas/7pptA1VsOcMrlPLHy0ZQeWZ+vOHh3cpss02l23F1Zt3a59Ez/TYnjo3sAroi6b8x2Pe2q1b+h5mtD6G8IEytXa0Hw/WF1FnTfvPL1R9GggLHbqNnOY94ZWTBg7yjn+y5z9F7vA/pkUQ7jcJGXYUO2r9Q4IY3U1emyboeGe9Zuly5uHi0114OxTjdLo0U37PfL412jnWHLrxzv+gkZM0Y2+YzA6O9a9py1yjv0X3lbymLQ2jhU/C4CD2xAYQoFz1O+GoRp+VuDZhE9eLO16W6cH68VC3+JKdxoAAAAAAD0ZwetJNVwTxkQEOHFgLc38AUi0wcK7MHsq9cb+UbqoHYGm357aA76wsGXW6vJet6Wfv8XdcF0528LXR/Xo+vjWRat2bQgE0cWVbmC3a7s/7HlXtbZ/vJCqdvgUXTncqdthwcugK1Xkti68UbPGvKniVspdU7dfo8f6QlcLyFoJQN263LU5ShBtofCjKtFlgbrbc6aGD3tFjxVslDvr+Guit/R0W0mqqWVkiyJCuRHDdfr+V1rdtk5h5bX94tVvs+CxNU4dzJp4QCXO+2M6loKBdCuheLRje8S486QdlYF6N7ZPYwjWW//RwH6Q2OAGs3k5k1Rb1MKPESfIQuPwYz2cG0TrYuW0q9Vwy6z+wkJc97tmiHcjOeeY/n2gtWywTO78oc8ZAAAAAAA9F8HrSdYswDlJXvrTK9LEzDZb7EVXq5d2RISLkbwwLdh6sXmrPAtfb1SOnnbm65zAKcDCLaccW9TUotACs/GZuqTOwk4LXIcpxVqPDjtTI6ZeoyudwcKyl7Z7l3i722IBWWA7LEzLrFute4MBaAQ36HrOWtHGwurSymbBm/9O8Ba6Bi7PDrWcHeHUWU4g+H2sxRaCzvbGFLoGhLfkTFPezTN0wY6WWlDHuk2xCOwXd7lueW3ftNV6M7pAi+Qo5Y6sIzeQPuDUdWt1U6l1W6Ic2/7wfP8reqyldcQo8IOEHVPBHySs7u0YeFRFW91Z4sa+c5J3bYgSTAeC/dhaRsfK6m+IMi3EDQXqwe8a2+er9cYY+6FohvP52xD3bQUAAAAA4GSij9eTrilQa94SLtACLhi++fvFbInbj2fU/keba7kPRh8LS4J9PbpBlRc+RvY7GdkfpJ/7vmjhX0vbHhhvre6altk0b/R+TiMF+r5UWN+ZTX2wRhXsq9Iu5fa1Xmyq01G6ZOIBvWjBVEt11VLI6a+7qALlTbF1+fvmbKH/zOZ8fX063DJH6+PTvzz/Pgyy6a31P9sib5+dQB+v0Y/v9n8GYtLaMR+xTvfSfn89tlWHnuh9vAbZOqzlt7X0jjzWw7n1U+dNb3Yc+fd7eLlDn++oIrbR02r9tlRnrdSlHYfFUfucjvbZDx5DbXxOAQAAAABop5PVxyvBa3fgBTmnxytU6ko9ueyIo2hBWjSxztfztR68AgAAAACArkLwGsUpE7wCAAAAAAAA6BQnK3ilj1cAAAAAAAAAiDOCVwAAAAAAAACIM4JXAAAAAAAAAIgzglcAAAAAAAAAiDOCVwAAAAAAAACIs24dvPbvk6CGo4E7jgEAAAAAAABAe1i2aBnjydCtg9eJI/tp485D3isAAAAAAAAAiJ1lixNS+nqvula3Dl6vnzBIy8sP0uoVAAAAAAAAQLtYpmjZ4ufGeiO6WLcOXq9JG6jJ5w7QF1e9p2dfbyCABQAAAAAAANAqyxAtS7RM8ZKURH367MPelK7VqR0cNDq8pyfkt9s+1C9frteW6iM6fIzwFQAAAAAAAEB01qerdS9gLV0jQ9fExEQNGDBAgwYNUv/+/ZWQEIhHV65c6T62Zs6cOd6z2PSI4NUWc+TIEdXX1+vQoUM6duyYOw4AAAAAAAAAYmEha58+fdzgdeDAgerXr1+nBq/duqsBP0uj+/bt61aOPQ9WCgAAAAAAAAC0xrJEyxQtW7SM0Z53th7R4tUcP35cR48e1eHDh0OtXm0cAAAAAAAAALQmGLpaa1frYiAyfD1luxoICoav1u2APdpruhwAAAAAAAAA0JJga1cLW617gWgtXk/54NVY2BocbPEErwAAAAAAAABaYsFrMHwNDpEIXj2ErQAAAAAAAADaq6X7RhG8AgAAAAAAAECcdUbw2vm37wIAAAAAAACAUwzBKwAAAAAAAADEGcErAAAAAAAAAMRZj+jj9cnKeq166UNtqT6iw8foNhYAAAAAAABAdP37JGjiyH66fsIgXZM20BvbulPy5lr3bjigTW8d0ryMwZpy/gAl9e3UIgMAAAAAAADowRqONmrjzkNaXn5Qk88doNsvG+JNadkpd3Mta+lqoeuvrj9DV1yYROgKAAAAAAAAoFWWIVqWaJmiZYu/3fahNRB1h67UrYNX617AWroSuAIAAAAAAABoD8sULVv85cv1OnLkiI4dO6bjx497Uztftw5erU9X614AAAAAAAAAANrLskXLGOvr63Xo0CEdPXq0y8LXbh282o20aO0KAAAAAAAAoCMsW7SM0ULXhoYGHT58uMvC124dvAIAAAAAAADAibJuBixwtQDWuh2w4LWz+3wleAUAAAAAAADQq1nIamFrMIClxSsAAAAAAAAAxEEwfO2K1q6G4BUAAAAAAADAKcNCV4JXAAAAAAAAAOiBCF4BAAAAAAAAIM4IXgEAAAAAAAAgzgheAQAAAAAAACDOCF4BAAAAAAAAIM4IXgEAAAAAAAAgzgheAQAAAAAAACDOCF4BAAAAAAAAIM4IXgEAAAAAAAAgzgheAQAAAAAAAHTInj17VFVV5b2CH8ErAAAAAAAAgA754x//qL/85S967bXXvDEISvAeO0Wjw3vaIRcsrdYbC0Z6r2JTt++Aat/fpw/qG2z93tj2S0hI0GkDkzT8I6dr2OlDvLEAAAAAAAAAgixw3bp1q/t8/Pjx+tjHPuY+j9WGDRv0wQcf6LLLLtNpp53mjY0vyxg35gVywsTERPXv31+DBg3SgAED3AzQrFy50n1szZw5c7xnselVwevbe2p18IN6jRg+TEOHnKZEr+I64rhT9P0HPtCe2joNPm2gRo0Y7k0BAAAAAAAAENTR8NUC12effVZHjhxxw9DLL7+8U8LXkxW89pquBqylq4WuY1PPUfLQwScUuhp7vy3HlmfLteUDAAAAAAAACGdBqwWuxgLYWLsd+POf/+yGrubw4cP6wx/+4IaxvUWvCV6tewFr6XqigWskW54t15YPAAAAAAAAoLn2hq/WxcC7777rPp88ebLb0tVC194Uvvaa4NX6dLXuBTqDLdeWDwAAAAAAACC6WMNXf+hqfbuee+65+vSnP93rwtdeE7xad7Lxbu0aZMs9we5qAQAAAAAAgF6vrfDVuhfwh65nnnmm+9xC194Wvvaa4BUAAAAAAADAydda+BoMU/2ha1Bk+GotY3ty+ErwerLVVqjo7hs0bfxI9y5qCQljlDlriYpf2evN0HF7/7JM00cuUbn3uuP2quLB6Rp594kvCQAAAAAAAL2fha8f/ehH3ecWvpaXB3KlSy+9VDNmzGgWugYFw9ekpCR9+OGHevrpp3ts+ErwerK9XqrC6jTNvq9Q60rXaV3xfI3buVy547O15C8d7FfWwtxbpint0gUqqfHGddDeLUVakJWmSbeU6AQXBQAAAAAAgFOABaUlJSX661//6o2Rdu/e7bZ8tWC1LRa4NjQEcrFjx45p165d7vOehuD1ZJs8X2sfma+8q7KUNdUZrp2rnzxZqPkp5Vr06zK1L3qtUlH+RRp55iTN35Ku3Bne6I54vUj540dqWPp8VUzMVY43GgAAAAAAAGhJMHQNtlK96KKLNGbMGPd5azfcCrL+X62LAfORj3zEbSE7btw493VPQ/DaHQ0ep0lTnMedNWpfhwM1qto6UfOKt6mydKnyA11pdExtlSrGz9OarZVa90C+JnmjAQAAAAAAgGiCoauxrgSsSwELTS+55JJWb7gV5A9d7f3Tpk3T+eef777uiQheu6VqVW+X0jPSlOKNiU2GFr5cqIXXpinZG9NhkxdqW9FC5Vx8wksCAAAAAADAKcCC0yBr6erX2g23TGToajff6ukIXruZhp3lKvj2XC0dtlgrvpHujQUAAAAAAAC6NwtMg4Hrn//857Ag1rQWvgbn7S2hqyF47Q42LVFiYoISEhI0MDVTxSOXqeKZhcoY7E0HAAAAAAAAujm7cdbo0aPd8NW6HWhP+Grvs8C1t4SuhuC1O7gwR8+tW6d1peu05rGFGvlsjkam3aCC19p3ay0AAAAAAADgZOpI+Pryyy+777PWrr0JwWt3MDxNWVOz3CFn5mL9pLRMhRlrdcP1y1Tuy17L7050W8WGDXeXe1Pbo1xLIpfjDEs2eZMBAAAAAACADooMX//4xz9q+/bt3tQAf/j617/+VS+++KL7vDcheO2WUpU3Z7a0ZblKX/FGOTJufl91dXXhw80Z3tT2yND8yOU4w/x/9CYDAAAAAAAAJ8DC1z59+rjPjx8/7oar0Vq+Bu3YsaPZDbd6OoLXbm2kkvp6T83gZCUnRwwd7Ac2KXI5zhC2LgAAAAAAAKCDdu7c6XYhYEaNGqX6+vpm3Q7YPH6RN9zq6Qheu6UqFa0skCbmK2uiNwoAAAAAAADoASxQtZDVXHrppZowYULUPl+DwavNE+2GWz0dwetJVaPiOfla8HCRStaXqtQZSlYt0w1Zmcp/dpwWPzpX6d6cAAAAAAAAQHcXGbqef/75UW+4VVJS4gawwZtqRd5wqzeEr70meLWbQx1vbPRexZct15Yff8lKv3qc9j6xWLOzpmmaM0y/c400dZnKKtZp4eQkbz4AAAAAAACge4sWugZFhq822Dibzx5NbwtfOyNNDGl0eE875IKl1XpjwUjvVeu2V+3WmWckK3loBzs9bcXe/Qf17nt7NTb1HG8MAAAAAAAAgKDWQlc/C1x37drlzm/zWWvXSBa4WvBqLIj134SrIyxj3JgXiCkTExPVv39/DRo0SAMGDAg1tly5cqX72Jo5c+Z4z2LTa1q8Dv/I6dpTWxf3Vq+2PFuuLR8AAAAAAABAcxakmtZCV2OtW8eNG6fs7OyooavpLS1fe03wOuz0IRp82kC35au1UD3RANbeb8ux5dlybfkAAAAAAAAAmrPA1cLU1kLX9ugN4Wuv6WogqG7fAdW+v08f1DfY+r2x7WfNjE8bmOS2dCV0BQAAAAAAALqev9uBGTNmuI/tdbK6Guh1wSsAAAAAAACA3qOqqsoNSkeMGOGNaR/6eAUAAAAAAACACKmpqR0OXU8mglcAAAAAAAAAiDOCVwAAAAAAAACIM4JXAAAAAAAAAIgzglcAAAAAAAAAiDOCVwAAAAAAAACIM4JXAAAAAAAAAIgzglcAAAAAAAAAiDOCVwAAAAAAAACIM4JXAAAAAAAAAIgzN3j9+6hRX3CGXTZUn332190pAAAAAAAAAIAOSaw577wxzuNqZzjPhsaEhMf/fs45l9pEAAAAAAAAAED7JTYePXqV97zJ8eOf8Z4BAAAAAAAAANopUceOrfWeN2lsfMp7BgAAAAAAAABop8SRe/bsbDx+/PNqbNxuQ2NCQv7Z1dUvetMBAAAAAAAAAO3k3lxrVHX1b8/++9//wYZRu3cXuVO6gf59EtRwtNF7BQAAAAAAAACxs2zRMsaTwQ1eu6uJI/tp485D3isAAAAAAAAAiJ1lixNS+nqvula3Dl6vnzBIy8sP0uoVAAAAAAAAQLtYpmjZ4ufGeiO6WLcOXq9JG6jJ5w7QF1e9p2dfbyCABQAAAAAAANAqyxAtS7RM8ZKURH367MPelK7VqR0cNDq8pyfkt9s+1C9frteW6iM6fIzwFQAAAAAAAEB01qerdS9gLV0jQ9fExEQNGDBAgwYNUv/+/ZWQEIhHV65c6T62Zs6cOd6z2PSI4NUWc+TIEdXX1+vQoUM6duyYOw4AAAAAAAAAYmEha58+fdzgdeDAgerXr1+nBq/duqsBP0uj+/bt61aOPQ9WCgAAAAAAAAC0xrJEyxQtW7SM0Z53th7R4tUcP35cR48e1eHDh0OtXm0cAAAAAAAAALQmGLpaa1frYiAyfD1luxoICoav1u2APdpruhwAAAAAAAAA0JJga1cLW617gWgtXk/54NVY2BocbPEErwAAAAAAAABaYsFrMHwNDpEIXj2ErQAAAAAAAADaq6X7RhG8AgAAAAAAAECcdUbw2vm37wIAAAAAAACAUwzBKwAAAAAAAADEGcErAAAAAAAAAMRZj+jj9cnKeq166UNtqT6iw8foNhYAAAAAAABAdP37JGjiyH66fsIgXZM20BvbulPy5lr3bjigTW8d0ryMwZpy/gAl9e3UIgMAAAAAAADowRqONmrjzkNaXn5Qk88doNsvG+JNadkpd3Mta+lqoeuvrj9DV1yYROgKAAAAAAAAoFWWIVqWaJmiZYu/3fahNRB1h67UrYNX617AWroSuAIAAAAAAABoD8sULVv85cv1OnLkiI4dO6bjx497Uztftw5erU9X614AAAAAAAAAANrLskXLGOvr63Xo0CEdPXq0y8LXbh282o20aO0KAAAAAAAAoCMsW7SM0ULXhoYGHT58uMvC124dvAIAAAAAAADAibJuBixwtQDWuh2w4LWz+3wleAUAAAAAAADQq1nIamFrMIClxSsAAAAAAAAAxEEwfO2K1q6G4BUAAAAAAADAKcNCV4JXAAAAAAAAAOiBCF4BAAAAAAAAIM4IXgEAAAAA+P/Z+//gKMs8//99JSCEH2pwcElWXQkONSYOCy0fpkh2KaUjs2WyujWdL06ZfPRbEOSUJDNVSsZTLtHz/UCidSTROproWdfoqZlNmJVDM+tsYjkMwZGZxDMoYWSG4AelYcVNGOMkSjDhZ5/7uvvupNPp/O6EpHk+am77vq/76uv+0ff4x8sr7xsAgCgjeAUAAAAAAACAKCN4BQAAAAAAAIAoI3gFAAAAAAAAgCgjeAUAAAAAAACAKCN4BQAAAAAAAIAoI3gFAAAAAAAAgCgjeAUAAAAAAAAwKqdPn5bP53O2EIrgFQAAAAAAAMCovPfee/rggw909OhRpwVBcc7nuPBbnNVRua2sRZ8WJTtbw9P+1Rm1/eUrne3qNsd3WkcuLi5Oc2YlaP4N12ve9dc6rQAAAAAAAACCTOB6+PBhe33JkiW6/fbb7fXhevfdd3X27FndfffdmjNnjtMaXSZj3J8byAnj4+M1Y8YMzZ49WzNnzrQzQOPVV1+1PwezceNGZ214Yip4/fx0mzrPdmnB/Hm67to5indu3Ghctk796zNndbqtXXPnzNJNC+Y7ewAAAAAAAAAEjTZ8NYHrnj17dOHCBTsMveeee8YlfL1SwWvMlBowM11N6Lo45WYlXjd3TKGrYb5vxjHjmXHN+AAAAAAAAAD6MkGrCVwNE8AOt+zAgQMH7NDVOH/+vH7zm9/YYWysiJng1ZQXMDNdxxq4hjPjmXHN+AAAAAAAAAD6G2n4akoMfPHFF/b6ypUr7ZmuJnSNpfA1ZoJXU9PVlBcYD2ZcMz4AAAAAAACAyIYbvoaGrqa26y233KK77ror5sLXmAleTTnZaM92DTLjjrFcLQAAAAAAABDzhgpfTXmB0ND1xhtvtNdN6Bpr4WvMBK9XlfdLFReXo5pTzvaV1FanwsXJytzepOHMCW7dkWOde6kane3Jo1vNO4qUvTjOOr9klX7gNGPEGreZezgZf2MAAAAAADARBgtfg2FqaOgaFB6+mpmxUzl8JXidZHz/mmm/TS1nR6vTMsl1dw8rcJ3sOn5ZJHdutbR+l/bWlciV4Oy4QqL3HHSrdV+VitZnKi3ZBKLOkpymzMfr1MJEbgAAAAAAMA5M+Pqd73zHXjfha2NjYIrWihUrtHbt2n6ha1AwfE1ISNA333yjd955Z8qGrwSvk0qTvC8fUf66XHl/Viuf0zqp3ezRa8datPcnLvVmlR1qfKVQ2S80OduTXavqd1aqdW25qp70yH1vvrK+6+y6Iob7HPhU98QGFe4eIJztaFL5/SlKdherri1Vnsdf0676WlW/WKayR9xK6KRuMQAAAAAAiD4TlNbV1enjjz92WqRTp07ZM19NsDoUE7h2dwdyi0uXLunkyZP2+lRD8DqJdO/bpbLWQuU/nS3P25XyHnJ2TDnd8u2r1NudXc72ZNci32HrY0mKkgINV9Twn4NWNW2vUkuk/LSzUaVZy1XUnK3XDjfryFsVKvlJvjyrs5T7o83avLVCta96lDw+ZZEBAAAAAMBVKhi6Bmep3nHHHVq0aJG9PtgLt4JM/VdTYsC44YYb7BmyaWlp9vZUQ/A6aXSrYU+VtMmt9IVZylvXpOo9U2XG6FTXre5JE3JH4znoVuMLBXrK96D13deU/91Epx0AAAAAAGD8BENXw5QSMCUFTGi6fPnyQV+4FRQauprvZ2ZmauHChfb2VETwOlm01anm2WQV3ZdubSTKfV++mp7fpfqR/DV4R7O82zYow35BVJwWZRWq6oOOgV921Fqvyk05Pf3jFmcoZ1OlGgMvlgvRqFK73qhPHb8tV96SZKt/8OVewX2BP3cPvDwrWXk7Jf/TfxcY11pK37d3h+gIvMzKHss61/QNKv9th7MvyBo7Pt4eu/tojYruT1Oy1Td5SZ4qresy7PZ/CrTHLc5W0Y5mjeSWBe5NhorNxtMZzvmG3ivrPHeXaoPbOYZ1bWnuDSrd3f845trj463vdjar5olsLTL9t43wFVPDfA4at8X3nLc3N3APe34Ta4yqp5t07//aptwR/btp+NdqG+B5G0j3Ua9K12cE7kvcImWsL5X3aNjIwRfHnbCe2+15gbq0D9RoilQ8BgAAAADgqmaC0yAz0zXUYC/cMsJDV/PyramO4HWSaN1To6pleXIvC2wnrspSfmupvHsGDrL6MH9afm+acn7aruyttdpbv1cVDyWr7sEsbQ78h4Y+ut8vVaYrUyVH5ynvub12/9qt2dKeQmX8bZ5qTjgdQ+0vV35dqsqbWuT371LuzU57iMRVxdZYu7RljbXxyEv2uGbxfDuwP6BF9dtyVHggVQUvVmtv3WvKUpWKVuWp6hOnS6jmKhU+flCpj1ao2uqbd2O9Clfkq+a3Ncq/r1rz/k+rvb5Wr93brvJct4p+Ocx7Zklda86vQvlm45EK53w9SrX3+uRdf6fSPFVqX12sKntfpQq+7VOFJ03ubY0RAkmfqv+5XF0PV+u43y//UyZAHb7WPdXDeg5S1/6657zdT+1yzrtY7vnWb9vUYN1Nt36wOiXQeVhGeK0hz1vW/xre8+ZOzVGt8lRmj12mnM4q5aS6VR5htnHDc/mq/W65jrRY9/DN3ElRAgIAAAAAAAzOBKbBwPXAgQN9glhjsPA12DdWQtdx5x+jRdv/21kb2sE//m9nbXyM7/jH/a9lxfldzx10to12f+2j8mvdLmstTGOJX/L4qz9ztv1d/oatLr+Scv3/dvyy0+bwVftzk6xxVOJvcJr8XQ3+kmXyJz1UbR05zBlrX3pc2HGtNuvn1LIyf+gZBgT2eWpanG2jxV+9Vv64rb9ztnu11HjMe/T96VsbrLMOcew1f5bV7no+9AjW2HHWuSRt9u894zQZn1X7PeZ8lO4vaQwd5aC/zLouPVrb/54Nyrk+65xCBc41/BgBx2ty/Uly+cuanAaL6R8XJ3++d2RH72U9B/da92C4z0HEex88783+X38T9iwMYmTX2vu8VfucpqCWXf6CSM+by3q+nwr7za3rNc9Jn9/LfrbD7wEAAAAAAJgqOjs7/X/605/8b775pr+2ttb/5z//2dnTq7m52d5vFrNumO9F6hsNJmP8/PPP7aWlpcX/5Zdf+ru6uvyXL/dmJ//yL/8y5DJSzHidDA559fLby5S3xuU0GInKuLdAeqNKuyLNAu2jSfUvN8n1eJFyU8LelrQwV4WPOOuO7v27VHzIpaLHc9VvTuTcdOX/yGMdd5fqw/+++74MhZ7h6HlU+FC6Epwt27fd8qyxriTSm/YfyZF7rrNu3JyuLDOjdk2+cleGjuJSxn3WR2OzfIGGMfCp9g2vtK5IBX2OEZDyYKEKk5pU9nZ4/VWP3K5R1lS1noPKt11jeA5CzdOshOG+OWuk19qk2qed5y28lEGSR3kRnrenDq1WwcNhv7n19KXfZz1rrzSp2WkJykqPzpMGAAAAAAAm1pw5c3TrrbfaM19NzdfhzHz96KOP7O+Z2a6xhOB1EmjaU62mpb1/Xh6UuMajzapTzb4hYsRTPh1slfX9wB/I93ON8+noaDPjueW6PbAdLinFhF71arZruPbyLI7WH3ynKqVf7dFZmmXyysO+fvU8Panh8bDTN9H6DDT0Mtd6qHtEdV4ja1XrHusupbsUOUZNUcoqq1dz+PlGurbhsZ+DkDIDQcN+DoKmm3jzoHwnzOTR4RjhtVrPmwlKR/a81WtDsJZwyLLoYa+1zzrXPs+aR2kRylgAAAAAAICpITx8fe+993Ts2DFnb0Bo+Prxxx/rww8/tNdjCcHrldZdr13PN8l/qEh3hoVScbMyVW51qX/Zq+G81z5hVv/ZilE1vV/MOUrRGmcyGuW1Oc+BovAcJC2+Uy55ta9p+LVuR2Nkz1u+KuzarpGWQG3aPqY7nwAAAAAAYEoy4eu0adPs9cuXL9vhaqSZr0HHjx/v98KtqY7g9Qrr3l+n0la3tvx7pEDKWl4tUNKhMu3a120KZ0Y2PcH+E+7G5kgzIrvVdcZZdSTONzNI69U0wLPc6jPxXo5cfV6IdbVJUtIa6y41NilyfOmTb7/kcqVE5cVPPc/BmxGegbDnYEjLPCq4V3p9e6UaO522QY3wWucmKtn6GO7zljDX9PYp4Ra33KsjLS4ljfN/MwAAAAAAABPrxIkTdgkB46abblJXV1e/sgOmT6jwF25NdQSvV1SH6naUS2tytX5tpEDKWh7yKD+pVVV7GtQ9UPKa5JL7XjMjskqNZ8I6Ha1S+XZn3ZGwKktbTM3O52vULzrrbFTVS14lPZqljFGWKu1xrKVf2YCpI0XuB7OkN8pU+X7/sNO3o0IVrenKWx2NWqS9z0H+cJ4D51tBDSdanLWgFOVtLVH6/+8peXLLNfTE1xFea+KdyljrPG/hwW6E5y0x3a187VPlTxujUAICAAAAAABMdiZQNSGrsWLFCi1dujRizddg8Gr6hNZ8jZXwleD1Svpkl6rekNxr3Qp/J1aPBLeyNyWp9dka1bUNlLw6QduhUv3d9x9R5e561e+rl/elDcrc1KGMHzndgqwxi3eXKOVnecpwb+jpX7ejVDmuDBX7t8r7XNYA9T6HI0kpS5Kkn5WrYoc19tuV8n7g7JpCUtZVqPohn4rT05Szzbr/1j2q3+dV5cZMZeTWy11Trc1h9VhHJfQ5cJr66fMcOG1W75S1UuuLZap82zq3HVWqc2qlJvyPLap9p1hpB4p057xF1neLVbmjzjr/OtW8VK7yJ6xnY6NXLc4jNbJrTZLnicDzlrFmgyqGet7me/TP1blq2ZahtAdKVWPO1Yz/do0qn8jThp1TN54HAAAAAAB9hYeuCxcujPjCrbq6OjuADb5UK/yFW7EQvsZM8GpqYV72D/jH+GNixjXjR5tvv1d1cit3dYoGGz39viK5VKWaPQMHVCZoq2/epZLUIyr3ZCozt1BVzS6VvLlF7ggvhEtYafX31apooU+Vm6z+7kzlP9Og5B/X6vieYqXPdTqOUvpjdXop9ytV5Vpj/7hO7VPyT8lTlPvTZh183SPVFSvbukeZ7iJVX3Sr/ECzqh8cMCYdkdDnYDDB56Daeg4CT3qScp+r1WZXowqzMpX3TLMU8rslrtmmvc1HtOu5LCU01agwN9s6/2zl/bhMVR/4lJKarISeB29k1xr6vD0/jOct5cF/U1N9hbK6q7XZOlfzvG3YWqWma7NVsDpaL20DAAAAAABXUqTQNSg8fDWLaTP9zKcRa+Fr9NPEEH6Lszoqt5W16NMiUx9yaMd8p3TjtxKVeN0YE8MIOr7u1BdfdmhxytR81Xrj03HK+NcSHWzZomj8YTwAAAAAAAAQarDQNZQJXE+ePGn3N/3MbNdwJnA1wathgtjQl3CNhskY9+cGYsr4+HjNmDFDs2fP1syZM3smW7766qv252A2btzorA1PzMx4nX/D9Trd1h71Wa9mPDOuGX9qalLDL62PH7gG/jP2WNXZoY6OQZZhvXhqjLojHLfPQtVTAAAAAAAw9Zkg1RgsdDXM7Na0tDRlZWVFDF2NWJn5GjPB67zrr9XcObPsma9mhupYA1jzfTOOGc+Ma8afinw7ylR2KEkF92aMoWbr1NT4wjzNmzfI8kKj03P8tO7Oj3zs4LLRO4VfQAYAAAAAABBgAlcTpg4Wuo5ELISvMVNqIKj9qzNq+8tXOtvVbY7vtI6cmWY8Z1aCPdN1KoSurbsLVdyYovR0l1JMwtrdqqbdVSr713ql/KhW3hezRCVNAAAAAAAATCWhZQfWrl1rf47UlSo1EHPB69Wq+1CNil+sUsP+ejV+YlpSlL42S3nrNivv3pSrbrYrAAAAAAAAYoPP57OD0gULFjgtI0ONV4xJwrJclb2+Vw3H/PZMX7//uBrerFABoSsAAAAAAACmsJSUlFGHrlcSwSsAAAAAAAAARBnBKwAAAAAAAABEGcErAAAAAAAAAEQZwSsAAAAAAAAARBnBKwAAAAAAAABEGcErAAAAAAAAAEQZwSsAAAAAAAAARBnBKwAAAAAAAABEGcErAAAAAAAAAEQZwSsAAAAAAAAARBnBKwAAAAAAAABEGcErAAAAAAAAAEQZwSsAAAAAAAAARBnBKwAAAAAAAABE2aQOXmdMi1P3Rb+zBQAAAAAAAADDZ7JFkzFeCZM6eF2WfI32nzjnbAEAAAAAAADA8JlscWnSdGdrYk3q4PXBpbNV0djJrFcAAAAAAAAAI2IyRZMt/tNip2GCTerg9f7UWVp5y0z9cMeX2vNJNwEsAAAAAAAAgEGZDNFkiSZTXJ4Ur7v++ryzZ2KNa4EDv8VZHZP/OPKNfv5Rlw61XND5S4SvAAAAAAAAACIzNV1NeQEz0zU8dI2Pj9fMmTM1e/ZszZgxQ3FxgXj01VdftT8Hs3HjRmdteKZE8GqGuXDhgrq6unTu3DldunTJbgMAAAAAAACA4TAh67Rp0+zgddasWbrmmmvGNXid1KUGQpk0evr06fbNMevBmwIAAAAAAAAAgzFZoskUTbZoMkazPt6mxIxX4/Lly7p48aLOnz/fM+vVtAEAAAAAAADAYIKhq5ntakoMhIevV22pgaBg+GrKDphPs03JAQAAAAAAAAADCc52NWGrKS8QacbrVR+8GiZsDS5meIJXAAAAAAAAAAMxwWswfA0u4QheHYStAAAAAAAAAEZqoPdGEbwCAAAAAAAAQJSNR/A6/q/vAgAAAAAAAICrDMErAAAAAAAAAEQZwSsAAAAAAAAARNmUqPH6VnOXdvzhGx1quaDzlygbCwAAAAAAACCyGdPitCz5Gj24dLbuT53ltA7uqny51rPvntH7n51TYfpcrVo4UwnTx/WUAQAAAAAAAExh3Rf92n/inCoaO7Xylpl68u5rnT0Du+permVmuprQ9d8f/JbWfDuB0BUAAAAAAADAoEyGaLJEkymabPE/jnxjJojay0Sa1MGrKS9gZroSuAIAAAAAAAAYCZMpmmzx5x916cKFC7p06ZIuX77s7B1/kzp4NTVdTXkBAAAAAAAAABgpky2ajLGrq0vnzp3TxYsXJyx8ndTBq3mRFrNdAQAAAAAAAIyGyRZNxmhC1+7ubp0/f37CwtdJHbwCAAAAAAAAwFiZMgMmcDUBrCk7YILX8a75SvAKAAAAAAAAIKaZkNWErcEAlhmvAAAAAAAAABAFwfB1Ima7GgSvAAAAAAAAAK4aJnQleAUAAAAAAACAKYjgFQAAAAAAAACijOAVAAAAAAAAAKKM4BUAAAAAAAAAoozgFQAAAAAAAACijOAVAAAAAAAAAKKM4BUAAAAAAAAAoozgFQAAAAAAAACijOAVAAAAAAAAAKKM4BUAAAAAAADAqJw+fVo+n8/ZQiiCVwAAAAAAAACj8t577+mDDz7Q0aNHnRYExTmf48JvcVZH5bayFn1alOxsDU/7V2fU9pevdLar2xzfaR25uLg4zZmVoPk3XK9511/rtAIAAAAAAAAIMoHr4cOH7fUlS5bo9ttvt9eH691339XZs2d19913a86cOU5rdJmMcX9uICeMj4/XjBkzNHv2bM2cOdPOAI1XX33V/hzMxo0bnbXhiang9fPTbeo826UF8+fpumvnKN65caNx2Tr1r8+c1em2ds2dM0s3LZjv7AEAAAAAAAAQNNrw1QSue/bs0YULF+ww9J577hmX8PVKBa8xU2rAzHQ1oevilJuVeN3cMYWuhvm+GceMZ8Y14wMAAAAAAADoywStJnA1TAA73LIDBw4csENX4/z58/rNb35jh7GxImaCV1NewMx0HWvgGs6MZ8Y14wMAAAAAAADob6Thqykx8MUXX9jrK1eutGe6mtA1lsLXmAleTU1XU15gPJhxzfgAAAAAAAAAIhtu+BoauprarrfccovuuuuumAtfYyZ4NeVkoz3bNciMO8ZytQAAAAAAAEDMGyp8NeUFQkPXG2+80V43oWusha8xE7xeVd4vVVxcjmpOOdtXUludChcnK3N7k4YzJ7h1R4517qVqdLYnj2417yhS9uI46/ySVfqB04wrIvCcTJJnHAAAAAAAjMhg4WswTA0NXYPCw1czM3Yqh68Er5OM718z7bep5exodVomue7uYQWuk13HL4vkzq2W1u/S3roSuRKcHRPlVI1yJvPv3tYk7/ZC5aQvsp/P4LIoPVOVB5gNDgAAAAAA+jLh63e+8x173YSvjY2BaXgrVqzQ2rVr+4WuQcHwNSEhQd98843eeeedKRu+ErxOKk3yvnxE+ety5f1ZrXxO66R2s0evHWvR3p+41JtVdqjxlUJlv9DkbE92rarfWanWteWqetIj9735yvqus+sq0PF+pQrvL7eevsh8uwuVceOdynn1oOatKlBFTa32el9T2XNl8qR2qfuS0xEAAAAAAMBigtK6ujp9/PHHTot06tQpe+arCVaHYgLX7u7AVL9Lly7p5MmT9vpUQ/A6iXTv26Wy1kLlP50tz9uV8h5ydkw53fLtq9TbnV3O9mTXIt9h62NJipICDVeVbl+9Kn8Zeeayb0eeMjy7NOupWrU0N+i15zar4MEsuX+Qr80/2ayy1xu0eeX41FYGAAAAAABTTzB0Dc5SveOOO7Ro0SJ7fbAXbgWZ+q+mxIBxww032DNk09LS7O2phuB10uhWw54qaZNb6QuzlLeuSdV7psqM0amuW91TNuQeR6dqVJRbo5StXtVuzVLSdKcdAAAAAAAggmDoaphSAqakgAlNly9fPugLt4JCQ1fz/czMTC1cuNDenooIXieLtjrVPJusovvSrY1Eue/LV9Pzu1Q/kgKqHc3ybtugDPsFUXFalFWoqg861LjNbEd4oVVrvSo35fT0j1ucoZxNlWoMvFguRKNKrf05O3zq+G258pYkW/2DLz4K7gvUJg28FClZeTsl/9N/FxjXWkrft3eH6Ai8zMoey9QK3aDy33Y4+4KssePj7bG7j9ao6P40JVt9k5fkqdK6LsNu/6dAe9zibBXtaB5RzdnAvclQsdl4OsM539B7ZZ3n7lJtcDvHsK4tzb1Bpbv7H8dce3y89d3OZtU8ka1Fpv+26L9GrOO3lfqRcy/iktOUbX6zNmdnKOs8+jwP1j3uc96navR/WPc3OddrbRQrw76+3nNu2lEmb9JmlTyWHlJGYhgGeq4inePFVtW/VNjzHJjftvRtnwaeK209z336Z6vwpUarFQAAAAAAXGkmOA0yM11DDfbCLSM8dDUv35rqCF4nidY9Napalif3ssB24qos5beWyrtnmJFSZ6NK701Tzk/blb21Vnvr96rioWTVPZilzYH/0NBH9/ulynRlquToPOU9t9fuX7s1W9pTqIy/zVPNCadjqP3lyq9LVXlTi/z+Xcq92WkPkbiq2Bprl7assTYeecke1yyebwf2B7SofluOCg+kquDFau2te01ZqlLRqjxVfeJ0CdVcpcLHDyr10QpVW33zbqxX4Yp81fy2Rvn3VWve/2m119fqtXvbVZ7rVtEvhx/Dpa4151ehfLPxSIVzvh6l2nt98q6/U2meKrWvLlaVva9SBd/2qcKTJve2xgghr0/V/1yuroerddzvl/8pE6RHj/nT/9RVJTr+3S2B83l9s1KPlihjSaHqQoNN8zx8/w7lWL998Pct87Srypx3sPbufLe27P21dj3ltjbyVWFfn7WsNVfv00Ez4/qhLGXMtXsPy6DP1ZLw58qnmvUuZT7TrOSNlXbf6q0Z8m3PVN6LkSocW/0fTlXGMz65/rnK7l/1eKqan8lQ6qY6wlcAAAAAAK4wE5gGA9cDBw70CWKNwcLXYN9YCV3HnX+MFm3/b2dtaAf/+L+dtfExvuMf97+WFed3PXfQ2Tba/bWPyq91u6y1MI0lfsnjr/7M2fZ3+Ru2uvxKyvX/2/HLTpvDV+3PTbLGUYm/wWnydzX4S5bJn/RQtXXkMGesfelxYce12qyfU8vK/KFnGBDY56lpcbaNFn/1Wvnjtv7O2e7VUuMxr8D3p29tsM46xLHX/FlWu+v50CNYY8dZ55K02b/3jNNkfFbt95jzUbq/pDF0lIP+Muu69Ght/3s2KOf6rHMKFTjX8GMEHK/J9SfJ5S9rchospn9cnPz53pEd3eZcU9/7GCbY56fH/X1+Zes322Jdd++9CzwPccu2+BtC75vl+E/NNRX4a0NOMXCdIc+HLXBP3K/2e0IGNtRztdK6xyHP1YD394L1O5q+fZ7xYH+rzec0OLr2b/G7wn4LAAAAAABwZXR2dvr/9Kc/+d98801/bW2t/89//rOzp1dzc7O93yxm3TDfi9Q3GkzG+Pnnn9tLS0uL/8svv/R3dXX5L1/uTVj+5V/+ZchlpJjxOhkc8urlt5cpb43LaTASlXFvgfRGlXZFmgXaR5PqX26S6/Ei5aaEvehoYa4KH3HWHd37d6n4kEtFj+cqxWnrMTdd+T/yWMfdpfpA9YBe92Uo9AxHz6PCh8L+fP3bbnnWWFfSGaFQwCM5cofOurw5XVlmRu2afOWuDB3FpYz7rI/GZkWaLzkyPtW+4ZXWFamgzzECUh4sVGFSk8reDq/D65HbleisR5fv7Sp5tVkFa1PU51e2frNs67qbrOu2f7LuBu16ukmrH12v9LDZqimrcqwzrFTT4HWseyTOneWsDW3I5+rHoc+VT/U7B7i/013ybLL69uH8Hj8pkCestEvC32cry/r/QENzq0lrAQAAAADAFTRnzhzdeuut9sxXU/N1ODNfP/roI/t7ZrZrLCF4nQSa9lSraWlvmYGgxDUebVadavYNESOe8ulgq6zvB/5Avp9rnE9HR5sZzy3X7YHtcEkpJl6tV7Ndw7WXZ3G03vmfqpR+dZFnaZbJKw/7AuFhCE9qeIzn9E20PgMNvcy1Hor8hv6RaVXrHusupbsUOUZNUcoqq1dz+PlGurboaG2tt/5ZrsxZTu3UkCVjm7Vrpy8QOLe12p/1/7fb+vWLS8mTqeh60Bd+l8MlWA+C5LWub7iGfq7utP4ZfK6sc9w98P2d1e9FXoHfQ9szNSv8muIyVGrt8n4y/HMFAAAAAADjJzx8fe+993Ts2DFnb0Bo+Prxxx/rww8/tNdjCcHrldZdr13PN8l/qEh3hgdKszJVbnWpf9mr8HmVkSTM6j8zM6qmD3/24+CiNc5kNM7X9vdbVB2sxdpvCdamDcj/f/06Qp/AUrxqqFm5KXL9wPr4ZcOwnr3RShzhI5v+ZHXE67GXtal9ZwIDAAAAAIArxoSv06ZNs9cvX75sh6uRZr4GHT9+vN8Lt6Y6gtcrrHt/nUpb3dry7xGCJLO8WqCkQ2Xata974D+jnp5g/9l+Y8TZid3qOuOsOhLnmxmk9QP+uXmrz0RtOXL1eSHW1SZJSWusu9TYNMBLm3zy7ZdcrhQzMXRCJMx1Sb/tVlK6W+7VkZbUwOzRuYlKtj58CSkR+gQW181DJZ6Jcq/dYj97ZTuGN5N06OfqoPXP4HNlPbPLJO9hX8TZyV2d4Xc90L/xYpIyIlyPvdw+VJgMAAAAAAAmyokTJ+wSAsZNN92krq6ufmUHTJ9Q4S/cmuoIXq+oDtXtKJfW5Gr92ghBklke8ig/qVVVexrUPVDymuSS+14zM7ZKjWfCOh2tUvl2Z92RsCpLW0x90udrAn+aHqqzUVUveZX0aJYyxppjHWvpVzZg6kiR+8Es6Y0yVb7fPxr07ahQRWu68lZHp+rtcLhW58mlclXu9A1eyzQxQ+510r5XXldjp9M2pCNqCfuxElYXqvIhqSY3T4W7hw5fh3yuXgx9rlzK8CRJ2yvl7fvvWOv/FnWqfNqUVQhlPeO51r2O1B8AAAAAAEwqJlA1IauxYsUKLV26NGLN12DwavqE1nyNlfCV4PVK+mSXqt6Q3GvdCn8nVo8Et7I3Jan12RrVtQ0Ut6Uob2uJ0g+V6u++/4gqd9erfl+9vC9tUOamDmX8yOkWZI1ZvLtEKT/LU4Z7Q0//uh2lynFlqNi/Vd7nsgaobTocSUpZkiT9rFwVO6yx366U9wNn1xSSsq5C1Q/5VJyeppxt1v237lH9Pq8qN2YqI7de7ppqbQ6ryztWHc0N9m/Rd2lSq8l+lxWocmu6vA9n6J6NFfIG9++uUvGmbJW/HxjDzFb1PF2t3NPPKMOVo9Iddc44dap5qUh5G719AnFTezVJNSp7scbuU7kzWFwgSZ6X6/XaulZVehYpeUmeirZXBY5rHbN8e7EKH8iwjus8l0M9Vyrp81ylr6tUbpJXeenZKnbO0e67qlrzHgl/uZbkerRSJStN/0xteMnrXJP1nL9hnUdWuRqdfgAAAAAA4MoJD10XLlwY8YVbdXV1dgAbfKlW+Au3YiF8jZng1dREvewfdB7gqJlxzfjR5tvvVZ3cyl0d9pb6MOn3FcmlKtXsGXj+aML/2KL65l0qST2ick+mMnMLVdXsUsmbW+SO8EK4hJVWf1+tihb6VLnJ6u/OVP4zDUr+ca2O7ynu9zb8kUp/rE4v5X6lqlxr7B/XqX2cy8+OjxTl/rRZB1/3SHXFyrbuUaa7SNUX3So/0KzqB/u9u3/M6rfl2L9F36VE9W1mb4LSn6rTEW+hUg4/rxx7X54KX6pTR2qBPN+1hwhYmKt/O/hrVazpVvXj2YFxNpaoqmmesje6+5ZHWLlZdS/mquONPKtfoeo6Qn6suanKf/24WupfU96KVtU9vyFwXM8GFb1ar2bdqZRvOX0tgz9XW/o+Vzd7VH24QRU/kLz2OW5QyR4pb2eV8iO9J25uura8fUS7NqXoyIvOfbKe88q3O5T6I4/1/xEAAAAAAHAlRQpdg8LDV7OYNtPPfBqxFr6O67to/BZndVRuK2vRp0WmWuXQjvlO6cZvJSrxujEmhhF0fN2pL77s0OKUm52WqaXx6Thl/GuJDrZsIZwCAAAAAABA1A0WuoYygevJkyft/qafme0azgSuJng1TBAb+hKu0TAZ4/7cQEwZHx+vGTNmaPbs2Zo5c2bPZMtXX33V/hzMxo0bnbXhiZkZr/NvuF6n29qjPuvVjGfGNeNPTU1q+KX18QOXoj8/c5Lr7FBHxyDLsOufjkF3hOP2WSK9WgoAAAAAAGBqMUGqMVjoapjZrWlpacrKyooYuhqxMvM1ZoLXeddfq7lzZtkzX80M1bEGsOb7ZhwznhnXjD8V+XaUqexQkgruzRhDzdapqfGFeZo3b5DlhfGvCtq6Oz/ysYNLWL1VAAAAAACAqcgEriZMHSx0HYlYCF9jptRAUPtXZ9T2l690tqvbHN9pHTkzzXjOrAR7putUCF1bdxequDFF6ekupZiEtbtVTburVPav9Ur5Ua28L2b1resJAAAAAAAATHKhZQfWrl1rf47UlSo1EHPB69Wq+1CNil+sUsP+ejV+YlpSlL42S3nrNivv3pSrbrYrAAAAAAAAYoPP57OD0gULFjgtI0ONV4xJwrJclb2+Vw3H/PZMX7//uBrerFABoSsAAAAAAACmsJSUlFGHrlcSwSsAAAAAAAAARBnBKwAAAAAAAABEGcErAAAAAAAAAEQZwSsAAAAAAAAARBnBKwAAAAAAAABEGcErAAAAAAAAAEQZwSsAAAAAAAAARBnBKwAAAAAAAABEGcErAAAAAAAAAEQZwSsAAAAAAACAq9q1117rrEU21P5ICF4BAAAAAAAAXNVuu+02Zy2yofZHQvAKAAAAAAAA4Kr2ve99T8nJyc5WX6bd7B8pglcAAAAAAAAAV7377rtPy5Yt6ykrYD7NtmkfjTjnc1z4Lc7qqNxW1qJPiyInzQAAAAAAAAAwFJMx7s8NxJTx8fGaMWOGZs+erZkzZyoubvzi0Uk943XGtDh1XxxTdgsAAAAAAADgKmWyRZMxXgmTOnhdlnyN9p8452wBAAAAAAAAwPCZbHFp0nRna2JN6uD1waWzVdHYyaxXAAAAAAAAACNiMkWTLf7TYqdhgk3q4PX+1FlaectM/XDHl9rzSTcBLAAAAAAAAIBBmQzRZIkmU1yeFK+7/vq8s2diTeqXawX9x5Fv9POPunSo5YLOXyJ8BQAAAAAAABCZqelqyguYma7hoat5uZZ5qZZ5uZZ5ydZ4vlxrSgSvZpgLFy6oq6tL586d06VLl+w2AAAAAAAAABgOE7JOmzbNDl5nzZqla665ZlyD10ldaiCUSaOnT59u3xyzPp43BQAAAAAAAEDsMFmiyRRNtmgyRrM+3qbEjFfj8uXLunjxos6fP98z69W0AQAAAAAAAMBggqGrme1qSgxMRPg6ZYJXIxi+mrID5tNsU3IAAAAAAAAAwECCs11N2GrKCzDjdQAmbA0uZniCVwAAAAAAAAADMcFrMHwNLhNhygWvBmErAAAAAAAAgJGayPdGTcngFQAAAAAAAAAms4mZVwsAAAAAAAAAVxGCVwAAAAAAAACIMoJXAAAAAAAAAIiyKVHj9a3mLu34wzc61HJB5y9RNhYAAAAAAABAZDOmxWlZ8jV6cOls3Z86y2mdeJM+eH323TN6/7NzKkyfq1ULZyph+sS9eQwAAAAAAADA1NJ90a/9J86porFTK2+ZqSfvvtbZM7EmdfBqZrpWfXBW//7gtwhcAQAAAAAAAAybCWB/uONLrV/eO/M1Lm7iMsZJXePVlBcwM10JXQEAAAAAAACMhMkUTbb484+6dOHCBV26dEmXL1929o6/SR28mpquprwAAAAAAAAAAIyUyRZNxtjV1aVz587p4sWLExa+Turg1bxIi9muAAAAAAAAAEbDZIsmYzSha3d3t86fPz9h4eukDl4BAAAAAAAAYKxMmQETuJoA1pQdMMHrGF9PNSSCVwAAAAAAAAAxzYSsJmwNBrDMeAUAAAAAAACAKAiGrxMx29UgeAUAAAAAAABw1TChK8ErAAAAAAAAAExBBK8AAAAAAAAAEGUErwAAAAAAAAAQZQSvAAAAAAAAABBlBK8AAAAAAAAAEGUEr1eZ1h05iovLUc0pp8HS9FKmkhdvkDekDQAAAAAAAMDoEbxe9brt/wEAAAAAAACIHoLXq16CXD/Zq5Zjr8lzs9MEAAAAAAAAYEwIXgEAAAAAAAAgygheAQAAAAAAAIzK6dOn5fP5nC2EInidJFr3VarwgQwtiotTnLUsSt+g8vc7nL0BHX/0qnR9ptKSA32Sl2RqwzavmjudDqEutqr+pUJlL0l2+uap9G2fupzdoQIv3CpVo7NttajmAesY26yWjmbVPJHtHHORMtZXqqnvaQVEOl7dcfkivMxrWDqb5d22QRmLe+9H6e7mkHK0TSpPt/ZlVem432mytcr7sHUO6eVWD4d1DWasTOfc4hZnaMP2RvW9jJBrbmtU+Xrnt1icraLdzr88QtuT05TXbwwAAAAAAICry3vvvacPPvhAR48edVoQFHPBa/tXZ3TMd0qHjnyipj8dG/Vivm/GMeONr241bsvQX7tL1JyYp7L6vdprLWW5CWpp6Y0ZfTs3aPnf5qiq063i1wN9KjemyPdyjtLWlKqxT/jqU816lzKfaVbyxkq7b/XWDPm2ZyrvxRH8F4gv6lXqKdTB1AJV1OxV7etZ0huFujM3POwc4Hhl94zseEGdjSpdk6acOin3Oed+eNpV5UmT+4VgnOpSwUslSn+7WM//st1ps+7mnjIV/CxFZa9stnoYrarZmKbCfZJna7U91q7181T7RIaynm3q/14xc80Pl0n3lei1+l0qczWr3JOj0ret9vs2y7eq2Gq3xvhxiurNGD3nAwAAAAAAcPVZsmSJ/Xn48OFRha/vvvuuamtrdfbsWacFw+Ifo0Xb/9tZG55TrV/4j376X/72r874L12+7LSOjvm+GceMZ8YdL+1vFfiTlOTPrf7UaYngs2q/x7qd6f/rd/4up6mHr9qfmyS/67mDToPf31Lj8Uvp/pLGsN4XDvrLVsra5/FXf+a0WQL9S/wNzrbV4q9ea/r1H+P4q1lWu8u//WDv/R3weGca/CURjje4Ln/DVpdfy7b4G844TY7jPzXHKfDXtjsNdt90f9wy69zNobus4y2z7tPzvffCXEvt63v9PV+xdflrf2TOyzqG09J7zVn+1445TYYzpvr9Ru3+Xeus9mVl/tCjAQAAAAAAXG2am5v9b775pr2Y9eHq7Oz079692/7eL37xC3t7PJiM8fPPP7eXlpYW/5dffunv6uryXx5jfjiUmJnxamamdp7t0uKUm5V43VzFx8U5e0bHfN+MY8Yz447PzNdW1f2sUq3rKlXx4CKnrT/f21XyKl+bH01XgtPWY2GuCjclqen5OudP632q3+mV1hWpYGVY7+kueTZ5nI1h+EGhcsPGSFnhlss6UkfPDNtW1e8e4Hhz05U7kuMZ3Q3a9XST3JvylT7XaXOkrMqRR5Vq6vmPJwlKf6xcW+KeUsnPmtX0ymYVJ5Sp8rHAXNeAJGWtcyvR2QpI0J3p5rya5QsvgfCDPLm/7awbCS6lrzEreVr/gxS7KSBRrtXWGId8aqHeAAAAAAAAuIrdfvvto5r5euDAAV24cMFeP3/+vH7zm9/E1MzXmAle2/7ylRbMnzfmwDWcGc+Ma8aPPp98OyV3ukuJg5x2a2u9tCZdrvmRO6V8O8PqdES+VrPVKt9uZ0x7b1+zpjsrw+FKUWjUaJufbLc1f2YfzBJyDU5LqEjHa9wWF6i1GrqY2qpGm3X+1kf9xkX9+6TkyWvtOxi40IC56dry/9ysg0+7lfW4QkoMhLjYoeZ9NarcXqzCBzKV6U6TK9eMFEG/a07QrGvN5zzNSuh7/wPX1hISQgMAAAAAAFydRhq+mhIDX3zxhb2+cuVKzZkzxw5dYyl8jZng9WxXt667do6zFV1mXDP+eEnsN4117MZjzMGM5Hjpj7WrvT1seSzd2RuQ/2KgtmukpXhVWMQ7L1Epra1qVbKSw9PfE15tSJ2ntI0VavpinlLuLdCWpypU9dwIZ+ICAAAAAABgUMMNX0ND17vvvlu33HKL7rrrrpgLX2MmePX7/VGf7RpkxjXjR1+CEpZJ3sZmdQwyfFKSW9rTqKa2yJ18nzRIy+5USpLZcsY87Ov/4ihLV2e0/y4+wfw1/8iONzdRiYlhS7CsgLUv2frwJaTIvdodcXHdHJLydjaq/MdPSc/v1a5HG5T3RI09Yzao8WcFqpq7Rb87+Du99txmbV7nscdIte8VAAAAAAAAommo8NWUFwgNXW+88UZ73YSusRa+xkzwOjWZmqtZ0islqny/y2nrL2V1rrJUpfJXGvuHmydqVPFyq9IfNrVXDZcyPEnS9kp5T9gNvTrqVPl0vbMRLalKXxfF4yVmyL1Oqn+5So1D/gl/txpf2Kyn/NtU+ahbnifK5dmZp6KfBaPXVrUca7VuYJqS5oaG8j7V7xig1AAAAAAAAADGZLDwNRimhoauQeHhq5kZO5XDV4LXKyzlkQpVP+TT0xl3KGdbjer21at+X51qtheqaLdTy/Tb+aqoydWJ/+vvlPZAqWreNn3q5X1pgzLT81S/plrVIS+USl9Xqdwkr/LSs1W8o87uW7ejVDmrqjXvkWj/iX2C3JuiebxEeZ6uVm5rqTJcOSqpCYxn35OXipS30atghdfu35ao4Olu/fNzj8tlJsEuzFXZq1nyPlykGjsETpJrdZa0e7N+tKU6cG/frlKRe4OaFlJqAAAAAAAAYLyY8PU73/mOvW7C18bGwPt9VqxYobVr1/YLXYOC4WtCQoK++eYbvfPOO1M2fCV4veJSlPt6k379YpZUV6xsd6Yyc4tU1Zws95LegqUpD1bryO9fk0e1Ks4yL4jKVFGN5H7+oJp/mtv3hVA3e1R9uEEVP5C8j2dbfTeoZI+Ut7NK+alOn2iK9vEW5qq6aa8q1nSrZrMZz7rejSWqapqn7I1uU9lA6qxX8dpStfykTFv+fpb9NSPloRKVrPT2lBxIWVethuey1bHzf9r3dsNLTUp9bpc2rwr0BwAAAAAAQHSZoLSurk4ff/yx0yKdOnXKnvlqgtWhmMC1uzvwd9+XLl3SyZMn7fWpZnyKojr8YyyMeltZiz4tMhU/h9b0p2Ny3bHY2Yq+8R4/Vvl+lqNFDydoV0u1TAUEAAAAAAAAxK5g6Bp0xx13qKurS8ePH7e3TQkCMxt2IKb+qykxYNxwww267bbbtHDhQnt7tEzGuD83EFPGx8drxowZmj17tmbOnKm4cXpnlMGMV4yjDjXt84a8+AsAAAAAAACxKjR0NaUETEmBtLQ0LV++fNAXbgWFhq7m+5mZmWMOXa8kgleMm+73K1X2hkJe/AUAAAAAAIBYZYLTIDPTNdRgL9wywkNX8/KtqY7gFWP3QbmyNxWr0nmxVv0+r6qeyFFaerF891Wo8lFiVwAAAAAAgFhnAtNg4HrgwIE+QawxWPga7BsroatB8IqxS3LJrWZ5n8kPvAjLXaDyD+Ypv6ZBTd4CuRKcfgAAAAAAAIhZ5sVZt956qx2+mrIDIwlfzfdM4BoroatB8Iqxu9mtzS/v0t7DLeaFatbSoiP1r2nLg+lKmu70AQAAAAAAQMwbTfj60Ucf2d8zs11jCcErAAAAAAAAgKgJD1/fe+89HTt2zNkbEBq+fvzxx/rwww/t9VhC8AoAAAAAAAAgqkz4Om3aNHv98uXLdrgaaeZr0PHjx/u9cGuqI3gFAAAAAAAAEFUnTpywSwgYN910k7q6uvqVHTB9QoW/cGuqI3gFAAAAAAAAEDUmUDUhq7FixQotXbo0Ys3XYPBq+kR64dZUR/AKAAAAAAAAICrCQ9eFCxdGfOFWXV2dHcAGX6oV/sKtWAhfYyZ4jYuL02W/39mKLjOuGX9ya9Ovql5RzWFnEwAAAAAAAJhAkULXoPDw1SymzfQzn0asha/jmib6Lc7qqNxW1qJPi5KdrcEd853Sjd9KVOJ1c52W6On4ulNffNmhxSk3Oy3j4PBbevbYPC1v/6M+/Nppi+DWex5VbuD5C9OsmhcOan5unr6/wGkalOn/rk46W0NJXLZWj66e72wN7vS+ann1D05/EwjvVNv3Bjrvvv7gfUUN83qPFb7dh7lnv/7c2Qi6SVmP3a+lp/frlZo/qsNpDbhOy4d9fwAAAAAAADBcg4WuoUzgevLkSbu/6Wdmu4YzgasJXg0TxIa+hGs0TMa4PzcQU8bHx2vGjBmaPXu2Zs6cOa6TLWMmeG3/6oz+7ISj8VG8YWa2qwl1/+pbiZp3/bVOa/SZgPFPi9dq/u8HCinDA8yRBacBTihpr0cKaiOHpBHDTyfYvD5CEDzq4NUes10ZPedosdv+S7dFCkxN8Pr7eVqfv0qBXeaajumOYPD6n5Knzz7nejXwuQMAAAAAAGDk3n33Xbt0wGCh60hEM3wleI1gJMGr8fnpNnWe7dKC+fN03bVzxhTAmsD16zNndbqtXXPnzNJNCyLMuIyWnsAxQ6cHDCkHCzBHNqs0YCzBa99+Jmh9/VDfabq9M2QDffvN4r31bj3pSXU2jEC/Txf1n91qj3/8b0ICVsdYZrz2C20BAAAAAAAwWmYmqxEsGxAN0QpfCV4jGGnwapiZr21/+Upnu7rN8Z3WkTM3fc6sBM2/4fpxnelq9M4Q1SAB6sDhajCYzFr0X6oLC0B7hc52NUY2Y7ZPqYF+s0n7Gs2M1wHDVdsAoexoZ7zaDcM7LwAAAAAAAFw5oeHr2rVr7c+RIniNYDTB69TjBKD2DNAb7TBwRDVe7ZmdA/wpvi0w/lf9arSGB5FG5DAyfMZr32C1vxEHr/bM1TODz0Z1ZrAq9DrGMuPVYoe97XeGzbwFAAAAAADAZOLz+eygdMGCiOHXkAheI7gaglc71Gy/Th3z+geAg88CNQYKVYNCQ93wcHG0wWv/PvZ5jrDUQE+AHCE4jlhT1nDC1J7arCMqFxDhekf0fQAAAAAAAExFBK8RxHzwaoLE/5QyTImA9juVpXdVN+Tf/gdnbTqhqtXSpwxAj8FCV2Mswes70j+Gfq+v4c94jTBWhCC2D3u/8wKukOC01TrHge5d4P580f96Q8dymgAAAAAAABBbCF4jiPXg9VdV1XbouPRIpD957w1W+5UXsATD0Iz2nfanR+/0m3UaSe9YveMPR2+4GymwDRH65/8h5RMGLTUQItKf/w9YEiB8xmqfbXOeTr1Xu3OE8yZ4BQAAAAAAiHlXKniNdz5xBXw/f4Dw0p4J+q50603W8l3N/321fnXa2eVY6nm0zyzXBavz9ORjj4Ysd+tWe3ZsaFtI+Hm6TV/Z9VBD96/V8usC4Wzod7Judb5ju1HzrT69zLm+omdfcJbfz9Nyq789RkhQevLXIX3MUrVfYZdkadbeQ1/r1sV9A9YFq+/UrSffVU2gjjIAAAAAAAAw6RG8Tjohf5q/2GzP1/fz71RbzSvRDR7/3K6O6+Ypydkcma/V9mdn1T6/kKA2f77aTl6n+X/l7HaEh7lPRqirenrfQZ287rvK7DczNlWZy67Tyd9HCmstZuaqCXPNTNuv/6jX7XDXzOb9XHX2+lv6g9O1jzHdAwAAAAAAAGBgBK+TiR0gRvqz/FTlPrZW83//ip71NjttY/OHY58rcVHqKF4qNV9LF12nr9ranO2+7PD01jsHmMk7GGe26/civ+jKnvX69R+1N1L4vGCVHn3sUa1fZqbr3u2Eu2bGb3BGb+RSAqfbzkjz5o/iHgAAAAAAAACDI3idLE6+q2fteqMD1UINzCxdP+/gAH+mPwKn96vh5E3K6PdCruFZkPY30vHmfudg12I9dK2yIr7Ma3CBwPbuvtduarYGSxM49WgHnPVqB7fS8r8b7rHb9Ifj/csaAAAAAAAAANFA8DpZ2DM1h37Jk13LNcKf6fcI/tm9HVReqwUROv7hd3+UlmUMcaze2q11J6Xr54eEtAtSdZv6zj41L/uyX4A1whdVmbDWHMN+MZgJn3uCVms5ttiZvRpc7h5g1qtTE/eeSDVzzUu1ItyPww36UJHKGgAAAAAAAABjN36v7bL4Lc7qqJg3jn1alOxsYVIxAW/NH3X9PQPN0J3EpvK5AwAAAAAAYERMxrg/NxBTxsfHa8aMGZo9e7ZmzpypuLjxi0cJXgEAAAAAAADErCsVvFJqAAAAAAAAAACijOAVAAAAAAAAAKKM4BUAAAAAAAAAoozgFQAAAAAAAACijOAVAAAAAAAAAKJsUgevM6bFqfti4I1jAAAAAAAAADASJls0GeOVMKmD12XJ12j/iXPOFgAAAAAAAAAMn8kWlyZNd7Ym1qQOXh9cOlsVjZ3MegUAAAAAAAAwIiZTNNniPy12GibYpA5e70+dpZW3zNQPd3ypPZ90E8ACAAAAAAAAGJTJEE2WaDLF5Unxuuuvzzt7Jta4FjjwW5zVMfmPI9/o5x916VDLBZ2/RPgKAAAAAAAAIDJT09WUFzAzXcND1/j4eM2cOVOzZ8/WjBkzFBc3fvHolAhezTAXLlxQV1eXzp07p0uXLtltAAAAAAAAADAcJmSdNm2aHbzOmjVL11xzzbgGr5O61EAok0ZPnz7dvjlmfTxvCgAAAAAAAIDYYbJEkymabNFkjGZ9vE2JGa/G5cuXdfHiRZ0/f75n1qtpAwAAAAAAAIDBBENXM9vVlBiYiPB1ygSvRjB8NWUHzKfZpuQAAAAAAAAAgIEEZ7uasNWUF2DG6wBM2BpczPAErwAAAAAAAAAGYoLXYPgaXCbClAteDcJWAAAAAAAAACM1ke+NmpLBKwAAAAAAAABMZhMzrxYAAAAAAAAAriIErwAAAAAAAAAQZQSvAAAAAAAAABBlU6LG61vNXdrxh290qOWCzl+ibCwAAAAAAACAyGZMi9Oy5Gv04NLZuj91ltM68SZ98Prsu2f0/mfnVJg+V6sWzlTC9Il78xgAAAAAAACAqaX7ol/7T5xTRWOnVt4yU0/efa2zZ2JN6uDVzHSt+uCs/v3BbxG4AgAAAAAAABg2E8D+cMeXWr+8d+ZrXNzEZYyTusarKS9gZroSugIAAAAAAAAYCZMpmmzx5x916cKFC7p06ZIuX77s7B1/kzp4NTVdTXkBAAAAAAAAABgpky2ajLGrq0vnzp3TxYsXJyx8ndTBq3mRFrNdAQAAAAAAAIyGyRZNxmhC1+7ubp0/f37CwtdJHbwCAAAAAAAAwFiZMgMmcDUBrCk7YILXMb6eakgErwAAAAAAAABimglZTdgaDGCZ8QoAAAAAAAAAURAMXyditqtB8AoAAAAAAADgqmFCV4JXAAAAAAAAAJiCCF4BAAAAAAAAIMoIXgEAAAAAAAAgygheAQAAAAAAACDKCF4BAAAAAAAAIMoIXhFTWnfkKC4uRzWnnIZhCHynVI3OttSkSneyFq33qtVpiabGbfFhxwMAAAAAAECsIXgFwnXb/wMAAAAAAABGjeAVCJfg0ub6Fh1/3aMkpwkAAAAAAAAYCYJXAAAAAAAAAIgyglcAAAAAAAAAo3L69Gn5fD5nC6EIXieJ1n2VKnwgQ4vi4hRnLYvSN6j8/Q5nb0DHH70qXZ+ptORAn+QlmdqwzavmTqdD0PulzgumutW8o0jZS5Kt7WSl5VaqyR4ytN06VlaRao6GVzVtVKm1L2dHq7qP1qjo/jQl28fMU+UHgfMKbY9bnK2iHc39a6NebFX9S4XKSV9kHysuOU3ZT9SEnXOrah6w9m1rtC6yWTVPZDvXuEgZ64PnHMYZN3gN5rxK3/apy9k9NiHn08O6H/Hx9v1Qa73K1zu/lX09XvkuOt1CWdfi3bZBGYvNtZj7XKgq595F0n3U/L7BZ8Bce6m8ob/LoXJlWPuy/9Unv9NkO+VVnnW/Ml5ochoAAAAAAAAmxnvvvacPPvhAR48edVoQFHPBa/tXZ3TMd0qHjnyipj8dG/Vivm/GMeONr241bsvQX7tL1JyYp7L6vdprLWW5CWpp6Q3dfDs3aPnf5qiq063i1wN9KjemyPdyjtLWlKoxPHy1HHmjUEUHUlXwYrVqX89T8r5C3bmxRo078pW9Y57yrfa9da8pq71ceauLVNfmfDFUc5UKHz+o1EcrVG31zbuxXoUr8lW9v0b591Vr3jqrvb5Wr93brvJct4p+2TdYbHw2WZkvtujOH1fY51z7jFvt2/Pk3uRVq9Onxxf1KvUU6mBqgSpqrL6vZ0n/H+ucc6vU97+b+FSz3qXMZ5qVvLHSHrd6a4Z82zOV9+I4/xcW637kramU7ivRa9Zxd/04RQe35yjj6fq+oXNno0rvTVPOT9uVvbXWPseKh5JV92CWNtf1iU1t3e+Xyp2ao1oFn4Ey5XRWKSfVrfJDTqdlBap8Jl11T5er7ovgGN2qf7FANQvLVPmYy2kDAAAAAACYGEuWLLE/Dx8+PKrw9d1331Vtba3Onj3rtGBY/GO0aPt/O2vDc6r1C//RT//L3/7VGf+ly5ed1tEx3zfjmPHMuOOl/a0Cf5KS/LnVnzotEXxW7fdYtzP9f/3O3+U09fBV+3OT5Hc9d9BpsDSWmFTOn/STvX36t9R47HatLPE3nHEajaYyv8tqL3ir3WkwGvwlpm/SZv/e0L7OuUjp/pLG0NEP+suWWe2P1vpDRzn45mv+I6Hftxx52W193+Ov9jkN/hZ/9dpIY/r9x1/Nttpd/rImp8ESuI7+ff0XrHNYacaxxv7MaRuGwHjWPXG2e85na2+LfT/i4qz7kRty3kaXf+9PkqzvF/hrey68y9+w1RWhr6Vll78w2Ron9Hhd1tjWvXM91RD2+x4PnEfoPT1j9bWu0bU18Cx0Wb+1y7oXofcHAAAAAABgIjU3N/vffPNNezHrw9XZ2enfvXu3/b1f/OIX9vZ4MBnj559/bi8tLS3+L7/80t/V1eW/PMb8cCgxM+PVzEztPNulxSk3K/G6uYqPi3P2jI75vhnHjGfGHZ+Zr62q+1mlWtdVquLBRU5bf763q+RVvjY/mq4Ep63HwlwVbkpS0/N1Cv9D8/z73X36J63Iktv6dK/PVfrcQJttWYayrI+GTyLMFn0kR+7QvjenK2uNFLdmvXJXho7uUsZ91kdjc5/Zqa61+UoN/b4l1WXOwitf+JTXHxSGjSmlrFhtjdyk9p4ZvT7V7/RK64pUENZX013ybPI4G+PkEescFzrrtgTduSrH+mxRR89k3ybVPt0k1+NFYX0tSR7lPuKsO7r371LxIbcKHg7/fVOUfp91Pa80qdlp0dx0bd6+RXH/j1JVH21S5WPFSni+UpuXOfsBAAAAAAAm2O233z6qma8HDhzQhQsX7PXz58/rN7/5TUzNfI2Z4LXtL19pwfx5Yw5cw5nxzLhm/OjzybdTcqe7lDjIabe21ktr0uWaH7lTyrczrE5HwoJMj9LCQ7+EWUq0PhLnzgpshzAtTZ39KrTKk5rirAXN0ix7EOsz0NDrGms51B1W57VbrYe8qtperqL1mcr8foYWpRc7+8K4UhR+NM1PttuaPwteXKt8u5175rSEmjXdWQnRuC3O/h3tGrPBpU/91uHrfz+sW3FjsvXPkCD5lM8OSt3LUgPb4cLOsaPNRNX12uDUgg1dFj3stfYdlO+U3dWW8PfF2v6TJhWvzlKRKDEAAAAAAACuvJGGr6bEwBdffGGvr1y5UnPmzLFD11gKX2MmeD3b1a3rrp3jbEWXGdeMP14SwyZuxgxT59SdouR7i+X1tSvZla/NT5ao+vUCp8PojeSepT/Wrr+0t6s9dHks3dk7fhJmjeSHzVeFXds10lIs93ynm2NeYopaW1ulW5IjBtAAAAAAAAATbbjha2joevfdd+uWW27RXXfdFXPha8wEr36/P+qzXYPMuGb86EtQwjLJ29isjkGGT0pyS3sa1dQWuZPvkwZp2Z1KSXIaJonWX5areF+GqhuPqPblEm3+Ua6yVruVvngsUaFzzw77wmbWBnR19n25l21uohITw5aw8gdRZR3PzIFtbI70oq9u6xydVUfCXNPbp4Rb3HJb96f/4lJSSIbb/X65Crf4VfarXSrYn6ein43zC8UAAAAAAACGaajw1ZQXCA1db7zxRnvdhK6xFr7GTPA6NZmapFnSKyWqfL/LaesvZXWuslSl8lca+4eNJ2pU8XKr0h92W6NNLi0nGqx/piqlT8mDbtW/VeWsj4ZLGZ4kaXulvCecpqCOOlU+Xe9sXEGJdypjrVT/cpUaw0JWHa3S89uddUdiulv5qlflTyP8vuE6G1X+WLH8pRUqWOPR5uc88j5cpJrwewEAAAAAAHCFDBa+BsPU0NA1KDx8NTNjp3L4SvB6haU8UqHqh3x6OuMO5WyrUd2+etXvq1PN9kIV7XaKhn47XxU1uTrxf/2d0h4oVc3bpk+9vC9tUGZ6nurXVKt6Etb5TF2ZrySVavP6Snnt6/Kq/IE75e3MdnqMTvq6SuUmeZWXnq3iHXX2vajbUaqcVdWa98g4v1xrWJLkeaJE6YdKlbFmgyp3h/xemzqUXhg2c3m+R1us37dlW0af37f+7RpVPpGnDTuDxWO71fhcgYq7t6is0GW/iCvloTK9dq91L56o6fNSMwAAAAAAgCvJhK/f+c537HUTvjY2Bt63s2LFCq1du7Zf6BoUDF8TEhL0zTff6J133pmy4SvB6xWXotzXm/TrF7OkumJluzOVmVukquZkuZf0/kl+yoPVOvL71+RRrYqzrD5Wv6Iayf38QTX/NLf/S6kmgYTVW1Rfs1nzDpQoxzrfvB/vUve6WlU8PMazvdmj6sMNqviB5H0827oXG1SyR8rbWaX8Ad5nNdES/od17c27VJJ6ROUe85sWWr+pSyVvbpH7xv4lMczv21Rfoazuam12ft8NW6vUdG22ClYHakh07ymWZ1uLNj9XrPRrg2OkKG9ridJ3UnIAAAAAAABMDiYoraur08cff+y0SKdOnbJnvppgdSgmcO3uDvxd8KVLl3Ty5El7faoZn6KoDv8YC6PeVtaiT4tM/cuhNf3pmFx3LHa2om+8xwcAAAAAAACmumDoGnTHHXeoq6tLx48ft7dNCQIzG3Ygpv6rKTFg3HDDDbrtttu0cGGfOpYjZjLG/bmBmDI+Pl4zZszQ7NmzNXPmTMWN0zujDGa8AgAAAAAAABiz0NDVlBIwJQXS0tK0fPnyQV+4FRQauprvZ2Zmjjl0vZIIXgEAAAAAAACMmQlOg8xM11CDvXDLCA9dzcu3pjqCVwAAAAAAAABjZgLTYOB64MCBPkGsMVj4GuwbK6GrQfAKAAAAAAAAYMzMi7NuvfVWO3w1ZQdGEr6a75nANVZCV4PgFQAAAAAAAEBUjCZ8/eijj+zvmdmusYTgFQAAAAAAAEDUhIev7733no4dO+bsDQgNXz/++GN9+OGH9nosIXgFAAAAAAAAEFUmfJ02bZq9fvnyZTtcjTTzNej48eP9Xrg11RG8AgAAAAAAAIiqEydO2CUEjJtuukldXV39yg6YPqHCX7g11RG8AgAAAAAAAIgaE6iakNVYsWKFli5dGrHmazB4NX0ivXBrqiN4BQAAAAAAABAV4aHrwoULI75wq66uzg5ggy/VCn/hViyErzETvMbFxemy3+9sRZcZ14wf807v1ysvvKU/OJsAAAAAAADAcEUKXYPCw1ezmDbTz3wasRa+jmua6Lc4q6NyW1mLPi1KdrYGd8x3Sjd+K1GJ1811WqKn4+tOffFlhxan3Oy0REubflW1Ux9+7Ww6Epet1aOr5+sP3ldUd9JpDLr1bj3pSbVXI+533HrPo8q1n1NzjHekf8zT9xfYuwZmgteadmU8dr+WOk39NavmhYOanxscz9qualNm/ir1G94e74/q0E3KGnRMAAAAAAAATGWDha6hTOB68uRJu7/pZ2a7hjOBqwleDRPEhr6EazRMxrg/NxBTxsfHa8aMGZo9e7Zmzpw5rpMtY2bG6/wbrtfptvaoz3o145lxzfjjxYSkTz4WWNYvu85pDRhs31JP7z57yf2uEnWdlt/zXX31azNz1YSkO9X2vWGEriNmAtf9Ou1s9Wzbs2Zf0bNmsUNcc26ErgAAAAAAALHMBKnGYKGrYWa3pqWlKSsrK2LoasTKzNeYmfFqfH66TZ1nu7Rg/jxdd+0cxY8hsTaB69dnztqh69w5s3TTgvnOnmgay4zXwHc/XRToG5iJ+q7kzHQ9va9arx+SlgdnpobNZh1stmwkwXMKnfG64HfVOv13d6rtP9uU+b12edsy9Gha8zBmzQIAAAAAACCWmJmsRrBsQDREa+brlZrxGlPBq9H+1Rm1/eUrne3qNsd3WkfO3PQ5sxLsma7zrr/WaY22QHja9r1gWYBAYOrVP/QEr39a3Hff6+139pQaCA9ue8PRALv/8b/R+n+UvDV/1PU95QcCwWvo2LYBSg2EnlNo8Bqx1MCwyhUAAAAAAAAAQwsNX9euXWt/jhTBawSjCV6nlrHMeHUcfkvP/vrzfqFrUL+Zr44xB6/3/I0+/bWp3xriuu86IS/BKwAAAAAAAKLD5/PZQemCBaOrpUnwGsHVEryGzngdTN8Zr05oO+9uPbn4mB2+DuTWZd/VV4f+KIWEs1Gb8eoEvz0v87LHCAtkLQMFwwAAAAAAAMB4ulLBa8y8XGvKM4Fl8KVU/Rbzoqy+/uAN1He1Q9gl9+vJx+7WrebFWrnOi7buuSkwA9Vaz129So8+tla3Hd+pZ73NzgjR0KwaE/heZx3r99X6Vc+btm5SVvBlX845ELoCAAAAAADgakLwOlksCISjy6+TPXvUhKfrl11nzxR9MsKf7S/1jDTMnK/v51vjhpQpOPnrsIDXnqn6uepC26zl9UNhtRAcf/Cal3mZwHeeMvPNS7b2qyd7BQAAAAAAAK5iBK9TmCkX0BuQvquT+lof1jjbZibq13/U6z37X9Er+9qcbwYEA96excxQDc5WDVlMAByu7XfVapi3NqRUQapyzQu2/tyujuvmKclpBQAAAAAAAK5G1Hi9onprvN5xLMKLtEKYma8evRNS4zWMXWtVygrOjjXbv5+n9SYMtTsMwwA1XvsKq/FqtqvalOkcp08dWjPef0qekZwDAAAAAAAAEEXUeL3KmdIB4XVae0sNDFVWoE2/+v3nVt+MIQLT/rVix86Z6epstbZ/rcR5NzpbAAAAAAAAwNWJ4HUSOb3voE7eeqczk3SYzMzWF3bqw3l3Dx7Onm7TV87q2IWUNAgtZeB9Sw0nb1IGL9ICAAAAAADAVY7gdbI4/JZeP/43Wh+hjID5830TbJqXXPXOJjVlCl5xygs82r/8wF/NU2JojVfz4qxbFw8yI3Ykemflhi4Z+lwadNYtAAAAAAAAcHWgxisAAAAAAACAmEWNVwAAAAAAAACIEQSvAAAAAAAAABBlBK8AAAAAAAAAEGUErwAAAAAAAAAQZQSvAAAAAAAAABBlBK8AAAAAAAAAEGWTOnidMS1O3Rf9zhYAAAAAAAAADJ/JFk3GeCVM6uB1WfI12n/inLMFAAAAAAAAAMNnssWlSdOdrYk1qYPXB5fOVkVjJ7NeAQAAAAAAAIyIyRRNtvhPi52GCTapg9f7U2dp5S0z9cMdX2rPJ90EsAAAAAAAAAAGZTJEkyWaTHF5Urzu+uvzzp6JNa4FDvwWZ3VM/uPIN/r5R1061HJB5y8RvgIAAAAAAACIzNR0NeUFzEzX8NA1Pj5eM2fO1OzZszVjxgzFxY1fPDolglczzIULF9TV1aVz587p0qVLdhsAAAAAAAAADIcJWadNm2YHr7NmzdI111wzrsHrpC41EMqk0dOnT7dvjlkfz5sCAAAAAAAAIHaYLNFkiiZbNBmjWR9vU2LGq3H58mVdvHhR58+f75n1atoAAAAAAAAAYDDB0NXMdjUlBiYifJ0ywasRDF9N2QHzabYpOQAAAAAAAABgIMHZriZsNeUFmPE6ABO2BhczPMErAAAAAAAAgIGY4DUYvgaXiTDlgleDsBUAAAAAAADASE3ke6OmZPAKAAAAAAAAAJPZxMyrBQAAAAAAAICrCMErAAAAAAAAAEQZwSsAAAAAAAAARNmUqPH6VnOXdvzhGx1quaDzlygbCwAAAAAAACCyGdPitCz5Gj24dLbuT53ltE68SR+8PvvuGb3/2TkVps/VqoUzlTB94t48BgAAAAAAAGBq6b7o1/4T51TR2KmVt8zUk3df6+yZWJM6eDUzXas+OKt/f/BbBK4AAAAAAAAAhs0EsD/c8aXWL++d+RoXN3EZ46Su8WrKC5iZroSuAAAAAAAAAEbCZIomW/z5R126cOGCLl26pMuXLzt7x9+kDl5NTVdTXgAAAAAAAAAARspkiyZj7Orq0rlz53Tx4sUJC18ndfBqXqTFbFcAAAAAAAAAo2GyRZMxmtC1u7tb58+fn7DwdVIHrwAAAAAAAAAwVqbMgAlcTQBryg6Y4HWMr6caEsErAAAAAAAAgJhmQlYTtgYDWGa8AgAAAAAAAEAUBMPXiZjtahC8AgAAAAAAALhqmNCV4BUAAAAAAAAApiCCVwAAAAAAAACIMoJXAAAAAAAAAIgyglcAAAAAAAAAiDKCVwAAAAAAAACIMoLXSax1R47i4nJUc8ppGELjtjjFx5Wo0dkeXKNK4+IUt214vaestjoVLk5W5vaD6naaAAAAAAAAgPFG8IrY1t1N4AoAAAAAAIAJR/CK2PBJnYrWF8obPjv4Zo9eO9aivT+5UwlOEwAAAAAAADDeCF4RG9qaVP5GC7NbAQAAAAAAMCkQvAIAAAAAAAAYldOnT8vn8zlbCEXwOhlcbFX9S4XKXpKsuLg4JS/JU+nbPnU5u/vpaJZ32wZlLI6z+y/KKlTVBx3Ozv46/uhV6foMLTIv04pbpOxNVWoauPsgAi/kytnRKn9boyo3ZSstOTBmxvpSeY+GzTd9vzTwcrATHWrcnhfo+0CNWp3dgfPKdMawriN9g8p/O8CJtdZbx8vpuea4xRna8EKjrJFVGh+vuPRiq5NXebc4+3uO45xzTYu9Fap1X6UKHwjeF+f47/c9fsdvrT73pynZ9ElOs+5dpRrbnJ09rLOwfr+c9EWBY9v9vOJfOQAAAAAAINa99957+uCDD3T06FGnBUExF7y2f3VGx3yndOjIJ2r607FRL+b7Zhwz3vjyqWa9S/c806zkjZXaW79X1Vsz5NueqbwXI0R3nY0qvTdNOT9tV/bWWrt/xUPJqnswS5vrJL/TLaj7/VJlLclRVWe2Sur2Wv0rlJdcp5x7N6vW6TNiHfV65oFiNaXmq6LGGtO7WWnNxcpZna+aE06fEA3P5av2u+U60uKX/81cJZnGUzXKX1Kg+ukelZgx6ncp/8ZaFa3KUukHfQNccw0ZyZkqOTpPec+ZvtbyXJ4SWkxpgVR59v5ae1/Ot3q6teVNZ/8TbiUGvh5Btxq3ZSjZXaLmxDyVmf7WUpaboJaW3mP7duQpdVWJfN8tVpXp8/pmpR4tUcaSQtX1hK8dqtuUqowXW5TxxGv2OLXP5ylxf3NPwAwAAAAAABCrlixZYn8ePnx4VOHru+++q9raWp09e9ZpwbD4x2jR9v921obnVOsX/qOf/pe//asz/kuXLzuto2O+b8Yx45lxx0tLjccvpfu3NXzjtDguHPSXrTQ5qsdf/ZnT5u/yN2x1+ZWU66/2OU1BLbv8BUmm/zZ/g9Pk72rwlyyTP+mhav9xpymoxVvgTzI57dae3sNgjWdnux7/vx0Pu79n9vo3m+M/Wutvd5r8jSUmB/a7njvoNIT4rNb/2q96egacqfUXmPGfCjmnL6w2a9xI19CHfazQexUUOGdPde+z1P6WufYkf27NICN+Vu33mO/9NKzPmQb/Fuueup53rsm677mR+l1wPgEAAAAAAGJcc3Oz/80337QXsz5cnZ2d/t27d9vf+8UvfmFvjweTMX7++ef20tLS4v/yyy/9XV1d/stjzA+HEjMzXs3M1M6zXVqccrMSr5ur+Lg4Z8/omO+bccx4ZtzxmfnqU/1Or7SuSAUrZzltjukueTZ5nI2gJtU+3STX40XKXeg0BSV5lPeI1OeqP6hV8SGXih7PVYrTFJT0gzyZOaKj8pMCeRaG3d+5buU94ZJeaVCz0xSUlW61h7s5S/lrwuakzr1TGWutz6O+ntmirXteV2Vrviqf738No9Oqup9VqnVdpSofHHhE39tV8mqzCtaG9Zmbruz7rF+i0ZnRmpiolCSpYU+jfBftHgHTnU8AAAAAAIAYd/vtt49q5uuBAwd04cIFe/38+fP6zW9+E1MzX2MmeG37y1daMH/emAPXcGY8M64ZP/pa5dstudNdSoxw2rPCw7tTPjvUdC9LDWyHu8b5dLR+ZveW6/bAdriwqNf+8/8cU6O0z5KjmlPOfodnSYoSIpxvcpIJKZvl69Pfo7SbndVwbc2q31Gp8qcLlfP9TGUucSlvp7PP4fvEK61Jl2u+0zBmPvmsY9j33GmJpLW13vpnuTJnhd+POGVss3bttMYxHRPcyn91s9L25GnRLWnK21atxlNhtW4BAAAAAABi3EjDV1Ni4IsvvrDXV65cqTlz5tihayyFrzETvJ7t6tZ1185xtqLLjGvGHy+JCc7KMCXMGskXEjTs7jd7VNXervY+S5U84cHp9H6RbYhkJc51VoMizP707dygRTemacOLTWq5NkVZj27RlherVPYDp0OouYMdb3SGdc//fouqnfqv/RePgvF3yn1l2utr0d5nsqQ3i5RxS4oyn20U8SsAAAAAALiaDDd8DQ1d7777bt1yyy266667Yi58jZng1e/3R322a5AZ14wffQlKWCZ5D/vUHWH4rs6wN/zPTVSy9dHYHOl9+d3qCquGkDDX7q0jnwS2++juUruz2itBiYmJ/ZbwjLLhk8jHP9LklZalKHmwqaS2RtX8uEqJTzXoSONrKvvJZuX/wC336lT7+kIlzHVJuxvUHHYrRs+5543NGmxI+7i/7VZSujmvSEtq3xmzCUlyrytT9eFmHXk5Q/X/7FH5+84+AAAAAACAq8RQ4aspLxAaut544432ugldYy18jZngdWpyKcOTJG2vlPdEWPLaUafKp82fu4dIDNRArX+5So2dTlvQ0SqVbzdvpuqV6MqQR/Wq/Gn/2ZfNb5Sr3FkfqdaXd6muPex8P6m2j5/+sNu6qiG0tuhIq5SyOKlvqPtJvap3O+sO132blKVKlbw0nBmkDfIFi8MOyNTOzZJeKVHl+wOP6FqdZ/UsV+XOSCHzYBKVem+Odd9b1fJF1NJiAAAAAACAKWOw8DUYpoaGrkHh4auZGTuVw1eC1yssfV2lcpO8+p8Z/6jiHXWq31evuh2lyllVrXmPhL9cK0meJ0qUfqhUGWs2qHJ3vd3f+9IGZW7qUMaPnG5BN3tU/Ey6mrZlyL2+Ul6rb/0+ryo3ZqqwLUMFTreRcq9pUen3/g+VO8eve6NImas2qG5licofGTJ2tS7DJfe9kveJwt5rNmNsbFJKeKmBb+eroiZXvqczlPZAqWredo65o1yFT3h7XsKlm1PssLPixUrVWftr3qjr3Rcm5ZEKVT/kU3F6mnK21dj96/fVqWZ7oYp2O99aVqDKrenyPpxhnVfw3lnL7ioVb8runc16qkZ5S/JU6lyHub/lTxTLm7RZntVDTv0FAAAAAACISSZ8/c53vmOvm/C1sbHRXl+xYoXWrl3bL3QNCoavCQkJ+uabb/TOO+9M2fCV4PVKu9mj6sMNqviB5H08W5nuDSrZI+XtrFJ+hHdoJfyPLapv3qWS1CMq92QqM7dQVc0ulby5RW7ree1bbCFBrifrdcRborTmcuW4M5X34yo1LynRrqfc/f6sf7gS7y1R7Y4s+f51g3W+mcp+pkEpm3bpyJ4tSg+v7xpRivJ/2qCye9tVkxu45soDqSrzblZGhHqwKQ9Wq6m+QlmqVXGWdc3uPBX9a7OSV4W8IOvmXJW9tVl3NhYq29pf0myufiApyn29SXtfzJLqiq3+5j4WWfcxWe4lwRETlP5UnXXvCpVyOHDvzHELX6pTR2qBPN91us1PlXtVt2qfNtdh9dlYpoaFW3TwcJncw7oXAAAAAAAAscUEpXV1dfr444+dFunUqVP2zFcTrA7FBK7d3YG/VL506ZJOnjxpr08141MU1eEfY2HU28pa9GnR8OLBpj8dk+uOxc5W9I33+FNDo0rjMnSwpkX/3weTxvfhAQAAAAAAwJQTDF2D7rjjDnV1den48eP2tilBYGbDDsTUfzUlBowbbrhBt912mxYuXGhvj5bJGPfnBmLK+Ph4zZgxQ7Nnz9bMmTMVN07vjDKY8QoAAAAAAABgzEJDV1NKwJQUSEtL0/Llywd94VZQaOhqvp+ZmTnm0PVKIngFAAAAAAAAMGYmOA0yM11DDfbCLSM8dDUv35rqCF4BAAAAAAAAjJkJTIOB64EDB/oEscZg4Wuwb6yErgbBKwAAAAAAAIAxMy/OuvXWW+3w1ZQdGEn4ar5nAtdYCV0NgleMQLq2+P3axYu1AAAAAAAAEMFowtePPvrI/p6Z7RpLCF4BAAAAAAAARE14+Pree+/p2LFjzt6A0PD1448/1ocffmivxxKCVwAAAAAAAABRZcLXadOm2euXL1+2w9VIM1+Djh8/3u+FW1MdwSsAAAAAAACAqDpx4oRdQsC46aab1NXV1a/sgOkTKvyFW1MdwSsAAAAAAACAqDGBqglZjRUrVmjp0qURa74Gg1fTJ9ILt6Y6glcAAAAAAAAAUREeui5cuDDiC7fq6ursADb4Uq3wF27FQvgaM8FrXFycLvv9zlZ0mXHN+LGtTb+qekWv7Gtztsdbs2peeEU1h53N0/v1ygtv6Q/Ops1uq9avTjvbAAAAAAAAmLQiha5B4eGrWUyb6Wc+jVgLX8c1TfRbnNVRua2sRZ8WJTtbgzvmO6Ubv5WoxOvmOi3R0/F1p774skOLU252WmLP6X3Vev3Q185WX4nL1urR1fOdrSg6/Jae/f08rc9fpQXWpn0O7XfqSU+qtWWC4J36dFHYsc13fv25sxF0nZbn/oP0nzv1Yb9LuElZj92vpc7WYNfZX9/vAgAAAAAAILLBQtdQJnA9efKk3d/0M7NdwyHDETkAAD39SURBVJnA1QSvhgliQ1/CNRomY9yfG4gp4+PjNWPGDM2ePVszZ84c18mWMRO8tn91Rn92wtH4KN4wM9vVhLp/9a1Ezbv+Wqc1ev7gfUV1J52NHiZIzNP3TRoZZGZ/1vxRHc5mj1vvdoLKXsMeMygsAO0xUPtAhtl/ZOFnQG/4Gwhk2773qHLt/wBitt+R/tFcm5lFe1Dze67TbB/THeHBa0+464h03vb9blcGwSsAAAAAAMCQ3n33Xbt0wGCh60hEM3wleI1gJMGr8fnpNnWe7dKC+fN03bVzxhTAmsD16zNndbqtXXPnzNJNC8ZhxqfFhKQN8yLP6uwz0zRiEBgIIT/8uu/MzGGPadjtZwYIev9Ltw0U1kYQ8bgRmPDTq38Ysl9Q/3EDYWvbPOmreXfqtuMHneDV2uXcp+tv/VxafLf0a4JXAAAAAACA8WZmshrBsgHREK3wleA1gpEGr4aZ+dr2l690tqvbHN9pHTlz0+fMStD8G64fl5muQQOGleHB5yBBoBmjTr0zX4c9phPGDtt13x14Nqs9doQZuUaEWbm2YRw/YpmD4PfscW8MmfHq3IuTwe99EXnGK6UGAAAAAAAApoTQ8HXt2rX250gRvEYwmuB1qhkwJLX02TfYDMywfcMaM63Z+c5i/anPn+cb/f9EP+Ks0BCRjxleFmC4Is/kNfrPWO0tNbDgd+HnQKkBAAAAAACAqc7n89lB6YIFEacDDulKBa/xzicmoaR516mj/QtnaxAL5ut6ndHpYbz9v2fMBav0aLRCxcNvqa79u/KEB72HG/ShvqvMkYSuJvB8Yaf9vfURzm/B6rze0NQEpqavM4F1qefRntDVBMHPvvCuTl43T0l2CwAAAAAAAKailJSUUYeuVxLB62TX3qZh5KmWr9X2Z2d1KMMecxhMUGpqxP5j+EzYNv3q95/r1u8NUJogAjMb9dmaP0rL1urJgUoahFpyv5587FFrCcx2fdbb7OwIhLD2vuGMAwAAAAAAAEQZpQausMHKAvT5s/hB//S979v8hz2mzXz3XZ10tgbVr8Zr4Lu651Hl/lXf84v4J/22YBkBZ3O4Qo5tjz3MOq3hNWJH8l1qvAIAAAAAAEx91HiN4OoOXgMB5aeLnH2DBa/2y6bUExIOe0xb39B2JMxx/rQ4pH6rfR5ntPyev9Gnvx55fdSBw9q+TD+v/iHC9fUV6T5EvDfUeAUAAAAAAIhZ1HhFX6Y+6tc3KWOIcDH4J/2JyzKGDgiHPeYATEAZ9uf8fV6aZf70P9eErqZcwDDOZww6Du3Usy+YOq4DL3X9pvG26XS7dP38UV4/AAAAAAAAMEwEr5OQmdFpzxzNHWq2pZmtulMfzrt7yNmfwx9zYKfbzjhrg7Bf2nW3rj+0U6/sa3Mao8+UEAjUdx14ybrV6Rx0ulmffn2T7hjJy74AAAAAAACAUSB4nQTCZ2/af27/WKQ//f9cdSH9nrVLBDwa8U/zhz+mMZwXc7XpD8eHWxs1Vbl2+PqOfhW1t3iN3R9+N/4zcQEAAAAAAACDGq8YwQunxuNlU31f7nWreVHXEDNSh3++IS/XGqpGbrDGq12n9vNAe7+XiQEAAAAAAGCq4eVaERC8AgAAAAAAABgLXq4FAAAAAAAAADGC4BUAAAAAAAAAoozgFQAAAAAAAACijOAVAAAAAAAAAKKM4BUAAAAAAAAAoozgFQAAAAAAAACibFIHrzOmxan7ot/ZAgAAAAAAAIDhM9miyRivhEkdvC5Lvkb7T5xztgAAAAAAAABg+Ey2uDRpurM1sSZ18Prg0tmqaOxk1isAAAAAAACAETGZoskW/2mx0zDBJnXwen/qLK28ZaZ+uONL7fmkmwAWAAAAAAAAwKBMhmiyRJMpLk+K111/fd7ZM7HGtcCB3+Ksjsl/HPlGP/+oS4daLuj8JcJXAAAAAAAAAJGZmq6mvICZ6RoeusbHx2vmzJmaPXu2ZsyYobi48YtHp0Twaoa5cOGCurq6dO7cOV26dMluAwAAAAAAAIDhMCHrtGnT7OB11qxZuuaaa8Y1eJ3UpQZCmTR6+vTp9s0x6+N5UwAAAAAAAADEDpMlmkzRZIsmYzTr421KzHg1Ll++rIsXL+r8+fM9s15NGwAAAAAAAAAMJhi6mtmupsTARISvUyZ4NYLhqyk7YD7NNiUHAAAAAAAAAAwkONvVhK2mvAAzXgdgwtbgYoYneAUAAAAAAAAwEBO8BsPX4DIRplzwahC2AgAAAAAAABipiXxv1JQMXgEAAAAAAABgMpuYebUAAAAAAAAAcBUheAUAAAAAAACAKCN4BQAAAAAAAIAomxI1Xt9q7tKOP3yjQy0XdP4SZWMBAAAAAAAARDZjWpyWJV+jB5fO1v2ps5zWiTfpg9dn3z2j9z87p8L0uVq1cKYSpk/cm8cAAAAAAAAATC3dF/3af+KcKho7tfKWmXry7mudPRNrUgevZqZr1Qdn9e8PfovAFQAAAAAAAMCwmQD2hzu+1PrlvTNf4+ImLmOc1DVeTXkBM9OV0BUAAAAAAADASJhM0WSLP/+oSxcuXNClS5d0+fJlZ+/4m9TBq6npasoLAAAAAAAAAMBImWzRZIxdXV06d+6cLl68OGHh66QOXs2LtJjtCgAAAAAAAGA0TLZoMkYTunZ3d+v8+fMTFr5O6uAVAAAAAAAAAMbKlBkwgasJYE3ZARO8jvH1VEMieAUAAAAAAAAQ00zIasLWYADLjFcAAAAAAAAAiIJg+DoRs10NglcAAAAAAAAAVw0TuhK8AgAAAAAAAMAURPAKAAAAAAAAAFFG8AoAAAAAAAAAUUbwCgAAAAAAAABRRvAKAAAAAAAAAFFG8AoAAAAAAAAAUUbwCgAAAAAAAABRRvAKAAAAAAAAAFFG8AoAAAAAAAAAUUbwCgAAAAAAAGBUTp8+LZ/P52whFMErAAAAAAAAgFF577339MEHH+jo0aNOC4LinM9x4bc4q6NyW1mLPi1KdraGp/2rM2r7y1c629Vtju+0jlxcXJzmzErQ/Buu17zrr3VaAQAAAAAAAASZwPXw4cP2+pIlS3T77bfb68P17rvv6uzZs7r77rs1Z84cpzW6TMa4PzeQE8bHx2vGjBmaPXu2Zs6caWeA4yWmgtfPT7ep82yXFsyfp+uunaP4Mdy4y9apf33mrE63tWvunFm6acF8Zw8AAAAAAACAoNGGryZw3bNnjy5cuGCHoffcc8+4hK9XKniNmVIDZqarCV0Xp9ysxOvmjil0Ncz3zThmPDOuGR8AAAAAAABAXyZoNYGrYQLY4ZYdOHDggB26GufPn9dvfvMbO4yNFTETvJryAmam61gD13BmPDOuGR8AAAAAAABAfyMNX02JgS+++MJeX7lypT3T1YSusRS+xkzwamq6mvIC48GMa8YHAAAAAAAAENlww9fQ0NXUdr3lllt01113xVz4GjPBqyknG+3ZrkFm3DGWqwUAAAAAAABi3lDhqykvEBq63njjjfa6CV1jLXyNmeA1FrXuyFFcXI5qTjkNQ2jcFqf4uBI1OtuDa1RpXJzitg2v99VipPd86mtVzQM8BwAAAAAAIHoGC1+DYWpo6BoUHr6ambFTOXwleAUAAAAAAAAQVSZ8/c53vmOvm/C1sTEw6WvFihVau3Ztv9A1KBi+JiQk6JtvvtE777wzZcNXgldEmU91T2xQ4e5WjU9xht7xgR6f1KlofaG8n1ESBAAAAACAK80EpXV1dfr444+dFunUqVP2zFcTrA7FBK7d3YH3LV26dEknT56016cagldEWauatlepZdzeRTbe42NKamtS+Rst6nI2AQAAAADAlREMXYOzVO+44w4tWrTIXh/shVtBpv6rKTFg3HDDDfYM2bS0NHt7qiF4BQAAAAAAADBmwdDVMKUETEkBE5ouX7580BduBYWGrub7mZmZWrhwob09FRG8TgYXW1X/UqGylyQrLi5OyUvyVPq2b+DZex3N8m7boIzFcXb/RVmFqvqgw9nZX8cfvSpdn6FF5mVacYuUvalKTQN3H1T3UTNWptKSnWOnb1D5+4HBzMu94uIyVGyte3OTFW8fL+RFVc515qQvsr8bl5ym7Cdq1Nzp7HcEXnBVqsbOZtU88Y+B897W2G98ewxr/OqQPy8PnF/vtWasL5X3aITpsSO954PqUGP4dW3yyufstTm/WaZzvLjFGdqwvdH6ZqiQF121Nao8eB2Ls1W02xkttN06Tt4gY/it+9f7nCQr7f5CVf52+D98x28rVXh/mpJ7rqlSjW3OzmEK/pYNZ8xvmd3zW/boc46B56l0d7P6/mLdat5dqg1u51zs37VcjfalOC+JS7efCv3Pv4m3x4l7oMa6EwAAAAAAYCKZ4DTIzHQNNdgLt4zw0NW8fGuqI3i94nyqWe/SPc80K3ljpfbW71X11gz5tmcq78U+0V1AZ6NK701Tzk/blb211u5f8VCy6h7M0uY69aur2v1+qbKW5KiqM1sldXut/hXKS65Tzr2bVev0GbZD5XKnFqg+MVdlNWasXdrsalGzLxCTpa4NjJ9vrbuf2mWf2976Yrnn27vV+GyyMl9s0Z0/rrD31T7jVvv2PLk3eSOEZD5V/3O5uh7+mY77/fI/lT7g+Jk3xtnfMNfqTs2xritPZfa+MuV0Vikn1a2yptA7E7jnmcO954PqUN2mVGVY15XxxGv2WLXP5ylxf3PINbWqZmOaCvZJnq3Vdp9d6+ep9okMZT3bFBYyWr6oV+nDZdJ9JXrNusdlrmaVe3JU+rbVft9m+VYVW+3WGD9OUb0Z44Um54shLljXuClH1XKr+FXrXtSVy6NdKlyVpdL3h67T4NuRp9RVJfJ9t1hV5l6+vlmpR0uUsaRQdSMMX+37vcX8ltU9v6XNPMtrrGfZem7znjO/116VedpV5UmTO+Saml5wK21TvRIfKlO1ORfvZt3Z2iyfHdinymPaXrafCm3598A4e59wK9HsBgAAAAAAE8YEpsHA9cCBA32CWGOw8DXYN1ZC13HnH6NF2//bWRvawT/+b2dtfIzX+C01Hr+U7t/W8I3T4rhw0F+20uSoHn/1Z06bv8vfsNXlV1Kuv9rnNAW17PIXJJn+2/wNTpO/q8Ffskz+pIeq/cedpqAWb4E/yeS0W3t6D+ngM0nW+Ft6xw+64HzarGNa43pqWvyXnZagg2++5j9yxtlwHHnZHbjGkOsJ3BP5873t/cYIHb8P51pdTzVYdynUcX/1WvnjHv1Pf7vTErznJY19e0a+50Ow7nuuOZ+fht3hPvekxV/7+t6e4wd0+Wt/ZI4Vej9b7HOVsvyvHXOaDOfapCR/bk3ocdr9u9ZZ7cvK/Aedlt4xXP4t74U9U9a9eO3eAfqHPgefVfs9ka7pTIN/i7nHz/d+eyg9v+WuvzgtQc6zvMy6/rBn4vhPzXcK/LX2DTvoLzHPtfW7DqqxxPqOx/9v/9X/iQEAAAAAABOns7PT/6c//cn/5ptv+mtra/1//vOfnT29mpub7f1mMeuG+V6kvtFgMsbPP//cXlpaWvxffvmlv6ury3/58vjmCMx4vaJ8qt/pldYVqWDlLKfNMd0lzyaPsxHUpNqnm+R6vEi54eUtkjzKe0QKzP10fFCr4kMuFT2eqxSnKSjpB3n2zNGRSEy60/pnverD/1x9uvM5BNfafKXOdTYcqS639U+vfP2mvHrkdiX2vZ5BdO/fZV2rWwUPpyvBaQtIUfp91n38fx9Ss70des/79ox8z4eQmKiUJKlhT6N8F502o889SVLWuvAZmAm6M90cq1m+YCmGIOu3cX/bWTcSXEpfY1as3+wHob9kolyrrTEO+dQSXkFgTYHW/33YM2Xdi5xHC6z+DWo+4TRF4Hu7yvpFNqtgbdhTMzdd2fdZT2Fj6Gze4fBotfVb9tHdoF3Ws+zelK/0sGciZVWO9Y1KNdn/0StRSS7rY0+9U1oAAAAAAABMZnPmzNGtt95qz3w1NV+HM/P1o48+sr9nZrvGEoLXK6pVvt2SO92lxAgJ46zwQPOUzw4P3ctSA9vhrnE+Ha2f2b3luj2wHS48ltOpGuXYNTRDl94arSlrS1SxtlXFq+bZdWUr325WR2jYOKRutR7yqmp7uYrWZyrz+xlaZNfmjCRVKSOondzRZkoE1GuDUys0dFn0sFd+/0En4Ay552YzTL97bgnUlg1bgnVKE9zKf3Wz0vbkadEtacrbVq3GU5FqynaoeV+NKrcXq/AB69rdaXLlep2dYVwpYUF5gmZdaz7naVZYVhw43xZ1hNXJ1cq0fmG7kXhjsvXPSEF3r9bWeuuf5cqc1f+6M7ZZu3b6FCzIYO5NoJZvyBJaw9UW4bdss34H66N+o1MXN3RJybPOUDpon2SK8p6pkKetWBnzTH3iStUdJYEFAAAAAGAyCw9f33vvPR07dszZGxAavn788cf68MMP7fVYQvA6CSSGhWlDSQhP3waV0C+sG9DNHlW1t6u9z1Ilz83O/rkuFbx5XO1Nu1Sw0KfyrDTNS90g7yCzJ3uYep7uFCXfWyyvr13JrnxtfrJE1a8XOB3C9YuFhyFfFaa+Z8Slt9asMZJ7nv5Y+D2xlsecOqWWlPvKtNfXor3PZElvFinjlhRlPtvYW7v1hFcbUucpbWOFmr6Yp5R7C7TlqQpVPTfC2bUjYUL4AacLu5Qw1PX//ZZAPdWIi0fB6N/cm78Mcm8CzG8Z+WTyX4w0fmApXhWIxhOWFWhXc7sOeguUcqJc2da9XLQ+7OVlAAAAAABgUjHh67Rp0+z1y5cv2+FqpJmvQcePH+/3wq2pjuD1ikpQwjLJe9inblMJM0xXZ9jMvrmJMvMVG5sjRU7d6jrjrDoS5tq9deSTwHYf3V1qd1Z7JSgxMbHfEp7RJS7zaPPLtTreUqvNc6uU88TQb5Bv/WWZivdlqLrxiGpfLtHmH+Uqa7Vb6Yuj8wqkwLX6lHCLW25r3P6LS0n2hYTcc7MZpt89N6z73u++hP15vBKS5F5XpurDzTrycobq/9mj8vcDuxp/VqCquVvU0NSg157brM3rPPY5pSYF9o8L6/paIzxTvsNmNmuGUgeZTZww1yX9tltJ6ZHuo1lSe2cLD+feROI8y76ElAjjBxbXzSFP3vREuX6wWRV1x9Xy1mYlvpGjoh0jK3gAAAAAAAAmzokTJ+wSAsZNN92krq6ufmUHTJ9Q4S/cmuoIXq8olzI8SdL2SnlPhKVkHXWqfNqEZCES71TGWqn+5So1hv9p+dEqlW+XeatSj0RXhjyqV+VPQ2ZfOprfKFe5sz5s4WUFkrKUc5/1eaxFLYGWHg0n+ra0nGiw/hn+J+fdqn+rylkfmfDxE9Pdyh/gWvsKvedOU1Ckez5iiUq919QobVXLFybEtT6PtUopaUrqE0j6VL9jgFID0bCzWruOhj1Tndb9sa4v6dEsZQySd7tW51l3qVyVO8dxTmlihtzrBniWw4U9d0n35SjL+vS19nvqBi2hAAAAAAAAJoYJVE3IaqxYsUJLly6NWPM1GLyaPqE1X2MlfCV4vcLS11UqN8mr/5nxjyreUaf6ffWq21GqnFXVmvdI+J+iJ8nzRInSD5UqY80GVe6ut/t7X9qgzE0dyviR0y3oZo+Kn0lX07YMuddXymv1rd/nVeXGTBW2ZWigP/IfSOOzgRqbgXGs83yjSMX/KmVt8si8/yggRSlrpdYXy1RZZ/XbUaW6U1Lqynzr7Eu1OeQ8yh+4U97ObOd7wxUy/tu942u+R1tqctViXWvaA6WqMfvMcd6uUeUTedqwszekC97zvPTsYdzzIZyqUd6SPJU649jX9USxvEmb5Vlt0s0kuVZnSbs3q/Cfa1Rnn1OVitwb1LRwHEsNrE1U4/33qOgN57x2lyvHlaly5VrnlxWxvm2PZQWq3Jou78MZytzY+3vX765S8absnpm8Y5Moz9PVym21nmVXTsj9q1PNS0XK2+h1ZlE3qjQ1W4UveXv2Vz1erCplqeC+3qdON6fYYXflS5WqtfrVWNdNBgsAAAAAwMQLD10XLlwY8YVbdXV1dgAbfKlW+Au3YiF8jZng1byU57I/wt9WR4EZ14w/Lm72qPpwgyp+IHkfz1ame4NK9kh5O6uUH+EdWgn/Y4vqm3epJPWIyj2ZyswtVFWzSyVvbpH7xvBKmglyPVmvI94SpTWXK8edqbwfV6l5SYl2PeW2/9R7JFL+Pl/JRytVYI2T6c5T0c86lPX6ce16JPQ1TknKfa5Wm12N+lG2dbxnmqW51pmsLlZ9zWbNO1DinMcuda+rVcXDkV4BNZje8QuzAuP75wR+95QHq9VUX6Gs7mpttvZlWsfZsLVKTddmq2B1yNWO8J4Pan6q3Ku6Vfu0Gcc65sYyNSzcooOHy+R2ZrimrKtWw3PZat+Zp2xzTi81KfW5Xdq8KrB/XCwp1L/tse73niLlmfPaVKXuNRVqOFyt3CFfWpag9KfqrOemUCmHA8+N+b0LX6pTR2qBPN91uo3VwlxVN+1VxZpuVdu/g7l/JapqmqfsjW7rlzZSlP5wsppfLQjszy1STUeWqny7lP9tu0PAzbkqe2uzlr//I/2jda4l1mM3gjK+AAAAAAAgCiKFrkHh4atZTJvpZz6NWAtfxylNDPBbnNVRua2sRZ8WDS8ePOY7pRu/lajE64ZTYHJkOr7u1BdfdmhxSvAtU8Bk1aqaB5KVt6RBl59KH9//gwMAAAAAADgGC11DmcD15MmTdn/Tz8x2DWcCVxO8GiaIDX0J12iYjHF/biCmjI+P14wZMzR79mzNnDlz/CZbWmJmxuv8G67X6bb2qM96NeOZcc34AAAAAAAAAPozQaoxWOhqmNmtaWlpysrKihi6GrEy8zVmgtd511+ruXNm2TNfzQzVsQaw5vtmHDOeGdeMDwAAAAAAAKA/E7iaMHWw0HUkYiF8jZlSA0HtX51R21++0tmubnN8p3XkzDTjObMS7JmuhK6YOig1AAAAAAAAYkdo2YG1a9fanyN1pUoNxFzwClzdCF4BAAAAAEBs8fl8dlC6YMECp2VkqPEKIAqSlPumX35CVwAAAAAAECNSUlJGHbpeSQSvAAAAAAAAABBlBK8AAAAAAAAAEGUErwAAAAAAAAAQZQSvAAAAAAAAABBlBK8AAAAAAAAAEGUErwAAAAAAAAAQZQSvAAAAAAAAABBlBK8AAAAAAAAAEGUErwAAAAAAAAAQZQSvAAAAAAAAABBlBK8AAAAAAAAAEGUErwAAAAAAAAAQZQSvAAAAAAAAABBlBK8AAAAAAAAAEGWTOnidMS1O3Rf9zhYAAAAAAAAADJ/JFk3GeCVM6uB1WfI12n/inLMFAAAAAAAAAMNnssWlSdOdrYk1qYPXB5fOVkVjJ7NeAQAAAAAAAIyIyRRNtvhPi52GCTapg9f7U2dp5S0z9cMdX2rPJ90EsAAAAAAAAAAGZTJEkyWaTHF5Urzu+uvzzp6JNa4FDvwWZ3VM/uPIN/r5R1061HJB5y8RvgIAAAAAAACIzNR0NeUFzEzX8NA1Pj5eM2fO1OzZszVjxgzFxY1fPDolglczzIULF9TV1aVz587p0qVLdhsAAAAAAAAADIcJWadNm2YHr7NmzdI111wzrsHrpC41EMqk0dOnT7dvjlkfz5sCAAAAAAAAIHaYLNFkiiZbNBmjWR9vU2LGq3H58mVdvHhR58+f75n1atoAAAAAAAAAYDDB0NXMdjUlBiYifJ0ywasRDF9N2QHzabYpOQAAAAAAAABgIMHZriZsNeUFmPE6ABO2BhczPMErAAAAAAAAgIGY4DUYvgaXiTDlgleDsBUAAAAAAADASE3ke6OmZPAKAAAAAAAAAJPZxMyrBQAAAAAAAICrCMErAAAAAAAAAEQZwSsAAAAAAAAARNmUqPH6VnOXdvzhGx1quaDzlygbCwAAAAAAACCyGdPitCz5Gj24dLbuT53ltE68SR+8PvvuGb3/2TkVps/VqoUzlTB94t48BgAAAAAAAGBq6b7o1/4T51TR2KmVt8zUk3df6+yZWJM6eDUzXas+OKt/f/BbBK4AAAAAAAAAhs0EsD/c8aXWL++d+RoXN3EZ46Su8WrKC5iZroSuAAAAAAAAAEbCZIomW/z5R126cOGCLl26pMuXLzt7x9+kDl5NTVdTXgAAAAAAAAAARspkiyZj7Orq0rlz53Tx4sUJC18ndfBqXqTFbFcAAAAAAAAAo2GyRZMxmtC1u7tb58+fn7DwdVIHrwAAAAAAAAAwVqbMgAlcTQBryg6Y4HWMr6caEsErAAAAAAAAgJhmQlYTtgYDWGa8AgAAAAAAAEAUBMPXiZjtahC8AgAAAAAAALhqmNCV4BUAAAAAAAAApiCCVwAAAAAAAACIMoJXAAAAAAAAAIgyglcAAAAAAAAAiDKCVwAAAAAAAACIMoLXKabppUwlL94g7ymnAVdQo0rj4pSzo9XZtrxfqri4HNXw+wAAAAAAAFzVCF6nlG77fwAAAAAAAAAmN4LXKSVBrp/sVcux1+S52WkyPqlT0fpCZsFeNXyq+79vUOHukJm2AAAAAAAAmFQIXmNBW5PK32hhMuxVo1VN219XCz84AAAAAADApEXwCgAAAAAAAGBUTp8+LZ/P52whFMHrZHCxVfUvFSp7SbLi4uKUvCRPpW/75NuR0+9FTa12W6ka7a3Ay53i0outda/ybrHWzfYDNRreH6G3quYBq/82a7TOZnm3bVDGYjNGstLuL1TlbzucfkHBl0n51P7bcuXZ5zvMF0n1vHSqW807ipxrtY6TW6km+zCh7XFalFWkmqPhUzp7j98Rcvzqz/zO/mForVflphznOq1lcYY2vNCoPlcaoU/Opko1fuHsH5UONfb5jbNV+FLYcYM6Ar9FptM3LjlN2Zu8Mv8Ka9xmzilDxX6/vLnO/vDfYKDzb3P2B1m/SXy89d0T1rltz1NastV32M8OAAAAAACA9N577+mDDz7Q0aNHnRYExVzw2v7VGR3zndKhI5+o6U/HRr2Y75txzHjjy6ea9S7d80yzkjdWam/9XlVvzZBve6byXhzqvxakymP13/tyvrXu1pY3rXWz/YRbiYEOw3PBOodNOaq2xih+1fp+Xbk82qXCVVkqfT/C37PvL9eGulSVN7XI79+l3NB6s0M48kahig6kquDFatW+nqfkfYW6c2ONGnfkK3vHPOVb7XvrXlNWe7nyVhep9osIoap1/PyQ45vAeTi63y9VRnKmSo7OU95zzr16Lk8JLb1lGkyfTFffPrVbs6U9hcr42zzVnHA6joh1fx9OVcYzPrn+ucoes+rxVDU/k6HUTXV9w9cTNcpLTVPOT9vldvrufb1YGR0+u1/qWnNOFcqPi5P7qV2B/fXFcs8PfD30/HPDz39J5PNveC5ftd8t15EWv/xv5irJaQcAAAAAABjKkiVL7M/Dhw+PKnx99913VVtbq7NnzzotGBb/GC3a/t/O2vCcav3Cf/TT//K3f3XGf+nyZad1dMz3zThmPDPueGmp8fildP+2hm+cFseZBn/JSln7PP7qz5w2S6B/ib/B2bY1lvTrNzwt/uq15hgu/5b9XU5b0HH/a/da+5aV+Q86LX7rqCXWz2raPhzp7bXPUf6kn+z1hx4pcD3WmCutazrjNBpNZX6X1V7wH39xGoze4/ee0zB9UesvSLKO/1C1dWUD6LLGXzZAH/N7pMf5tW6Xv91pCp6Pp6bF2bZE+C0C12i1+ZwGR9f+LdY1uvxlTU6DdVVl5je37sXvvnaaIrKOGxfX97jGUOdvxg49f+tc4+Lkdz034rsJAAAAAADQo7m52f/mm2/ai1kfrs7OTv/u3bvt7/3iF7+wt8eDyRg///xze2lpafF/+eWX/q6uLv/lMeaHQ4mZGa9mZmrn2S4tTrlZidfNVXzc8GZBDsR834xjxjPjjs/M11bV7/ZK64pUsHKW0+aYm67cTR5nY5ytKVD+3yc4G0Epynm0QDrUoObwWZL3ZcjlrI5U/v1uhR4paUWW3Nane32u0ucG2mzLMpRlfTR8EmHW7yiO37rndVW25qvy+VzryiLr3u9V8SGXih6P0Mf6PfJ/ZP0eb+xS/Yj+Ft+n2jes3/gnBfIsdJocCX+fbV1jkxqanQHfr1PZ+y6VvbJFGdcGmkaie/+uwc//x5HPPyt9tL8mAAAAAACAdPvtt49q5uuBAwd04cIFe/38+fP6zW9+E1MzX2MmeG37y1daMH/emAPXcGY8M64ZP/p88u2U3OkuJUY47VnTnZVRc2rAhi2l7zu7g1amRQwjE29Mtv7plS8sqPMsTpLCzjdQezbsWA9Uh9UL9SgtLHxUwiy7LELi3LDg2WJamjr7lzqwjx/uVI1ywo8fUvvU94lXWpMul/Mn+ZF0tJmQ1y3X7YHtcEkpJqCsV/Nwatr2aFXrHutje6Zm/f/bu//gqso7j+OfBBISCCHRQMKihh+lbBCEYHFNLGNIsLYRnSkMzhJ2nRXcP6Du7rQyzriy1elgne3COmNJndku2tkOOFPXuHUhVsUQxQbXCgERspYlIf5oiKRNCD8SQMme59xzw/2de8O55N7L+zVz4Z5zzz3nec45mQkfnvN9gtpXrqesj+qccPlE235r6/DHH8rQ7V9g/RnYfuuaxFAqAgAAAAAAIJRYw1dTYuDkSc+EOrfffrvGjRtnh66pFL6mTPB6tq9fuePHOUvuMvs1+4+XvMDBpq4p0yPd3eoOeD3yDedjrwzn75BKlRXYvtHBIWnRd7cGHaf735bHp15oiOPrhmXaGnj87q1a5hsqhgh3r5ayx7Y59VhDvFaUOFsZWcqO2/0QxhUH/AAAAAAAANGHr76ha0VFhW688UbdeeedKRe+pkzwOjAw4PpoVy+zX7N/92XJJJN1h9rUH2L3fWdCznkfk6y8POUFvLICgzbr+KGenm871GD9Wa6SwFGqoWQFHycvfolyCFkhjm/11ftpTqn0SpNaIpzSvAIz7rdBzWH+Q+ZEW7P153KVfs2zHJ0sZc2X9n5ZpPLFlaoM9fpzz1RoWTlmhHG9mg7YizEbuv37rT9jbT8AAAAAAED0hgpfTXkB39B14sSJ9nsTuqZa+JoywWtyKlHZg0XSv9Sq7nhA8tpTr9ofmuAzWk1BJQGi9tI2vRwY1p1psI9ftLZa5Z5cMKmV3rtO1arVxp/uVbixy1mLvqPHi5q16V+3K6iy7Jm92vrTumGcj1JV1pQ619hZFUbe4mV6xDl+axQ5f9PxDuedR9ai6sjtf3Y47QcAAAAAAIhNpPDVG6b6hq5egeGrGRmbzOErweuIylLlulrVFNXpr8qXasOL9WrY3aD6F5/S8kXblP+3UU6udcM0LdMJbXm2Vjut729/oT7kCNawVuSp6d4qrbe+Z47f8MpmLS+t0mbVaPOj1XYN1qT3tTXasr1GbT8s1+z7n9L216x+2ud6sx5+tM5zvrIqteGVjZr2y1Uqr3xIta94t7GuR2m5Ngz8SHU/if18lK6t1cbb67SqrEoP/bTOc46tV90LG/Rw9WbtdbZTTqU2Ose/o+ry8Rte2ar1NZtlxtt6TNO0FdKJZzep1vTjxa2qN3VbA9q/JbD92jis9gMAAAAAAMTKhK+zZs2y35vwde9eTwKycOFCrVixIih09fKGr1lZWTp37pxef/31pA1fCV5H2g3LtO1Qk7Z8V6r7wT2qqnxIG9+UVr20VWt8S39GckONNr36iBbsfVhLK1dpY4uJdGMw92Fte/MR5b+5Xqsqq1S1bqv679qipkPbVBNNmYEkMW3lNjU3bFG1dmpDtdVP61yt/3mLJi8qHQwjs25/XA1tO7V+aptq15ltqrTmx02a/Pc71frmBpXlOBvGIqdMj792RC+vm6Yjzy6391lV87BqX+tRyd8tk5myy8scv/7Qy3rY5/gP/aRe/WXlPhOgFanmn3fokdK9etjqx6ofWxfcaZdv+38W1P7Hh9d+AAAAAACAGJigtL6+Xh9//LGzRvrss8/ska8mWB2KCVz7+z3PLH/11Vdqb2+33yeb+BRFdQxcYWHUGZs6dGy9qXs5tObDR1V680xnyX3x3n8obb9crukPZOnljm1aFpdZqk5o+/2TtWpukwb+qcxZBwAAAAAAAAyPN3T1uvnmm9XX16fW1lZ72ZQgMKNhwzH1X02JAeO6667TjBkzNHXqlY0MNBnjnhpPTJmenq7MzEyNHTtWY8aMUVqc5owyGPGasHrUvLtOmr9A0+ISugIAAAAAAADu8Q1dTSkBU1Jg9uzZuvXWWyNOuOXlG7qa71dVVV1x6DqSCF4TVP97tdr0glT2QKXfo+gAAAAAAABAIjLBqZcZ6eor0oRbRmDoaibfSnYEryPtg826Z90G1ToTazXsrtPWR5drdtkGtd27RbVriV0BAAAAAACQ+Exg6g1cf/e73/kFsUak8NW7baqErgbB60grKlWlWlT34zWeSZcqv6fNH+RrzfYmNdd9T6UxzZIFAAAAAAAAjAwzcVZxcbEdvpqyA7GEr+Z7JnBNldDVYHKtKI3E5FoAAAAAAABAsjGha3t7uw4fPmyHsQsXLrRHsvoygasJXo1Zs2bplltusd/HA5NrAQAAAAAAAEh6gSNf33nnHR09etT51MN35OvHH3+sffv22e9TCcErAAAAAAAAAFeZ8HXUqFH2+0uXLtnhaqiyA16tra1BE24lO4JXAAAAAAAAAK46fvy4PvzwQ/v9lClT1NfXF1Tz1WzjK3DCrWRH8AoAAAAAAADANSZQNSGrYeq7zps3L+SEW97g1WwTasKtZEfwCgAAAAAAAMAVgaHr1KlTg2q+ms/r6+vtANZ8Zibe8q35mirha8oEr2YGsksDntnJ3Gb2G88ZzgAAAAAAAIBkFyp09QoMX83LrDPbmb+NVAtfUyZ4HZedpd7TZ50ld5n9mv0DAAAAAAAACBYpdPXyDV+9oasZ7eorlcLXuA7jHLA4b4dlxqYOHVs/2VmKrPvUaX3xxx7NnHaD0l0cnWpGux5t+0yTrs9T/oTxzto4OPSqnt71ubPgyJ2j1WsWqdB6e7DuOdW3T1H19+/TPM+nAbr0xtaXdGz6Cq1dXOCsi9Xw9uFpm7PgKF6yVjWen5Eh+3bVdO7Rc9u7VR72HHp5zsO+XmfRMdgnez8fSfMjnKeojxWsc/c2Pd96U0znx3MNcnVrzSp9K8yXgu4hpx899qdeke6xK+ffNzfu2fDsYx1QxHOSyIZzHwAAAAAAMFIaGxvt0gHhQtdYmcDVBK+GCWJNIDtcJmPcU+OJKdPT05WZmamxY8dqzJgxcX3KPWVGvJpQNGdcth2S9vSeueKyA+b7Zj9mf2a/8QxdTSD29C6p+vtr9djga4VuVbdOONvMW2bW+QRiJszcukedzuJIy5u/4nLba+bo1K7ntN3zs+Fhglaf/lXnf6TnE6j9g0wY+YwnDBzsj3ktmaJTXV2ebQoXaa217nJYaALEgP6OiF7t+22L8z6A1a+mgHDcwwStl/u5ev5p1T/zqg46nyaP4GtQuHiV1ad4h66Jcu0BAAAAABhZJnCtrq52JXQ1UmHka0pNrjWlsMAemXryjz36sOWYmg8fHfbLfN/sx+zP7DdezKi2+m4TSgaOMizQt9bEb+RhXBUu0rL5uWo/GiYEtMy7Y47yei8Hy4mhRdu3f6QJS3xDVcfc++IyKtNNecVTlNd+NGRo2nnkE/Xk5irPWQ6ncPECFeu0OhMuEQcAAAAAAInMlA7w1mp1S2D4mmxSptRAcmrR9mcaJd/H8sPwfez4ROCj/cUVemzZxMHHtsu7Xxr83IxE9QaGIR9dNiNn388PevTbdx+e/Zc4C8HMiN2mfP/Hxf2O5XcMRxSP4vuXMPB9jD50O337avN7lN76/pKbdGxX+GNG/2i3z3WbFPi4vtNORe5f+L75tOO2bj0/WKIhcgkAzzWo0IzWxhCP7pv27ldBYP9DXgNn2yEezw/ffs+5GfwooN3+5/jydRxsr981C3FNA/dvRlIvlepCXYMvTIkLM5I84PgHLteQ8N9/lPeVV0BbYzkPtsDvB5TfiP5+BAAAAAAgtbW1tdmlAQoLh/cvZEoNXIs6u3RKU3TzEKFrILvswJIpnqDGPCLuE4r2HHhJh2c6j45b2/QceF1vxDh60W8fpuRBd6Oergs/ejWUE929Un5BmMCoS2/sMDVSy/2DKD8tOqwKpw3mEXhp3w7/0gQR++qEWmb0qmcfd0vv+4ZkwUyb86aXxBZy2WUHrHOU66kBG92j7UP3Tb0f6fmjM322iaYEwER96zbrPLS2+O/r0FG1596keZOc5QgO1jWqvXjB0KGrPUrbObdLbvJ8YM65E0jH1m6Hfc0+0Ywa7/crNMG6xpcf4/eEmafmXy4DUT3dWh3lNTDttoNM57ve/T+32ykh4Yj6ZyjccaM5D+Y/I/z6msDlNwAAAAAAGGHTpk0bdug6kgheR9IX3erJzVeRs2gzgcwzzzmvbTGHpmZ06uDo2bnlujW3V8eO+AdLQ/Ldhyl5cNsUKcwj7CFZfbAnerrDZ5SsCRIH+/W6tDTE4/x+SlTjEygXzr4puDRBiL52feFZPPjbj9QT2I+lcyI8at+lzm5pQoFvm8wISG+brVeM4XN4UfTNjJD03cYuAfC5Dg81qt6cB32ktwa3s/rw/ucqvi3cqMnPVT94XZ7zBI4RRjebULHJTNDlOwpz7iI7cAw+56bdd1vXJYp2W8z3Nf9un9C0RFU+JSs6d+9Xu7V/3/tm3uIoR4Pa7bbuyaW+21vXwQSrgUF1hPsqGkOfB881yfPrq/kPlQoV936igySvAAAAAACkBILXkRYYuM29zxkBV6FiZ1Us8vInOu+GL2gfk/KHrA1qRgkOBpT2490Bow4HJ9cyIwQjTALlyx456OzT75Fuj1B99UyA5QlRh3MuBifQspk6u57RiKvn5zrrXDJE3xQYyGuiCqJqQoHmTfepr9vZomO9kUZVm0fgnRGX1g3X/n7kEZeeWrGBbTPCnfMCFeYHntdQPN/3u4+sl10WoNv6zPr8YGvv8O9v858cGq+g/xwz93bAz2D4+yoa0ZyHk+qyuuUf8hvmGscW8gIAAAAAgMRF8DqS5s5MmYmMTB1M7yPTjwXWsvRjwswKFbc3RpwJ3tS39HsUuybSaNXQgoOtSDyBZU/3SWc5ftzoWyT26Nj2/fZoac8o0kglHS6bt2yFPVq2LuDR+yBhS0jEes6D+d9HzstndO0V7T9kYBwfQ7czVwVRlH4AAAAAAADJi+B1RJXo5uIoR3+6oLBgvPPuss6u0867CEKVRLgiziPkYUdXekY3Fi+Jpl5qKJ7RhYOjPr3sUY/h2Y/8O4Fl/Ay3b2aUZLRhnee+OnZkjw6352rG7GjDSk9ZiZ4DTWHLStj3UMiyE2HOuTMCdOgg0vP98MF3uP1HyR7ZGuIxftfv7WjOg2dka3AJkFiuMQAAAAAASHQEryPMruvY3qinhzOpTlBd0CHY4ZNP/c/OParzmeHdy38yoRZt3xWpRujw2KMyrbaEHl0ZGF55JuOKFJoGmjfT1KX1DVE9/YiocJGWmYmutj8XcTRuONE9jh5l3wLOTTSTXvmad8cc6cBHMX3HZtc0/Vz14erZhvr80B77PJtj5gWMZO7c/br2aY6qwpY6uCzU9029YO9yqM8P7vb/uQl7DaxrW27+k8NvEjP37m3f4w59HrwBt/+kXbFeYwAAAAAAkNhGOX/HxZMW5+2wPNt0Rv9QHjxKM7VM1Nyyhco9Xq9f/eYDvfue93VcafPv01/OGWtvdfb4ITV3T1DpgmLlmBWF16vvyHt6521r244cLSoZp2PNR9Sdf7MWTvN8Rzrnvy6nWDf1/16NTb/1HKN9kmoWZaj582xnv57t+0rKdN3//Kd+ZfZtt2OFVv+Fd5/BOls+0KfZvscN8MXHenfwGF4TNclqy94Dx9Q3/RbNuPyBragkR5/+plE77HPxmf5s0Uz1tfbrxrJZKgrsly1gXeEsLco5rl/9usE5nxd1R02xTh7y7iO0nGm3aNH0fr3763rtGrwWH6j5RIGqV3/T+V6XDlnnRdMXaq4dko3VjIwO7Wp6z9r2957+6BN9cOiYtd3lfZjXpzkLdVdFpL451/rcTFXm79cL/+W5VkcH5mj1qlt9zp+/oGuQM07dR6x9L6m8fG7Pmjb59D9w2ebpy7vNh+y2evrny/p8wTT1NVn3q31/WK/WDJUusfZh3V8LA86d6cdqn1IB/vdx8P25MKdDO3Z5r5n16irW8m87902I/R8dM1vfLjH1VENcg7PWfdcqzXT6V1QS+HN2XHlL1vpMghXFfRUkxHELhz4Pwfen1Ze8Cr+JzYJ+5gEAAAAAwLCYjHG18+//tLQ0jRo1ShkZGRo9erS9HC/x27NlwOK8HZYZmzp0bP1kZwkAAAAAAAAAYmMyxj01npgyPT1dmZmZGjt2rMaMGRPX4JVSAwAAAAAAAADgsoQe8QoAAAAAAAAAyYgRrwAAAAAAAADgMoJXAAAAAAAAAHAZwSsAAAAAAAAAuIzgFQAAAAAAAABcRvAKAAAAAAAAAC4jeAUAAAAAAAAAlxG8AgAAAAAAAIDLCF4BAAAAAAAAwGUErwAAAAAAAADgMoJXAAAAAAAAAHAZwSsAAAAAAAAAuIzgFQAAAAAAAABcRvAKAAAAAAAAAC4jeAUAAAAAAAAAlxG8AgAAAAAAAIDLCF4BAAAAAAAAwGUErwAAAAAAAADgMoJXAAAAAAAAAHAZwSsAAAAAAAAAuCzN+TsuBizOWwAAgGvC+QsX1d9/Xl9eumR+F3LWXl1paWkanZ6urKwxGpOZ4ayNzastfXrx4Dkd6LioC1+NTD8yR6Vp/uQMrZw3VveVZDtrY9N96rS6/nRKZ/v6R/R6jMvOUsF1E5Q/YbyzNjap0g8AAIBrCcErAACAS8719evCxS81NmuMMjIz4vuLVgTmF7CLFy7qXP95ZWaM1tjsLM8HUXq68bT+/YMzzlJieOgbOXqsIraw7/POLp0526fCgnzljh+n9LSRuSKXrF+Je0+fVWdXt3LGZWtKYYHzSXRSpR8AAADXGoJXAAAAF5iRrn395zUhN2fEAtdA5hexU71nlB3DyFcz0vX7O3ucpcTyzD15UY98NSNEv/hjj2ZOu2HEgspAJrg82vaZJl2fF/WI0VTpBwAAwLWIGq8AAAAuMOUFzEjXRAldDdMW0ybTtmiZ8gKJKpa2mcfyzQjRRAkrDdMW0ybTtmilSj8AAACuRQSvAAAALjA1XU15gURj2mTaFi1T0zVRxdI2UwvVPJafaEybTNuilSr9AAAAuBYRvAIAALjAVFhKpNGuXqZNsVR/GqmJtKIRS9tMnxNplKiXaVMs1yNV+gEAAHAtIngFAAAAAAAAAJcRvAIAAAAAAACAywheAQAAAAAAAMBlBK8AAAAAAAAA4DKCVwAAAAAAAABwGcErAAAAAAAAALiM4BUAAAAAAAAAXEbwCgAAAAAAAAAuI3gFAABIYKdPn3beJaG8bD3xQKGOrZ7grEgiZ9pU/y8PqWruZKWlpSltZrmWP7pdLT3O50nm+PHjzjsAAABcLQSvAAAACWrHjh16++23kzB8zdD9lder8W/y9MCkZPx184Tq1k3Xmv/oU+U/btVbDW9p548q1f/LVZr9nafUlGSXo7KyUg8++CDhKwAAwFVG8AoAAJCATOj6hz/8QTk5ORo/fryzNgmUXa/mHxTo6QWZmnT2knqd1ckmb8V+tRzapsdXVqtycaWqV27Uztc2qey9Ddr83x3OVsnhzjvvVGNjI+ErAADAVUbwCgAAkGC8oevXv/51VVRUOGuTxIR05Z7/Uo37enT3z/vV6axOLkWqvLdUec7SoPnlusf6q+7/2jzLSeKJJ57Qk08+SfgKAABwlRG8AgAAJJCkDl2N35zUjNqTWrO7T586q1JN0egs513yIHwFAAC4+gheAQAAEkTSh66p7kCTXlaR1txe4qxILoSvAAAAVxfBKwAAQILwTqKVVDVdrxVn9uqptevV8debtXpxtrMy+fiGrVOnTnXeAQAAIB4IXgEAABLEypUr7dB137599gsJ4kS9NtxVri3ZG1X3sxpNT3PWJxkzyvUXv/iFPZp69+7dzloAAADEC8ErAABAAiF8TSxtr6xXVeka7b1rp5rfeFxlOc4HSYbQFQAA4OojeAUAAEgwhK+JoEd7n65S+boWVb7Uord+VK2i0c5HSWb16tWErgAAACOA4BUAACABecPXjo4OZw2upuZnqlX+aom27t2px7+Z56xNTmYyLUJXAACAq4/gFQAAIEGZ8HXp0qXOEq6arjrV/mCvvvfDTapOgfmnWltbCV0BAABGAMErAAAA4Ot/92urKpV3pkkNuxtCvJp1ot/ZFgAAAAiD4BUAAADwceLTFuvPBj11f5WqKkO9Nqqhy7MtAAAAEA7BKwAAAOLklL69qUMznj/lLCeHopUva2BgIMLrZdXc4GwMAAAAhEHwCgAAAAAAAAAuI3gFAAAAAAAAAJcRvAIAAAAAAACAywheAQAAAAAAAMBlBK8AAAAAAAAA4DKCVwAAAAAAAABwGcErAACAC9LS0jTgvE8kpk2mbdHKHBX9tldbLG0zfb40kHhXxLQpluuRKv0AAAC4FhG8AgAAuGB0erouXrjoLCUO0ybTtmjNn5zhvEs8sbRtXHaWek+fdZYSh2mTaVu0UqUfAAAA1yKCVwAAABdkZY3Ruf7zCTXq1bTFtMm0LVor54113iWeWNpWcN0EdXZ1J9RoUdMW0ybTtmilSj8AAACuRQSvAAAALhiTmaHMjNE61XtGFy5cHNEA1hzbtMG0xbTJtC1a95Vk66Fv5DhLicO0ybQtWvkTxitnXLaOtn2mHus8jGRwaY5t2mDaYtpk2hatVOkHAADAtSiuhZkGLM5bAACAa8L5CxfV339eX166ZH4XctZeXab2pikvYEa6xhK6+nq1pU8vHjynAx0XdeGrkemHqelqyguYka6xhK6+uk+dVtefTulsX/+IXg/zWL4ZITrcsDJV+gEAAHAtIXgFAAAAAAAAAJdRagAAAAAAAAAAXEbwCgAAAAAAAAAuI3gFAAAAAAAAAJcRvAIAAAAAAACAywheAQAAAAAAAMBlBK8AAAAAAAAA4DKCVwAAAAAAAABwGcErAAAAAAAAALhK+n/jrtMXk3HZ3wAAAABJRU5ErkJggg==;clipPath=inset(0% 0.33% 0% 1.33%);" vertex="1" parent="1">
                    <mxGeometry width="1374" height="978.1016949152543" as="geometry"/>
                </mxCell>
                <mxCell id="3" value="" style="rounded=0;whiteSpace=wrap;html=1;fillColor=none;strokeColor=#F00000;" vertex="1" parent="1">
                    <mxGeometry x="16" y="8" width="405" height="50" as="geometry"/>
                </mxCell>
                <mxCell id="4" value="" style="rounded=0;whiteSpace=wrap;html=1;fillColor=none;strokeColor=#0000FF;" vertex="1" parent="1">
                    <mxGeometry x="959" y="7" width="400" height="50" as="geometry"/>
                </mxCell>
                <mxCell id="5" value="" style="rounded=0;whiteSpace=wrap;html=1;fillColor=none;strokeColor=#00FF00;" vertex="1" parent="1">
                    <mxGeometry x="20" y="62" width="1330" height="860" as="geometry"/>
                </mxCell>
                <mxCell id="6" value="" style="rounded=0;whiteSpace=wrap;html=1;fillColor=none;strokeColor=#FF8000;" vertex="1" parent="1">
                    <mxGeometry x="564.5" y="930" width="235.5" height="40" as="geometry"/>
                </mxCell>
            </root>
        </mxGraphModel>
    </diagram>
</mxfile>